%TF.GenerationSoftware,KiCad,Pcbnew,(6.0.5)*%
%TF.CreationDate,2022-08-25T18:23:53-06:00*%
%TF.ProjectId,Led Zia,4c656420-5a69-4612-9e6b-696361645f70,rev?*%
%TF.SameCoordinates,Original*%
%TF.FileFunction,Legend,Bot*%
%TF.FilePolarity,Positive*%
%FSLAX46Y46*%
G04 Gerber Fmt 4.6, Leading zero omitted, Abs format (unit mm)*
G04 Created by KiCad (PCBNEW (6.0.5)) date 2022-08-25 18:23:53*
%MOMM*%
%LPD*%
G01*
G04 APERTURE LIST*
%ADD10C,0.150000*%
G04 APERTURE END LIST*
D10*
X67500000Y-102000000D02*
X35500000Y-102000000D01*
X67500000Y-108500000D02*
X35500000Y-108500000D01*
X67500000Y-107000000D02*
X35500000Y-107000000D01*
X67500000Y-99000000D02*
X35500000Y-99000000D01*
X67500000Y-94000000D02*
X35500000Y-94000000D01*
X67164404Y-93652380D02*
X67164404Y-92652380D01*
X66688214Y-92985714D02*
X66688214Y-93652380D01*
X66688214Y-93080952D02*
X66640595Y-93033333D01*
X66545357Y-92985714D01*
X66402500Y-92985714D01*
X66307261Y-93033333D01*
X66259642Y-93128571D01*
X66259642Y-93652380D01*
X65926309Y-92985714D02*
X65545357Y-92985714D01*
X65783452Y-93652380D02*
X65783452Y-92795238D01*
X65735833Y-92700000D01*
X65640595Y-92652380D01*
X65545357Y-92652380D01*
X65069166Y-93652380D02*
X65164404Y-93604761D01*
X65212023Y-93557142D01*
X65259642Y-93461904D01*
X65259642Y-93176190D01*
X65212023Y-93080952D01*
X65164404Y-93033333D01*
X65069166Y-92985714D01*
X64926309Y-92985714D01*
X64831071Y-93033333D01*
X64783452Y-93080952D01*
X64735833Y-93176190D01*
X64735833Y-93461904D01*
X64783452Y-93557142D01*
X64831071Y-93604761D01*
X64926309Y-93652380D01*
X65069166Y-93652380D01*
X67307261Y-94262380D02*
X66735833Y-94262380D01*
X67021547Y-95262380D02*
X67021547Y-94262380D01*
X66402500Y-95262380D02*
X66402500Y-94262380D01*
X65973928Y-95262380D02*
X65973928Y-94738571D01*
X66021547Y-94643333D01*
X66116785Y-94595714D01*
X66259642Y-94595714D01*
X66354880Y-94643333D01*
X66402500Y-94690952D01*
X65116785Y-95214761D02*
X65212023Y-95262380D01*
X65402500Y-95262380D01*
X65497738Y-95214761D01*
X65545357Y-95119523D01*
X65545357Y-94738571D01*
X65497738Y-94643333D01*
X65402500Y-94595714D01*
X65212023Y-94595714D01*
X65116785Y-94643333D01*
X65069166Y-94738571D01*
X65069166Y-94833809D01*
X65545357Y-94929047D01*
X63878690Y-95262380D02*
X63878690Y-94262380D01*
X63497738Y-94262380D01*
X63402500Y-94310000D01*
X63354880Y-94357619D01*
X63307261Y-94452857D01*
X63307261Y-94595714D01*
X63354880Y-94690952D01*
X63402500Y-94738571D01*
X63497738Y-94786190D01*
X63878690Y-94786190D01*
X62307261Y-95167142D02*
X62354880Y-95214761D01*
X62497738Y-95262380D01*
X62592976Y-95262380D01*
X62735833Y-95214761D01*
X62831071Y-95119523D01*
X62878690Y-95024285D01*
X62926309Y-94833809D01*
X62926309Y-94690952D01*
X62878690Y-94500476D01*
X62831071Y-94405238D01*
X62735833Y-94310000D01*
X62592976Y-94262380D01*
X62497738Y-94262380D01*
X62354880Y-94310000D01*
X62307261Y-94357619D01*
X61545357Y-94738571D02*
X61402500Y-94786190D01*
X61354880Y-94833809D01*
X61307261Y-94929047D01*
X61307261Y-95071904D01*
X61354880Y-95167142D01*
X61402500Y-95214761D01*
X61497738Y-95262380D01*
X61878690Y-95262380D01*
X61878690Y-94262380D01*
X61545357Y-94262380D01*
X61450119Y-94310000D01*
X61402500Y-94357619D01*
X61354880Y-94452857D01*
X61354880Y-94548095D01*
X61402500Y-94643333D01*
X61450119Y-94690952D01*
X61545357Y-94738571D01*
X61878690Y-94738571D01*
X60116785Y-94595714D02*
X60116785Y-95262380D01*
X60116785Y-94690952D02*
X60069166Y-94643333D01*
X59973928Y-94595714D01*
X59831071Y-94595714D01*
X59735833Y-94643333D01*
X59688214Y-94738571D01*
X59688214Y-95262380D01*
X58831071Y-95214761D02*
X58926309Y-95262380D01*
X59116785Y-95262380D01*
X59212023Y-95214761D01*
X59259642Y-95119523D01*
X59259642Y-94738571D01*
X59212023Y-94643333D01*
X59116785Y-94595714D01*
X58926309Y-94595714D01*
X58831071Y-94643333D01*
X58783452Y-94738571D01*
X58783452Y-94833809D01*
X59259642Y-94929047D01*
X57973928Y-95214761D02*
X58069166Y-95262380D01*
X58259642Y-95262380D01*
X58354880Y-95214761D01*
X58402500Y-95119523D01*
X58402500Y-94738571D01*
X58354880Y-94643333D01*
X58259642Y-94595714D01*
X58069166Y-94595714D01*
X57973928Y-94643333D01*
X57926309Y-94738571D01*
X57926309Y-94833809D01*
X58402500Y-94929047D01*
X57069166Y-95262380D02*
X57069166Y-94262380D01*
X57069166Y-95214761D02*
X57164404Y-95262380D01*
X57354880Y-95262380D01*
X57450119Y-95214761D01*
X57497738Y-95167142D01*
X57545357Y-95071904D01*
X57545357Y-94786190D01*
X57497738Y-94690952D01*
X57450119Y-94643333D01*
X57354880Y-94595714D01*
X57164404Y-94595714D01*
X57069166Y-94643333D01*
X56640595Y-95214761D02*
X56545357Y-95262380D01*
X56354880Y-95262380D01*
X56259642Y-95214761D01*
X56212023Y-95119523D01*
X56212023Y-95071904D01*
X56259642Y-94976666D01*
X56354880Y-94929047D01*
X56497738Y-94929047D01*
X56592976Y-94881428D01*
X56640595Y-94786190D01*
X56640595Y-94738571D01*
X56592976Y-94643333D01*
X56497738Y-94595714D01*
X56354880Y-94595714D01*
X56259642Y-94643333D01*
X54545357Y-94262380D02*
X55021547Y-94262380D01*
X55069166Y-94738571D01*
X55021547Y-94690952D01*
X54926309Y-94643333D01*
X54688214Y-94643333D01*
X54592976Y-94690952D01*
X54545357Y-94738571D01*
X54497738Y-94833809D01*
X54497738Y-95071904D01*
X54545357Y-95167142D01*
X54592976Y-95214761D01*
X54688214Y-95262380D01*
X54926309Y-95262380D01*
X55021547Y-95214761D01*
X55069166Y-95167142D01*
X54212023Y-94262380D02*
X53878690Y-95262380D01*
X53545357Y-94262380D01*
X52497738Y-94357619D02*
X52450119Y-94310000D01*
X52354880Y-94262380D01*
X52116785Y-94262380D01*
X52021547Y-94310000D01*
X51973928Y-94357619D01*
X51926309Y-94452857D01*
X51926309Y-94548095D01*
X51973928Y-94690952D01*
X52545357Y-95262380D01*
X51926309Y-95262380D01*
X51497738Y-95167142D02*
X51450119Y-95214761D01*
X51497738Y-95262380D01*
X51545357Y-95214761D01*
X51497738Y-95167142D01*
X51497738Y-95262380D01*
X51116785Y-94262380D02*
X50497738Y-94262380D01*
X50831071Y-94643333D01*
X50688214Y-94643333D01*
X50592976Y-94690952D01*
X50545357Y-94738571D01*
X50497738Y-94833809D01*
X50497738Y-95071904D01*
X50545357Y-95167142D01*
X50592976Y-95214761D01*
X50688214Y-95262380D01*
X50973928Y-95262380D01*
X51069166Y-95214761D01*
X51116785Y-95167142D01*
X50116785Y-94976666D02*
X49640595Y-94976666D01*
X50212023Y-95262380D02*
X49878690Y-94262380D01*
X49545357Y-95262380D01*
X48592976Y-94595714D02*
X48212023Y-94595714D01*
X48450119Y-94262380D02*
X48450119Y-95119523D01*
X48402500Y-95214761D01*
X48307261Y-95262380D01*
X48212023Y-95262380D01*
X47735833Y-95262380D02*
X47831071Y-95214761D01*
X47878690Y-95167142D01*
X47926309Y-95071904D01*
X47926309Y-94786190D01*
X47878690Y-94690952D01*
X47831071Y-94643333D01*
X47735833Y-94595714D01*
X47592976Y-94595714D01*
X47497738Y-94643333D01*
X47450119Y-94690952D01*
X47402500Y-94786190D01*
X47402500Y-95071904D01*
X47450119Y-95167142D01*
X47497738Y-95214761D01*
X47592976Y-95262380D01*
X47735833Y-95262380D01*
X46069166Y-95262380D02*
X46164404Y-95214761D01*
X46212023Y-95167142D01*
X46259642Y-95071904D01*
X46259642Y-94786190D01*
X46212023Y-94690952D01*
X46164404Y-94643333D01*
X46069166Y-94595714D01*
X45926309Y-94595714D01*
X45831071Y-94643333D01*
X45783452Y-94690952D01*
X45735833Y-94786190D01*
X45735833Y-95071904D01*
X45783452Y-95167142D01*
X45831071Y-95214761D01*
X45926309Y-95262380D01*
X46069166Y-95262380D01*
X45307261Y-94595714D02*
X45307261Y-95595714D01*
X45307261Y-94643333D02*
X45212023Y-94595714D01*
X45021547Y-94595714D01*
X44926309Y-94643333D01*
X44878690Y-94690952D01*
X44831071Y-94786190D01*
X44831071Y-95071904D01*
X44878690Y-95167142D01*
X44926309Y-95214761D01*
X45021547Y-95262380D01*
X45212023Y-95262380D01*
X45307261Y-95214761D01*
X44021547Y-95214761D02*
X44116785Y-95262380D01*
X44307261Y-95262380D01*
X44402500Y-95214761D01*
X44450119Y-95119523D01*
X44450119Y-94738571D01*
X44402500Y-94643333D01*
X44307261Y-94595714D01*
X44116785Y-94595714D01*
X44021547Y-94643333D01*
X43973928Y-94738571D01*
X43973928Y-94833809D01*
X44450119Y-94929047D01*
X43545357Y-95262380D02*
X43545357Y-94595714D01*
X43545357Y-94786190D02*
X43497738Y-94690952D01*
X43450119Y-94643333D01*
X43354880Y-94595714D01*
X43259642Y-94595714D01*
X42497738Y-95262380D02*
X42497738Y-94738571D01*
X42545357Y-94643333D01*
X42640595Y-94595714D01*
X42831071Y-94595714D01*
X42926309Y-94643333D01*
X42497738Y-95214761D02*
X42592976Y-95262380D01*
X42831071Y-95262380D01*
X42926309Y-95214761D01*
X42973928Y-95119523D01*
X42973928Y-95024285D01*
X42926309Y-94929047D01*
X42831071Y-94881428D01*
X42592976Y-94881428D01*
X42497738Y-94833809D01*
X42164404Y-94595714D02*
X41783452Y-94595714D01*
X42021547Y-94262380D02*
X42021547Y-95119523D01*
X41973928Y-95214761D01*
X41878690Y-95262380D01*
X41783452Y-95262380D01*
X41069166Y-95214761D02*
X41164404Y-95262380D01*
X41354880Y-95262380D01*
X41450119Y-95214761D01*
X41497738Y-95119523D01*
X41497738Y-94738571D01*
X41450119Y-94643333D01*
X41354880Y-94595714D01*
X41164404Y-94595714D01*
X41069166Y-94643333D01*
X41021547Y-94738571D01*
X41021547Y-94833809D01*
X41497738Y-94929047D01*
X39402500Y-95262380D02*
X39402500Y-94738571D01*
X39450119Y-94643333D01*
X39545357Y-94595714D01*
X39735833Y-94595714D01*
X39831071Y-94643333D01*
X39402500Y-95214761D02*
X39497738Y-95262380D01*
X39735833Y-95262380D01*
X39831071Y-95214761D01*
X39878690Y-95119523D01*
X39878690Y-95024285D01*
X39831071Y-94929047D01*
X39735833Y-94881428D01*
X39497738Y-94881428D01*
X39402500Y-94833809D01*
X39069166Y-94595714D02*
X38688214Y-94595714D01*
X38926309Y-94262380D02*
X38926309Y-95119523D01*
X38878690Y-95214761D01*
X38783452Y-95262380D01*
X38688214Y-95262380D01*
X37164404Y-95262380D02*
X37164404Y-94738571D01*
X37212023Y-94643333D01*
X37307261Y-94595714D01*
X37497738Y-94595714D01*
X37592976Y-94643333D01*
X37164404Y-95214761D02*
X37259642Y-95262380D01*
X37497738Y-95262380D01*
X37592976Y-95214761D01*
X37640595Y-95119523D01*
X37640595Y-95024285D01*
X37592976Y-94929047D01*
X37497738Y-94881428D01*
X37259642Y-94881428D01*
X37164404Y-94833809D01*
X66735833Y-96824761D02*
X66831071Y-96872380D01*
X67021547Y-96872380D01*
X67116785Y-96824761D01*
X67164404Y-96777142D01*
X67212023Y-96681904D01*
X67212023Y-96396190D01*
X67164404Y-96300952D01*
X67116785Y-96253333D01*
X67021547Y-96205714D01*
X66831071Y-96205714D01*
X66735833Y-96253333D01*
X66164404Y-96872380D02*
X66259642Y-96824761D01*
X66307261Y-96777142D01*
X66354880Y-96681904D01*
X66354880Y-96396190D01*
X66307261Y-96300952D01*
X66259642Y-96253333D01*
X66164404Y-96205714D01*
X66021547Y-96205714D01*
X65926309Y-96253333D01*
X65878690Y-96300952D01*
X65831071Y-96396190D01*
X65831071Y-96681904D01*
X65878690Y-96777142D01*
X65926309Y-96824761D01*
X66021547Y-96872380D01*
X66164404Y-96872380D01*
X65402500Y-96205714D02*
X65402500Y-96872380D01*
X65402500Y-96300952D02*
X65354880Y-96253333D01*
X65259642Y-96205714D01*
X65116785Y-96205714D01*
X65021547Y-96253333D01*
X64973928Y-96348571D01*
X64973928Y-96872380D01*
X64545357Y-96824761D02*
X64450119Y-96872380D01*
X64259642Y-96872380D01*
X64164404Y-96824761D01*
X64116785Y-96729523D01*
X64116785Y-96681904D01*
X64164404Y-96586666D01*
X64259642Y-96539047D01*
X64402500Y-96539047D01*
X64497738Y-96491428D01*
X64545357Y-96396190D01*
X64545357Y-96348571D01*
X64497738Y-96253333D01*
X64402500Y-96205714D01*
X64259642Y-96205714D01*
X64164404Y-96253333D01*
X63688214Y-96872380D02*
X63688214Y-96205714D01*
X63688214Y-95872380D02*
X63735833Y-95920000D01*
X63688214Y-95967619D01*
X63640595Y-95920000D01*
X63688214Y-95872380D01*
X63688214Y-95967619D01*
X63259642Y-96824761D02*
X63164404Y-96872380D01*
X62973928Y-96872380D01*
X62878690Y-96824761D01*
X62831071Y-96729523D01*
X62831071Y-96681904D01*
X62878690Y-96586666D01*
X62973928Y-96539047D01*
X63116785Y-96539047D01*
X63212023Y-96491428D01*
X63259642Y-96396190D01*
X63259642Y-96348571D01*
X63212023Y-96253333D01*
X63116785Y-96205714D01*
X62973928Y-96205714D01*
X62878690Y-96253333D01*
X62545357Y-96205714D02*
X62164404Y-96205714D01*
X62402500Y-95872380D02*
X62402500Y-96729523D01*
X62354880Y-96824761D01*
X62259642Y-96872380D01*
X62164404Y-96872380D01*
X61450119Y-96824761D02*
X61545357Y-96872380D01*
X61735833Y-96872380D01*
X61831071Y-96824761D01*
X61878690Y-96729523D01*
X61878690Y-96348571D01*
X61831071Y-96253333D01*
X61735833Y-96205714D01*
X61545357Y-96205714D01*
X61450119Y-96253333D01*
X61402500Y-96348571D01*
X61402500Y-96443809D01*
X61878690Y-96539047D01*
X60973928Y-96205714D02*
X60973928Y-96872380D01*
X60973928Y-96300952D02*
X60926309Y-96253333D01*
X60831071Y-96205714D01*
X60688214Y-96205714D01*
X60592976Y-96253333D01*
X60545357Y-96348571D01*
X60545357Y-96872380D01*
X60212023Y-96205714D02*
X59831071Y-96205714D01*
X60069166Y-95872380D02*
X60069166Y-96729523D01*
X60021547Y-96824761D01*
X59926309Y-96872380D01*
X59831071Y-96872380D01*
X58878690Y-96205714D02*
X58497738Y-96205714D01*
X58735833Y-96872380D02*
X58735833Y-96015238D01*
X58688214Y-95920000D01*
X58592976Y-95872380D01*
X58497738Y-95872380D01*
X57735833Y-96205714D02*
X57735833Y-96872380D01*
X58164404Y-96205714D02*
X58164404Y-96729523D01*
X58116785Y-96824761D01*
X58021547Y-96872380D01*
X57878690Y-96872380D01*
X57783452Y-96824761D01*
X57735833Y-96777142D01*
X57116785Y-96872380D02*
X57212023Y-96824761D01*
X57259642Y-96729523D01*
X57259642Y-95872380D01*
X56592976Y-96872380D02*
X56688214Y-96824761D01*
X56735833Y-96729523D01*
X56735833Y-95872380D01*
X55450119Y-96872380D02*
X55450119Y-95872380D01*
X55450119Y-96253333D02*
X55354880Y-96205714D01*
X55164404Y-96205714D01*
X55069166Y-96253333D01*
X55021547Y-96300952D01*
X54973928Y-96396190D01*
X54973928Y-96681904D01*
X55021547Y-96777142D01*
X55069166Y-96824761D01*
X55164404Y-96872380D01*
X55354880Y-96872380D01*
X55450119Y-96824761D01*
X54545357Y-96872380D02*
X54545357Y-96205714D01*
X54545357Y-96396190D02*
X54497738Y-96300952D01*
X54450119Y-96253333D01*
X54354880Y-96205714D01*
X54259642Y-96205714D01*
X53926309Y-96872380D02*
X53926309Y-96205714D01*
X53926309Y-95872380D02*
X53973928Y-95920000D01*
X53926309Y-95967619D01*
X53878690Y-95920000D01*
X53926309Y-95872380D01*
X53926309Y-95967619D01*
X53021547Y-96205714D02*
X53021547Y-97015238D01*
X53069166Y-97110476D01*
X53116785Y-97158095D01*
X53212023Y-97205714D01*
X53354880Y-97205714D01*
X53450119Y-97158095D01*
X53021547Y-96824761D02*
X53116785Y-96872380D01*
X53307261Y-96872380D01*
X53402500Y-96824761D01*
X53450119Y-96777142D01*
X53497738Y-96681904D01*
X53497738Y-96396190D01*
X53450119Y-96300952D01*
X53402500Y-96253333D01*
X53307261Y-96205714D01*
X53116785Y-96205714D01*
X53021547Y-96253333D01*
X52545357Y-96872380D02*
X52545357Y-95872380D01*
X52116785Y-96872380D02*
X52116785Y-96348571D01*
X52164404Y-96253333D01*
X52259642Y-96205714D01*
X52402500Y-96205714D01*
X52497738Y-96253333D01*
X52545357Y-96300952D01*
X51783452Y-96205714D02*
X51402500Y-96205714D01*
X51640595Y-95872380D02*
X51640595Y-96729523D01*
X51592976Y-96824761D01*
X51497738Y-96872380D01*
X51402500Y-96872380D01*
X51069166Y-96205714D02*
X51069166Y-96872380D01*
X51069166Y-96300952D02*
X51021547Y-96253333D01*
X50926309Y-96205714D01*
X50783452Y-96205714D01*
X50688214Y-96253333D01*
X50640595Y-96348571D01*
X50640595Y-96872380D01*
X49783452Y-96824761D02*
X49878690Y-96872380D01*
X50069166Y-96872380D01*
X50164404Y-96824761D01*
X50212023Y-96729523D01*
X50212023Y-96348571D01*
X50164404Y-96253333D01*
X50069166Y-96205714D01*
X49878690Y-96205714D01*
X49783452Y-96253333D01*
X49735833Y-96348571D01*
X49735833Y-96443809D01*
X50212023Y-96539047D01*
X49354880Y-96824761D02*
X49259642Y-96872380D01*
X49069166Y-96872380D01*
X48973928Y-96824761D01*
X48926309Y-96729523D01*
X48926309Y-96681904D01*
X48973928Y-96586666D01*
X49069166Y-96539047D01*
X49212023Y-96539047D01*
X49307261Y-96491428D01*
X49354880Y-96396190D01*
X49354880Y-96348571D01*
X49307261Y-96253333D01*
X49212023Y-96205714D01*
X49069166Y-96205714D01*
X48973928Y-96253333D01*
X48545357Y-96824761D02*
X48450119Y-96872380D01*
X48259642Y-96872380D01*
X48164404Y-96824761D01*
X48116785Y-96729523D01*
X48116785Y-96681904D01*
X48164404Y-96586666D01*
X48259642Y-96539047D01*
X48402500Y-96539047D01*
X48497738Y-96491428D01*
X48545357Y-96396190D01*
X48545357Y-96348571D01*
X48497738Y-96253333D01*
X48402500Y-96205714D01*
X48259642Y-96205714D01*
X48164404Y-96253333D01*
X46640595Y-97253333D02*
X46688214Y-97205714D01*
X46783452Y-97062857D01*
X46831071Y-96967619D01*
X46878690Y-96824761D01*
X46926309Y-96586666D01*
X46926309Y-96396190D01*
X46878690Y-96158095D01*
X46831071Y-96015238D01*
X46783452Y-95920000D01*
X46688214Y-95777142D01*
X46640595Y-95729523D01*
X45878690Y-96824761D02*
X45973928Y-96872380D01*
X46164404Y-96872380D01*
X46259642Y-96824761D01*
X46307261Y-96729523D01*
X46307261Y-96348571D01*
X46259642Y-96253333D01*
X46164404Y-96205714D01*
X45973928Y-96205714D01*
X45878690Y-96253333D01*
X45831071Y-96348571D01*
X45831071Y-96443809D01*
X46307261Y-96539047D01*
X44973928Y-96872380D02*
X44973928Y-96348571D01*
X45021547Y-96253333D01*
X45116785Y-96205714D01*
X45307261Y-96205714D01*
X45402500Y-96253333D01*
X44973928Y-96824761D02*
X45069166Y-96872380D01*
X45307261Y-96872380D01*
X45402500Y-96824761D01*
X45450119Y-96729523D01*
X45450119Y-96634285D01*
X45402500Y-96539047D01*
X45307261Y-96491428D01*
X45069166Y-96491428D01*
X44973928Y-96443809D01*
X44069166Y-96824761D02*
X44164404Y-96872380D01*
X44354880Y-96872380D01*
X44450119Y-96824761D01*
X44497738Y-96777142D01*
X44545357Y-96681904D01*
X44545357Y-96396190D01*
X44497738Y-96300952D01*
X44450119Y-96253333D01*
X44354880Y-96205714D01*
X44164404Y-96205714D01*
X44069166Y-96253333D01*
X43640595Y-96872380D02*
X43640595Y-95872380D01*
X43212023Y-96872380D02*
X43212023Y-96348571D01*
X43259642Y-96253333D01*
X43354880Y-96205714D01*
X43497738Y-96205714D01*
X43592976Y-96253333D01*
X43640595Y-96300952D01*
X41497738Y-96872380D02*
X41973928Y-96872380D01*
X41973928Y-95872380D01*
X41164404Y-96348571D02*
X40831071Y-96348571D01*
X40688214Y-96872380D02*
X41164404Y-96872380D01*
X41164404Y-95872380D01*
X40688214Y-95872380D01*
X40259642Y-96872380D02*
X40259642Y-95872380D01*
X40021547Y-95872380D01*
X39878690Y-95920000D01*
X39783452Y-96015238D01*
X39735833Y-96110476D01*
X39688214Y-96300952D01*
X39688214Y-96443809D01*
X39735833Y-96634285D01*
X39783452Y-96729523D01*
X39878690Y-96824761D01*
X40021547Y-96872380D01*
X40259642Y-96872380D01*
X66735833Y-98482380D02*
X66735833Y-97482380D01*
X66735833Y-98434761D02*
X66831071Y-98482380D01*
X67021547Y-98482380D01*
X67116785Y-98434761D01*
X67164404Y-98387142D01*
X67212023Y-98291904D01*
X67212023Y-98006190D01*
X67164404Y-97910952D01*
X67116785Y-97863333D01*
X67021547Y-97815714D01*
X66831071Y-97815714D01*
X66735833Y-97863333D01*
X66259642Y-98482380D02*
X66259642Y-97815714D01*
X66259642Y-98006190D02*
X66212023Y-97910952D01*
X66164404Y-97863333D01*
X66069166Y-97815714D01*
X65973928Y-97815714D01*
X65212023Y-98482380D02*
X65212023Y-97958571D01*
X65259642Y-97863333D01*
X65354880Y-97815714D01*
X65545357Y-97815714D01*
X65640595Y-97863333D01*
X65212023Y-98434761D02*
X65307261Y-98482380D01*
X65545357Y-98482380D01*
X65640595Y-98434761D01*
X65688214Y-98339523D01*
X65688214Y-98244285D01*
X65640595Y-98149047D01*
X65545357Y-98101428D01*
X65307261Y-98101428D01*
X65212023Y-98053809D01*
X64831071Y-97815714D02*
X64640595Y-98482380D01*
X64450119Y-98006190D01*
X64259642Y-98482380D01*
X64069166Y-97815714D01*
X63735833Y-98434761D02*
X63640595Y-98482380D01*
X63450119Y-98482380D01*
X63354880Y-98434761D01*
X63307261Y-98339523D01*
X63307261Y-98291904D01*
X63354880Y-98196666D01*
X63450119Y-98149047D01*
X63592976Y-98149047D01*
X63688214Y-98101428D01*
X63735833Y-98006190D01*
X63735833Y-97958571D01*
X63688214Y-97863333D01*
X63592976Y-97815714D01*
X63450119Y-97815714D01*
X63354880Y-97863333D01*
X61688214Y-97815714D02*
X61688214Y-98482380D01*
X61926309Y-97434761D02*
X62164404Y-98149047D01*
X61545357Y-98149047D01*
X61021547Y-97910952D02*
X61116785Y-97863333D01*
X61164404Y-97815714D01*
X61212023Y-97720476D01*
X61212023Y-97672857D01*
X61164404Y-97577619D01*
X61116785Y-97530000D01*
X61021547Y-97482380D01*
X60831071Y-97482380D01*
X60735833Y-97530000D01*
X60688214Y-97577619D01*
X60640595Y-97672857D01*
X60640595Y-97720476D01*
X60688214Y-97815714D01*
X60735833Y-97863333D01*
X60831071Y-97910952D01*
X61021547Y-97910952D01*
X61116785Y-97958571D01*
X61164404Y-98006190D01*
X61212023Y-98101428D01*
X61212023Y-98291904D01*
X61164404Y-98387142D01*
X61116785Y-98434761D01*
X61021547Y-98482380D01*
X60831071Y-98482380D01*
X60735833Y-98434761D01*
X60688214Y-98387142D01*
X60640595Y-98291904D01*
X60640595Y-98101428D01*
X60688214Y-98006190D01*
X60735833Y-97958571D01*
X60831071Y-97910952D01*
X60212023Y-98482380D02*
X60212023Y-97815714D01*
X60212023Y-97910952D02*
X60164404Y-97863333D01*
X60069166Y-97815714D01*
X59926309Y-97815714D01*
X59831071Y-97863333D01*
X59783452Y-97958571D01*
X59783452Y-98482380D01*
X59783452Y-97958571D02*
X59735833Y-97863333D01*
X59640595Y-97815714D01*
X59497738Y-97815714D01*
X59402500Y-97863333D01*
X59354880Y-97958571D01*
X59354880Y-98482380D01*
X58926309Y-98196666D02*
X58450119Y-98196666D01*
X59021547Y-98482380D02*
X58688214Y-97482380D01*
X58354880Y-98482380D01*
X56831071Y-98482380D02*
X56831071Y-97958571D01*
X56878690Y-97863333D01*
X56973928Y-97815714D01*
X57164404Y-97815714D01*
X57259642Y-97863333D01*
X56831071Y-98434761D02*
X56926309Y-98482380D01*
X57164404Y-98482380D01*
X57259642Y-98434761D01*
X57307261Y-98339523D01*
X57307261Y-98244285D01*
X57259642Y-98149047D01*
X57164404Y-98101428D01*
X56926309Y-98101428D01*
X56831071Y-98053809D01*
X56497738Y-97815714D02*
X56116785Y-97815714D01*
X56354880Y-97482380D02*
X56354880Y-98339523D01*
X56307261Y-98434761D01*
X56212023Y-98482380D01*
X56116785Y-98482380D01*
X55164404Y-97815714D02*
X54783452Y-97815714D01*
X55021547Y-98482380D02*
X55021547Y-97625238D01*
X54973928Y-97530000D01*
X54878690Y-97482380D01*
X54783452Y-97482380D01*
X54021547Y-97815714D02*
X54021547Y-98482380D01*
X54450119Y-97815714D02*
X54450119Y-98339523D01*
X54402500Y-98434761D01*
X54307261Y-98482380D01*
X54164404Y-98482380D01*
X54069166Y-98434761D01*
X54021547Y-98387142D01*
X53402500Y-98482380D02*
X53497738Y-98434761D01*
X53545357Y-98339523D01*
X53545357Y-97482380D01*
X52878690Y-98482380D02*
X52973928Y-98434761D01*
X53021547Y-98339523D01*
X53021547Y-97482380D01*
X51831071Y-97815714D02*
X51640595Y-98482380D01*
X51450119Y-98006190D01*
X51259642Y-98482380D01*
X51069166Y-97815714D01*
X50688214Y-98482380D02*
X50688214Y-97482380D01*
X50259642Y-98482380D02*
X50259642Y-97958571D01*
X50307261Y-97863333D01*
X50402500Y-97815714D01*
X50545357Y-97815714D01*
X50640595Y-97863333D01*
X50688214Y-97910952D01*
X49783452Y-98482380D02*
X49783452Y-97815714D01*
X49783452Y-97482380D02*
X49831071Y-97530000D01*
X49783452Y-97577619D01*
X49735833Y-97530000D01*
X49783452Y-97482380D01*
X49783452Y-97577619D01*
X49450119Y-97815714D02*
X49069166Y-97815714D01*
X49307261Y-97482380D02*
X49307261Y-98339523D01*
X49259642Y-98434761D01*
X49164404Y-98482380D01*
X49069166Y-98482380D01*
X48354880Y-98434761D02*
X48450119Y-98482380D01*
X48640595Y-98482380D01*
X48735833Y-98434761D01*
X48783452Y-98339523D01*
X48783452Y-97958571D01*
X48735833Y-97863333D01*
X48640595Y-97815714D01*
X48450119Y-97815714D01*
X48354880Y-97863333D01*
X48307261Y-97958571D01*
X48307261Y-98053809D01*
X48783452Y-98149047D01*
X47116785Y-98482380D02*
X47116785Y-97482380D01*
X47116785Y-97863333D02*
X47021547Y-97815714D01*
X46831071Y-97815714D01*
X46735833Y-97863333D01*
X46688214Y-97910952D01*
X46640595Y-98006190D01*
X46640595Y-98291904D01*
X46688214Y-98387142D01*
X46735833Y-98434761D01*
X46831071Y-98482380D01*
X47021547Y-98482380D01*
X47116785Y-98434761D01*
X46212023Y-98482380D02*
X46212023Y-97815714D01*
X46212023Y-98006190D02*
X46164404Y-97910952D01*
X46116785Y-97863333D01*
X46021547Y-97815714D01*
X45926309Y-97815714D01*
X45592976Y-98482380D02*
X45592976Y-97815714D01*
X45592976Y-97482380D02*
X45640595Y-97530000D01*
X45592976Y-97577619D01*
X45545357Y-97530000D01*
X45592976Y-97482380D01*
X45592976Y-97577619D01*
X44688214Y-97815714D02*
X44688214Y-98625238D01*
X44735833Y-98720476D01*
X44783452Y-98768095D01*
X44878690Y-98815714D01*
X45021547Y-98815714D01*
X45116785Y-98768095D01*
X44688214Y-98434761D02*
X44783452Y-98482380D01*
X44973928Y-98482380D01*
X45069166Y-98434761D01*
X45116785Y-98387142D01*
X45164404Y-98291904D01*
X45164404Y-98006190D01*
X45116785Y-97910952D01*
X45069166Y-97863333D01*
X44973928Y-97815714D01*
X44783452Y-97815714D01*
X44688214Y-97863333D01*
X44212023Y-98482380D02*
X44212023Y-97482380D01*
X43783452Y-98482380D02*
X43783452Y-97958571D01*
X43831071Y-97863333D01*
X43926309Y-97815714D01*
X44069166Y-97815714D01*
X44164404Y-97863333D01*
X44212023Y-97910952D01*
X43450119Y-97815714D02*
X43069166Y-97815714D01*
X43307261Y-97482380D02*
X43307261Y-98339523D01*
X43259642Y-98434761D01*
X43164404Y-98482380D01*
X43069166Y-98482380D01*
X42735833Y-97815714D02*
X42735833Y-98482380D01*
X42735833Y-97910952D02*
X42688214Y-97863333D01*
X42592976Y-97815714D01*
X42450119Y-97815714D01*
X42354880Y-97863333D01*
X42307261Y-97958571D01*
X42307261Y-98482380D01*
X41450119Y-98434761D02*
X41545357Y-98482380D01*
X41735833Y-98482380D01*
X41831071Y-98434761D01*
X41878690Y-98339523D01*
X41878690Y-97958571D01*
X41831071Y-97863333D01*
X41735833Y-97815714D01*
X41545357Y-97815714D01*
X41450119Y-97863333D01*
X41402500Y-97958571D01*
X41402500Y-98053809D01*
X41878690Y-98149047D01*
X41021547Y-98434761D02*
X40926309Y-98482380D01*
X40735833Y-98482380D01*
X40640595Y-98434761D01*
X40592976Y-98339523D01*
X40592976Y-98291904D01*
X40640595Y-98196666D01*
X40735833Y-98149047D01*
X40878690Y-98149047D01*
X40973928Y-98101428D01*
X41021547Y-98006190D01*
X41021547Y-97958571D01*
X40973928Y-97863333D01*
X40878690Y-97815714D01*
X40735833Y-97815714D01*
X40640595Y-97863333D01*
X40212023Y-98434761D02*
X40116785Y-98482380D01*
X39926309Y-98482380D01*
X39831071Y-98434761D01*
X39783452Y-98339523D01*
X39783452Y-98291904D01*
X39831071Y-98196666D01*
X39926309Y-98149047D01*
X40069166Y-98149047D01*
X40164404Y-98101428D01*
X40212023Y-98006190D01*
X40212023Y-97958571D01*
X40164404Y-97863333D01*
X40069166Y-97815714D01*
X39926309Y-97815714D01*
X39831071Y-97863333D01*
X39450119Y-98863333D02*
X39402500Y-98815714D01*
X39307261Y-98672857D01*
X39259642Y-98577619D01*
X39212023Y-98434761D01*
X39164404Y-98196666D01*
X39164404Y-98006190D01*
X39212023Y-97768095D01*
X39259642Y-97625238D01*
X39307261Y-97530000D01*
X39402500Y-97387142D01*
X39450119Y-97339523D01*
X67307261Y-99092380D02*
X66735833Y-99092380D01*
X67021547Y-100092380D02*
X67021547Y-99092380D01*
X66402500Y-100092380D02*
X66402500Y-99092380D01*
X65973928Y-100092380D02*
X65973928Y-99568571D01*
X66021547Y-99473333D01*
X66116785Y-99425714D01*
X66259642Y-99425714D01*
X66354880Y-99473333D01*
X66402500Y-99520952D01*
X65116785Y-100044761D02*
X65212023Y-100092380D01*
X65402500Y-100092380D01*
X65497738Y-100044761D01*
X65545357Y-99949523D01*
X65545357Y-99568571D01*
X65497738Y-99473333D01*
X65402500Y-99425714D01*
X65212023Y-99425714D01*
X65116785Y-99473333D01*
X65069166Y-99568571D01*
X65069166Y-99663809D01*
X65545357Y-99759047D01*
X63450119Y-100044761D02*
X63545357Y-100092380D01*
X63735833Y-100092380D01*
X63831071Y-100044761D01*
X63878690Y-99997142D01*
X63926309Y-99901904D01*
X63926309Y-99616190D01*
X63878690Y-99520952D01*
X63831071Y-99473333D01*
X63735833Y-99425714D01*
X63545357Y-99425714D01*
X63450119Y-99473333D01*
X62592976Y-100092380D02*
X62592976Y-99568571D01*
X62640595Y-99473333D01*
X62735833Y-99425714D01*
X62926309Y-99425714D01*
X63021547Y-99473333D01*
X62592976Y-100044761D02*
X62688214Y-100092380D01*
X62926309Y-100092380D01*
X63021547Y-100044761D01*
X63069166Y-99949523D01*
X63069166Y-99854285D01*
X63021547Y-99759047D01*
X62926309Y-99711428D01*
X62688214Y-99711428D01*
X62592976Y-99663809D01*
X62116785Y-99425714D02*
X62116785Y-100425714D01*
X62116785Y-99473333D02*
X62021547Y-99425714D01*
X61831071Y-99425714D01*
X61735833Y-99473333D01*
X61688214Y-99520952D01*
X61640595Y-99616190D01*
X61640595Y-99901904D01*
X61688214Y-99997142D01*
X61735833Y-100044761D01*
X61831071Y-100092380D01*
X62021547Y-100092380D01*
X62116785Y-100044761D01*
X60783452Y-100092380D02*
X60783452Y-99568571D01*
X60831071Y-99473333D01*
X60926309Y-99425714D01*
X61116785Y-99425714D01*
X61212023Y-99473333D01*
X60783452Y-100044761D02*
X60878690Y-100092380D01*
X61116785Y-100092380D01*
X61212023Y-100044761D01*
X61259642Y-99949523D01*
X61259642Y-99854285D01*
X61212023Y-99759047D01*
X61116785Y-99711428D01*
X60878690Y-99711428D01*
X60783452Y-99663809D01*
X59878690Y-100044761D02*
X59973928Y-100092380D01*
X60164404Y-100092380D01*
X60259642Y-100044761D01*
X60307261Y-99997142D01*
X60354880Y-99901904D01*
X60354880Y-99616190D01*
X60307261Y-99520952D01*
X60259642Y-99473333D01*
X60164404Y-99425714D01*
X59973928Y-99425714D01*
X59878690Y-99473333D01*
X59450119Y-100092380D02*
X59450119Y-99425714D01*
X59450119Y-99092380D02*
X59497738Y-99140000D01*
X59450119Y-99187619D01*
X59402500Y-99140000D01*
X59450119Y-99092380D01*
X59450119Y-99187619D01*
X59116785Y-99425714D02*
X58735833Y-99425714D01*
X58973928Y-99092380D02*
X58973928Y-99949523D01*
X58926309Y-100044761D01*
X58831071Y-100092380D01*
X58735833Y-100092380D01*
X58259642Y-100092380D02*
X58354880Y-100044761D01*
X58402500Y-99997142D01*
X58450119Y-99901904D01*
X58450119Y-99616190D01*
X58402500Y-99520952D01*
X58354880Y-99473333D01*
X58259642Y-99425714D01*
X58116785Y-99425714D01*
X58021547Y-99473333D01*
X57973928Y-99520952D01*
X57926309Y-99616190D01*
X57926309Y-99901904D01*
X57973928Y-99997142D01*
X58021547Y-100044761D01*
X58116785Y-100092380D01*
X58259642Y-100092380D01*
X57497738Y-100092380D02*
X57497738Y-99425714D01*
X57497738Y-99616190D02*
X57450119Y-99520952D01*
X57402500Y-99473333D01*
X57307261Y-99425714D01*
X57212023Y-99425714D01*
X56926309Y-100044761D02*
X56831071Y-100092380D01*
X56640595Y-100092380D01*
X56545357Y-100044761D01*
X56497738Y-99949523D01*
X56497738Y-99901904D01*
X56545357Y-99806666D01*
X56640595Y-99759047D01*
X56783452Y-99759047D01*
X56878690Y-99711428D01*
X56926309Y-99616190D01*
X56926309Y-99568571D01*
X56878690Y-99473333D01*
X56783452Y-99425714D01*
X56640595Y-99425714D01*
X56545357Y-99473333D01*
X54878690Y-100092380D02*
X54878690Y-99568571D01*
X54926309Y-99473333D01*
X55021547Y-99425714D01*
X55212023Y-99425714D01*
X55307261Y-99473333D01*
X54878690Y-100044761D02*
X54973928Y-100092380D01*
X55212023Y-100092380D01*
X55307261Y-100044761D01*
X55354880Y-99949523D01*
X55354880Y-99854285D01*
X55307261Y-99759047D01*
X55212023Y-99711428D01*
X54973928Y-99711428D01*
X54878690Y-99663809D01*
X54402500Y-100092380D02*
X54402500Y-99425714D01*
X54402500Y-99616190D02*
X54354880Y-99520952D01*
X54307261Y-99473333D01*
X54212023Y-99425714D01*
X54116785Y-99425714D01*
X53402500Y-100044761D02*
X53497738Y-100092380D01*
X53688214Y-100092380D01*
X53783452Y-100044761D01*
X53831071Y-99949523D01*
X53831071Y-99568571D01*
X53783452Y-99473333D01*
X53688214Y-99425714D01*
X53497738Y-99425714D01*
X53402500Y-99473333D01*
X53354880Y-99568571D01*
X53354880Y-99663809D01*
X53831071Y-99759047D01*
X51735833Y-99425714D02*
X51735833Y-100092380D01*
X52164404Y-99425714D02*
X52164404Y-99949523D01*
X52116785Y-100044761D01*
X52021547Y-100092380D01*
X51878690Y-100092380D01*
X51783452Y-100044761D01*
X51735833Y-99997142D01*
X51307261Y-100044761D02*
X51212023Y-100092380D01*
X51021547Y-100092380D01*
X50926309Y-100044761D01*
X50878690Y-99949523D01*
X50878690Y-99901904D01*
X50926309Y-99806666D01*
X51021547Y-99759047D01*
X51164404Y-99759047D01*
X51259642Y-99711428D01*
X51307261Y-99616190D01*
X51307261Y-99568571D01*
X51259642Y-99473333D01*
X51164404Y-99425714D01*
X51021547Y-99425714D01*
X50926309Y-99473333D01*
X50069166Y-100044761D02*
X50164404Y-100092380D01*
X50354880Y-100092380D01*
X50450119Y-100044761D01*
X50497738Y-99949523D01*
X50497738Y-99568571D01*
X50450119Y-99473333D01*
X50354880Y-99425714D01*
X50164404Y-99425714D01*
X50069166Y-99473333D01*
X50021547Y-99568571D01*
X50021547Y-99663809D01*
X50497738Y-99759047D01*
X49164404Y-100092380D02*
X49164404Y-99092380D01*
X49164404Y-100044761D02*
X49259642Y-100092380D01*
X49450119Y-100092380D01*
X49545357Y-100044761D01*
X49592976Y-99997142D01*
X49640595Y-99901904D01*
X49640595Y-99616190D01*
X49592976Y-99520952D01*
X49545357Y-99473333D01*
X49450119Y-99425714D01*
X49259642Y-99425714D01*
X49164404Y-99473333D01*
X48069166Y-99425714D02*
X47688214Y-99425714D01*
X47926309Y-100092380D02*
X47926309Y-99235238D01*
X47878690Y-99140000D01*
X47783452Y-99092380D01*
X47688214Y-99092380D01*
X47212023Y-100092380D02*
X47307261Y-100044761D01*
X47354880Y-99997142D01*
X47402500Y-99901904D01*
X47402500Y-99616190D01*
X47354880Y-99520952D01*
X47307261Y-99473333D01*
X47212023Y-99425714D01*
X47069166Y-99425714D01*
X46973928Y-99473333D01*
X46926309Y-99520952D01*
X46878690Y-99616190D01*
X46878690Y-99901904D01*
X46926309Y-99997142D01*
X46973928Y-100044761D01*
X47069166Y-100092380D01*
X47212023Y-100092380D01*
X46450119Y-100092380D02*
X46450119Y-99425714D01*
X46450119Y-99616190D02*
X46402500Y-99520952D01*
X46354880Y-99473333D01*
X46259642Y-99425714D01*
X46164404Y-99425714D01*
X44640595Y-100092380D02*
X44640595Y-99092380D01*
X44640595Y-100044761D02*
X44735833Y-100092380D01*
X44926309Y-100092380D01*
X45021547Y-100044761D01*
X45069166Y-99997142D01*
X45116785Y-99901904D01*
X45116785Y-99616190D01*
X45069166Y-99520952D01*
X45021547Y-99473333D01*
X44926309Y-99425714D01*
X44735833Y-99425714D01*
X44640595Y-99473333D01*
X43783452Y-100044761D02*
X43878690Y-100092380D01*
X44069166Y-100092380D01*
X44164404Y-100044761D01*
X44212023Y-99949523D01*
X44212023Y-99568571D01*
X44164404Y-99473333D01*
X44069166Y-99425714D01*
X43878690Y-99425714D01*
X43783452Y-99473333D01*
X43735833Y-99568571D01*
X43735833Y-99663809D01*
X44212023Y-99759047D01*
X42878690Y-100044761D02*
X42973928Y-100092380D01*
X43164404Y-100092380D01*
X43259642Y-100044761D01*
X43307261Y-99997142D01*
X43354880Y-99901904D01*
X43354880Y-99616190D01*
X43307261Y-99520952D01*
X43259642Y-99473333D01*
X43164404Y-99425714D01*
X42973928Y-99425714D01*
X42878690Y-99473333D01*
X42307261Y-100092380D02*
X42402500Y-100044761D01*
X42450119Y-99997142D01*
X42497738Y-99901904D01*
X42497738Y-99616190D01*
X42450119Y-99520952D01*
X42402500Y-99473333D01*
X42307261Y-99425714D01*
X42164404Y-99425714D01*
X42069166Y-99473333D01*
X42021547Y-99520952D01*
X41973928Y-99616190D01*
X41973928Y-99901904D01*
X42021547Y-99997142D01*
X42069166Y-100044761D01*
X42164404Y-100092380D01*
X42307261Y-100092380D01*
X41116785Y-99425714D02*
X41116785Y-100092380D01*
X41545357Y-99425714D02*
X41545357Y-99949523D01*
X41497738Y-100044761D01*
X41402500Y-100092380D01*
X41259642Y-100092380D01*
X41164404Y-100044761D01*
X41116785Y-99997142D01*
X40640595Y-99425714D02*
X40640595Y-100425714D01*
X40640595Y-99473333D02*
X40545357Y-99425714D01*
X40354880Y-99425714D01*
X40259642Y-99473333D01*
X40212023Y-99520952D01*
X40164404Y-99616190D01*
X40164404Y-99901904D01*
X40212023Y-99997142D01*
X40259642Y-100044761D01*
X40354880Y-100092380D01*
X40545357Y-100092380D01*
X40640595Y-100044761D01*
X39592976Y-100092380D02*
X39688214Y-100044761D01*
X39735833Y-99949523D01*
X39735833Y-99092380D01*
X39212023Y-100092380D02*
X39212023Y-99425714D01*
X39212023Y-99092380D02*
X39259642Y-99140000D01*
X39212023Y-99187619D01*
X39164404Y-99140000D01*
X39212023Y-99092380D01*
X39212023Y-99187619D01*
X38735833Y-99425714D02*
X38735833Y-100092380D01*
X38735833Y-99520952D02*
X38688214Y-99473333D01*
X38592976Y-99425714D01*
X38450119Y-99425714D01*
X38354880Y-99473333D01*
X38307261Y-99568571D01*
X38307261Y-100092380D01*
X37402500Y-99425714D02*
X37402500Y-100235238D01*
X37450119Y-100330476D01*
X37497738Y-100378095D01*
X37592976Y-100425714D01*
X37735833Y-100425714D01*
X37831071Y-100378095D01*
X37402500Y-100044761D02*
X37497738Y-100092380D01*
X37688214Y-100092380D01*
X37783452Y-100044761D01*
X37831071Y-99997142D01*
X37878690Y-99901904D01*
X37878690Y-99616190D01*
X37831071Y-99520952D01*
X37783452Y-99473333D01*
X37688214Y-99425714D01*
X37497738Y-99425714D01*
X37402500Y-99473333D01*
X36878690Y-100044761D02*
X36878690Y-100092380D01*
X36926309Y-100187619D01*
X36973928Y-100235238D01*
X66735833Y-101702380D02*
X66735833Y-101178571D01*
X66783452Y-101083333D01*
X66878690Y-101035714D01*
X67069166Y-101035714D01*
X67164404Y-101083333D01*
X66735833Y-101654761D02*
X66831071Y-101702380D01*
X67069166Y-101702380D01*
X67164404Y-101654761D01*
X67212023Y-101559523D01*
X67212023Y-101464285D01*
X67164404Y-101369047D01*
X67069166Y-101321428D01*
X66831071Y-101321428D01*
X66735833Y-101273809D01*
X66259642Y-101035714D02*
X66259642Y-101702380D01*
X66259642Y-101130952D02*
X66212023Y-101083333D01*
X66116785Y-101035714D01*
X65973928Y-101035714D01*
X65878690Y-101083333D01*
X65831071Y-101178571D01*
X65831071Y-101702380D01*
X64926309Y-101702380D02*
X64926309Y-100702380D01*
X64926309Y-101654761D02*
X65021547Y-101702380D01*
X65212023Y-101702380D01*
X65307261Y-101654761D01*
X65354880Y-101607142D01*
X65402500Y-101511904D01*
X65402500Y-101226190D01*
X65354880Y-101130952D01*
X65307261Y-101083333D01*
X65212023Y-101035714D01*
X65021547Y-101035714D01*
X64926309Y-101083333D01*
X63688214Y-101702380D02*
X63688214Y-100702380D01*
X63259642Y-101702380D02*
X63259642Y-101178571D01*
X63307261Y-101083333D01*
X63402500Y-101035714D01*
X63545357Y-101035714D01*
X63640595Y-101083333D01*
X63688214Y-101130952D01*
X62354880Y-101702380D02*
X62354880Y-101178571D01*
X62402500Y-101083333D01*
X62497738Y-101035714D01*
X62688214Y-101035714D01*
X62783452Y-101083333D01*
X62354880Y-101654761D02*
X62450119Y-101702380D01*
X62688214Y-101702380D01*
X62783452Y-101654761D01*
X62831071Y-101559523D01*
X62831071Y-101464285D01*
X62783452Y-101369047D01*
X62688214Y-101321428D01*
X62450119Y-101321428D01*
X62354880Y-101273809D01*
X61973928Y-101035714D02*
X61735833Y-101702380D01*
X61497738Y-101035714D01*
X60735833Y-101654761D02*
X60831071Y-101702380D01*
X61021547Y-101702380D01*
X61116785Y-101654761D01*
X61164404Y-101559523D01*
X61164404Y-101178571D01*
X61116785Y-101083333D01*
X61021547Y-101035714D01*
X60831071Y-101035714D01*
X60735833Y-101083333D01*
X60688214Y-101178571D01*
X60688214Y-101273809D01*
X61164404Y-101369047D01*
X59069166Y-101702380D02*
X59069166Y-101178571D01*
X59116785Y-101083333D01*
X59212023Y-101035714D01*
X59402500Y-101035714D01*
X59497738Y-101083333D01*
X59069166Y-101654761D02*
X59164404Y-101702380D01*
X59402500Y-101702380D01*
X59497738Y-101654761D01*
X59545357Y-101559523D01*
X59545357Y-101464285D01*
X59497738Y-101369047D01*
X59402500Y-101321428D01*
X59164404Y-101321428D01*
X59069166Y-101273809D01*
X57926309Y-101035714D02*
X57688214Y-101702380D01*
X57450119Y-101035714D01*
X56640595Y-101702380D02*
X56640595Y-101178571D01*
X56688214Y-101083333D01*
X56783452Y-101035714D01*
X56973928Y-101035714D01*
X57069166Y-101083333D01*
X56640595Y-101654761D02*
X56735833Y-101702380D01*
X56973928Y-101702380D01*
X57069166Y-101654761D01*
X57116785Y-101559523D01*
X57116785Y-101464285D01*
X57069166Y-101369047D01*
X56973928Y-101321428D01*
X56735833Y-101321428D01*
X56640595Y-101273809D01*
X56021547Y-101702380D02*
X56116785Y-101654761D01*
X56164404Y-101559523D01*
X56164404Y-100702380D01*
X55212023Y-101035714D02*
X55212023Y-101702380D01*
X55640595Y-101035714D02*
X55640595Y-101559523D01*
X55592976Y-101654761D01*
X55497738Y-101702380D01*
X55354880Y-101702380D01*
X55259642Y-101654761D01*
X55212023Y-101607142D01*
X54354880Y-101654761D02*
X54450119Y-101702380D01*
X54640595Y-101702380D01*
X54735833Y-101654761D01*
X54783452Y-101559523D01*
X54783452Y-101178571D01*
X54735833Y-101083333D01*
X54640595Y-101035714D01*
X54450119Y-101035714D01*
X54354880Y-101083333D01*
X54307261Y-101178571D01*
X54307261Y-101273809D01*
X54783452Y-101369047D01*
X52973928Y-101702380D02*
X53069166Y-101654761D01*
X53116785Y-101607142D01*
X53164404Y-101511904D01*
X53164404Y-101226190D01*
X53116785Y-101130952D01*
X53069166Y-101083333D01*
X52973928Y-101035714D01*
X52831071Y-101035714D01*
X52735833Y-101083333D01*
X52688214Y-101130952D01*
X52640595Y-101226190D01*
X52640595Y-101511904D01*
X52688214Y-101607142D01*
X52735833Y-101654761D01*
X52831071Y-101702380D01*
X52973928Y-101702380D01*
X52354880Y-101035714D02*
X51973928Y-101035714D01*
X52212023Y-101702380D02*
X52212023Y-100845238D01*
X52164404Y-100750000D01*
X52069166Y-100702380D01*
X51973928Y-100702380D01*
X50688214Y-100702380D02*
X50592976Y-100702380D01*
X50497738Y-100750000D01*
X50450119Y-100797619D01*
X50402500Y-100892857D01*
X50354880Y-101083333D01*
X50354880Y-101321428D01*
X50402500Y-101511904D01*
X50450119Y-101607142D01*
X50497738Y-101654761D01*
X50592976Y-101702380D01*
X50688214Y-101702380D01*
X50783452Y-101654761D01*
X50831071Y-101607142D01*
X50878690Y-101511904D01*
X50926309Y-101321428D01*
X50926309Y-101083333D01*
X50878690Y-100892857D01*
X50831071Y-100797619D01*
X50783452Y-100750000D01*
X50688214Y-100702380D01*
X49926309Y-101607142D02*
X49878690Y-101654761D01*
X49926309Y-101702380D01*
X49973928Y-101654761D01*
X49926309Y-101607142D01*
X49926309Y-101702380D01*
X48926309Y-101702380D02*
X49497738Y-101702380D01*
X49212023Y-101702380D02*
X49212023Y-100702380D01*
X49307261Y-100845238D01*
X49402500Y-100940476D01*
X49497738Y-100988095D01*
X48497738Y-101035714D02*
X48497738Y-102035714D01*
X48021547Y-101559523D02*
X47973928Y-101654761D01*
X47878690Y-101702380D01*
X48497738Y-101559523D02*
X48450119Y-101654761D01*
X48354880Y-101702380D01*
X48164404Y-101702380D01*
X48069166Y-101654761D01*
X48021547Y-101559523D01*
X48021547Y-101035714D01*
X47116785Y-101178571D02*
X47450119Y-101178571D01*
X47450119Y-101702380D02*
X47450119Y-100702380D01*
X46973928Y-100702380D01*
X67307261Y-102312380D02*
X66735833Y-102312380D01*
X67021547Y-103312380D02*
X67021547Y-102312380D01*
X66259642Y-103312380D02*
X66354880Y-103264761D01*
X66402500Y-103217142D01*
X66450119Y-103121904D01*
X66450119Y-102836190D01*
X66402500Y-102740952D01*
X66354880Y-102693333D01*
X66259642Y-102645714D01*
X66116785Y-102645714D01*
X66021547Y-102693333D01*
X65973928Y-102740952D01*
X65926309Y-102836190D01*
X65926309Y-103121904D01*
X65973928Y-103217142D01*
X66021547Y-103264761D01*
X66116785Y-103312380D01*
X66259642Y-103312380D01*
X64735833Y-102645714D02*
X64735833Y-103645714D01*
X64735833Y-102693333D02*
X64640595Y-102645714D01*
X64450119Y-102645714D01*
X64354880Y-102693333D01*
X64307261Y-102740952D01*
X64259642Y-102836190D01*
X64259642Y-103121904D01*
X64307261Y-103217142D01*
X64354880Y-103264761D01*
X64450119Y-103312380D01*
X64640595Y-103312380D01*
X64735833Y-103264761D01*
X63688214Y-103312380D02*
X63783452Y-103264761D01*
X63831071Y-103217142D01*
X63878690Y-103121904D01*
X63878690Y-102836190D01*
X63831071Y-102740952D01*
X63783452Y-102693333D01*
X63688214Y-102645714D01*
X63545357Y-102645714D01*
X63450119Y-102693333D01*
X63402500Y-102740952D01*
X63354880Y-102836190D01*
X63354880Y-103121904D01*
X63402500Y-103217142D01*
X63450119Y-103264761D01*
X63545357Y-103312380D01*
X63688214Y-103312380D01*
X63021547Y-102645714D02*
X62831071Y-103312380D01*
X62640595Y-102836190D01*
X62450119Y-103312380D01*
X62259642Y-102645714D01*
X61497738Y-103264761D02*
X61592976Y-103312380D01*
X61783452Y-103312380D01*
X61878690Y-103264761D01*
X61926309Y-103169523D01*
X61926309Y-102788571D01*
X61878690Y-102693333D01*
X61783452Y-102645714D01*
X61592976Y-102645714D01*
X61497738Y-102693333D01*
X61450119Y-102788571D01*
X61450119Y-102883809D01*
X61926309Y-102979047D01*
X61021547Y-103312380D02*
X61021547Y-102645714D01*
X61021547Y-102836190D02*
X60973928Y-102740952D01*
X60926309Y-102693333D01*
X60831071Y-102645714D01*
X60735833Y-102645714D01*
X59783452Y-102645714D02*
X59402500Y-102645714D01*
X59640595Y-102312380D02*
X59640595Y-103169523D01*
X59592976Y-103264761D01*
X59497738Y-103312380D01*
X59402500Y-103312380D01*
X59069166Y-103312380D02*
X59069166Y-102312380D01*
X58640595Y-103312380D02*
X58640595Y-102788571D01*
X58688214Y-102693333D01*
X58783452Y-102645714D01*
X58926309Y-102645714D01*
X59021547Y-102693333D01*
X59069166Y-102740952D01*
X57783452Y-103264761D02*
X57878690Y-103312380D01*
X58069166Y-103312380D01*
X58164404Y-103264761D01*
X58212023Y-103169523D01*
X58212023Y-102788571D01*
X58164404Y-102693333D01*
X58069166Y-102645714D01*
X57878690Y-102645714D01*
X57783452Y-102693333D01*
X57735833Y-102788571D01*
X57735833Y-102883809D01*
X58212023Y-102979047D01*
X56545357Y-103312380D02*
X56545357Y-102312380D01*
X56545357Y-102693333D02*
X56450119Y-102645714D01*
X56259642Y-102645714D01*
X56164404Y-102693333D01*
X56116785Y-102740952D01*
X56069166Y-102836190D01*
X56069166Y-103121904D01*
X56116785Y-103217142D01*
X56164404Y-103264761D01*
X56259642Y-103312380D01*
X56450119Y-103312380D01*
X56545357Y-103264761D01*
X55497738Y-103312380D02*
X55592976Y-103264761D01*
X55640595Y-103217142D01*
X55688214Y-103121904D01*
X55688214Y-102836190D01*
X55640595Y-102740952D01*
X55592976Y-102693333D01*
X55497738Y-102645714D01*
X55354880Y-102645714D01*
X55259642Y-102693333D01*
X55212023Y-102740952D01*
X55164404Y-102836190D01*
X55164404Y-103121904D01*
X55212023Y-103217142D01*
X55259642Y-103264761D01*
X55354880Y-103312380D01*
X55497738Y-103312380D01*
X54307261Y-103312380D02*
X54307261Y-102788571D01*
X54354880Y-102693333D01*
X54450119Y-102645714D01*
X54640595Y-102645714D01*
X54735833Y-102693333D01*
X54307261Y-103264761D02*
X54402500Y-103312380D01*
X54640595Y-103312380D01*
X54735833Y-103264761D01*
X54783452Y-103169523D01*
X54783452Y-103074285D01*
X54735833Y-102979047D01*
X54640595Y-102931428D01*
X54402500Y-102931428D01*
X54307261Y-102883809D01*
X53831071Y-103312380D02*
X53831071Y-102645714D01*
X53831071Y-102836190D02*
X53783452Y-102740952D01*
X53735833Y-102693333D01*
X53640595Y-102645714D01*
X53545357Y-102645714D01*
X52783452Y-103312380D02*
X52783452Y-102312380D01*
X52783452Y-103264761D02*
X52878690Y-103312380D01*
X53069166Y-103312380D01*
X53164404Y-103264761D01*
X53212023Y-103217142D01*
X53259642Y-103121904D01*
X53259642Y-102836190D01*
X53212023Y-102740952D01*
X53164404Y-102693333D01*
X53069166Y-102645714D01*
X52878690Y-102645714D01*
X52783452Y-102693333D01*
X51688214Y-102645714D02*
X51307261Y-102645714D01*
X51545357Y-102312380D02*
X51545357Y-103169523D01*
X51497738Y-103264761D01*
X51402500Y-103312380D01*
X51307261Y-103312380D01*
X50973928Y-103312380D02*
X50973928Y-102312380D01*
X50545357Y-103312380D02*
X50545357Y-102788571D01*
X50592976Y-102693333D01*
X50688214Y-102645714D01*
X50831071Y-102645714D01*
X50926309Y-102693333D01*
X50973928Y-102740952D01*
X49688214Y-103264761D02*
X49783452Y-103312380D01*
X49973928Y-103312380D01*
X50069166Y-103264761D01*
X50116785Y-103169523D01*
X50116785Y-102788571D01*
X50069166Y-102693333D01*
X49973928Y-102645714D01*
X49783452Y-102645714D01*
X49688214Y-102693333D01*
X49640595Y-102788571D01*
X49640595Y-102883809D01*
X50116785Y-102979047D01*
X47878690Y-103217142D02*
X47926309Y-103264761D01*
X48069166Y-103312380D01*
X48164404Y-103312380D01*
X48307261Y-103264761D01*
X48402500Y-103169523D01*
X48450119Y-103074285D01*
X48497738Y-102883809D01*
X48497738Y-102740952D01*
X48450119Y-102550476D01*
X48402500Y-102455238D01*
X48307261Y-102360000D01*
X48164404Y-102312380D01*
X48069166Y-102312380D01*
X47926309Y-102360000D01*
X47878690Y-102407619D01*
X47592976Y-102312380D02*
X47021547Y-102312380D01*
X47307261Y-103312380D02*
X47307261Y-102312380D01*
X46116785Y-103312380D02*
X46450119Y-102836190D01*
X46688214Y-103312380D02*
X46688214Y-102312380D01*
X46307261Y-102312380D01*
X46212023Y-102360000D01*
X46164404Y-102407619D01*
X46116785Y-102502857D01*
X46116785Y-102645714D01*
X46164404Y-102740952D01*
X46212023Y-102788571D01*
X46307261Y-102836190D01*
X46688214Y-102836190D01*
X45688214Y-102788571D02*
X45354880Y-102788571D01*
X45212023Y-103312380D02*
X45688214Y-103312380D01*
X45688214Y-102312380D01*
X45212023Y-102312380D01*
X44164404Y-102312380D02*
X43831071Y-103312380D01*
X43497738Y-102312380D01*
X42592976Y-103312380D02*
X42926309Y-102836190D01*
X43164404Y-103312380D02*
X43164404Y-102312380D01*
X42783452Y-102312380D01*
X42688214Y-102360000D01*
X42640595Y-102407619D01*
X42592976Y-102502857D01*
X42592976Y-102645714D01*
X42640595Y-102740952D01*
X42688214Y-102788571D01*
X42783452Y-102836190D01*
X43164404Y-102836190D01*
X42164404Y-103312380D02*
X42164404Y-102312380D01*
X41831071Y-103026666D01*
X41497738Y-102312380D01*
X41497738Y-103312380D01*
X40307261Y-103264761D02*
X40212023Y-103312380D01*
X40021547Y-103312380D01*
X39926309Y-103264761D01*
X39878690Y-103169523D01*
X39878690Y-103121904D01*
X39926309Y-103026666D01*
X40021547Y-102979047D01*
X40164404Y-102979047D01*
X40259642Y-102931428D01*
X40307261Y-102836190D01*
X40307261Y-102788571D01*
X40259642Y-102693333D01*
X40164404Y-102645714D01*
X40021547Y-102645714D01*
X39926309Y-102693333D01*
X39450119Y-103312380D02*
X39450119Y-102312380D01*
X39021547Y-103312380D02*
X39021547Y-102788571D01*
X39069166Y-102693333D01*
X39164404Y-102645714D01*
X39307261Y-102645714D01*
X39402500Y-102693333D01*
X39450119Y-102740952D01*
X38402500Y-103312380D02*
X38497738Y-103264761D01*
X38545357Y-103217142D01*
X38592976Y-103121904D01*
X38592976Y-102836190D01*
X38545357Y-102740952D01*
X38497738Y-102693333D01*
X38402500Y-102645714D01*
X38259642Y-102645714D01*
X38164404Y-102693333D01*
X38116785Y-102740952D01*
X38069166Y-102836190D01*
X38069166Y-103121904D01*
X38116785Y-103217142D01*
X38164404Y-103264761D01*
X38259642Y-103312380D01*
X38402500Y-103312380D01*
X37212023Y-102645714D02*
X37212023Y-103312380D01*
X37640595Y-102645714D02*
X37640595Y-103169523D01*
X37592976Y-103264761D01*
X37497738Y-103312380D01*
X37354880Y-103312380D01*
X37259642Y-103264761D01*
X37212023Y-103217142D01*
X36592976Y-103312380D02*
X36688214Y-103264761D01*
X36735833Y-103169523D01*
X36735833Y-102312380D01*
X35783452Y-103312380D02*
X35783452Y-102312380D01*
X35783452Y-103264761D02*
X35878690Y-103312380D01*
X36069166Y-103312380D01*
X36164404Y-103264761D01*
X36212023Y-103217142D01*
X36259642Y-103121904D01*
X36259642Y-102836190D01*
X36212023Y-102740952D01*
X36164404Y-102693333D01*
X36069166Y-102645714D01*
X35878690Y-102645714D01*
X35783452Y-102693333D01*
X66735833Y-104922380D02*
X66735833Y-103922380D01*
X66735833Y-104874761D02*
X66831071Y-104922380D01*
X67021547Y-104922380D01*
X67116785Y-104874761D01*
X67164404Y-104827142D01*
X67212023Y-104731904D01*
X67212023Y-104446190D01*
X67164404Y-104350952D01*
X67116785Y-104303333D01*
X67021547Y-104255714D01*
X66831071Y-104255714D01*
X66735833Y-104303333D01*
X66116785Y-104922380D02*
X66212023Y-104874761D01*
X66259642Y-104827142D01*
X66307261Y-104731904D01*
X66307261Y-104446190D01*
X66259642Y-104350952D01*
X66212023Y-104303333D01*
X66116785Y-104255714D01*
X65973928Y-104255714D01*
X65878690Y-104303333D01*
X65831071Y-104350952D01*
X65783452Y-104446190D01*
X65783452Y-104731904D01*
X65831071Y-104827142D01*
X65878690Y-104874761D01*
X65973928Y-104922380D01*
X66116785Y-104922380D01*
X64735833Y-104255714D02*
X64354880Y-104255714D01*
X64592976Y-104922380D02*
X64592976Y-104065238D01*
X64545357Y-103970000D01*
X64450119Y-103922380D01*
X64354880Y-103922380D01*
X64021547Y-104922380D02*
X64021547Y-104255714D01*
X64021547Y-103922380D02*
X64069166Y-103970000D01*
X64021547Y-104017619D01*
X63973928Y-103970000D01*
X64021547Y-103922380D01*
X64021547Y-104017619D01*
X63545357Y-104255714D02*
X63545357Y-104922380D01*
X63545357Y-104350952D02*
X63497738Y-104303333D01*
X63402500Y-104255714D01*
X63259642Y-104255714D01*
X63164404Y-104303333D01*
X63116785Y-104398571D01*
X63116785Y-104922380D01*
X62259642Y-104874761D02*
X62354880Y-104922380D01*
X62545357Y-104922380D01*
X62640595Y-104874761D01*
X62688214Y-104779523D01*
X62688214Y-104398571D01*
X62640595Y-104303333D01*
X62545357Y-104255714D01*
X62354880Y-104255714D01*
X62259642Y-104303333D01*
X62212023Y-104398571D01*
X62212023Y-104493809D01*
X62688214Y-104589047D01*
X61735833Y-104874761D02*
X61735833Y-104922380D01*
X61783452Y-105017619D01*
X61831071Y-105065238D01*
X60116785Y-104922380D02*
X60116785Y-104398571D01*
X60164404Y-104303333D01*
X60259642Y-104255714D01*
X60450119Y-104255714D01*
X60545357Y-104303333D01*
X60116785Y-104874761D02*
X60212023Y-104922380D01*
X60450119Y-104922380D01*
X60545357Y-104874761D01*
X60592976Y-104779523D01*
X60592976Y-104684285D01*
X60545357Y-104589047D01*
X60450119Y-104541428D01*
X60212023Y-104541428D01*
X60116785Y-104493809D01*
X59497738Y-104922380D02*
X59592976Y-104874761D01*
X59640595Y-104779523D01*
X59640595Y-103922380D01*
X59259642Y-104255714D02*
X58878690Y-104255714D01*
X59116785Y-103922380D02*
X59116785Y-104779523D01*
X59069166Y-104874761D01*
X58973928Y-104922380D01*
X58878690Y-104922380D01*
X58545357Y-104922380D02*
X58545357Y-103922380D01*
X58116785Y-104922380D02*
X58116785Y-104398571D01*
X58164404Y-104303333D01*
X58259642Y-104255714D01*
X58402500Y-104255714D01*
X58497738Y-104303333D01*
X58545357Y-104350952D01*
X57497738Y-104922380D02*
X57592976Y-104874761D01*
X57640595Y-104827142D01*
X57688214Y-104731904D01*
X57688214Y-104446190D01*
X57640595Y-104350952D01*
X57592976Y-104303333D01*
X57497738Y-104255714D01*
X57354880Y-104255714D01*
X57259642Y-104303333D01*
X57212023Y-104350952D01*
X57164404Y-104446190D01*
X57164404Y-104731904D01*
X57212023Y-104827142D01*
X57259642Y-104874761D01*
X57354880Y-104922380D01*
X57497738Y-104922380D01*
X56307261Y-104255714D02*
X56307261Y-104922380D01*
X56735833Y-104255714D02*
X56735833Y-104779523D01*
X56688214Y-104874761D01*
X56592976Y-104922380D01*
X56450119Y-104922380D01*
X56354880Y-104874761D01*
X56307261Y-104827142D01*
X55402500Y-104255714D02*
X55402500Y-105065238D01*
X55450119Y-105160476D01*
X55497738Y-105208095D01*
X55592976Y-105255714D01*
X55735833Y-105255714D01*
X55831071Y-105208095D01*
X55402500Y-104874761D02*
X55497738Y-104922380D01*
X55688214Y-104922380D01*
X55783452Y-104874761D01*
X55831071Y-104827142D01*
X55878690Y-104731904D01*
X55878690Y-104446190D01*
X55831071Y-104350952D01*
X55783452Y-104303333D01*
X55688214Y-104255714D01*
X55497738Y-104255714D01*
X55402500Y-104303333D01*
X54926309Y-104922380D02*
X54926309Y-103922380D01*
X54497738Y-104922380D02*
X54497738Y-104398571D01*
X54545357Y-104303333D01*
X54640595Y-104255714D01*
X54783452Y-104255714D01*
X54878690Y-104303333D01*
X54926309Y-104350952D01*
X52831071Y-104922380D02*
X52831071Y-104398571D01*
X52878690Y-104303333D01*
X52973928Y-104255714D01*
X53164404Y-104255714D01*
X53259642Y-104303333D01*
X52831071Y-104874761D02*
X52926309Y-104922380D01*
X53164404Y-104922380D01*
X53259642Y-104874761D01*
X53307261Y-104779523D01*
X53307261Y-104684285D01*
X53259642Y-104589047D01*
X53164404Y-104541428D01*
X52926309Y-104541428D01*
X52831071Y-104493809D01*
X52354880Y-104255714D02*
X52354880Y-104922380D01*
X52354880Y-104350952D02*
X52307261Y-104303333D01*
X52212023Y-104255714D01*
X52069166Y-104255714D01*
X51973928Y-104303333D01*
X51926309Y-104398571D01*
X51926309Y-104922380D01*
X50545357Y-104922380D02*
X50640595Y-104874761D01*
X50688214Y-104827142D01*
X50735833Y-104731904D01*
X50735833Y-104446190D01*
X50688214Y-104350952D01*
X50640595Y-104303333D01*
X50545357Y-104255714D01*
X50402500Y-104255714D01*
X50307261Y-104303333D01*
X50259642Y-104350952D01*
X50212023Y-104446190D01*
X50212023Y-104731904D01*
X50259642Y-104827142D01*
X50307261Y-104874761D01*
X50402500Y-104922380D01*
X50545357Y-104922380D01*
X49783452Y-104255714D02*
X49783452Y-105255714D01*
X49783452Y-104303333D02*
X49688214Y-104255714D01*
X49497738Y-104255714D01*
X49402500Y-104303333D01*
X49354880Y-104350952D01*
X49307261Y-104446190D01*
X49307261Y-104731904D01*
X49354880Y-104827142D01*
X49402500Y-104874761D01*
X49497738Y-104922380D01*
X49688214Y-104922380D01*
X49783452Y-104874761D01*
X49021547Y-104255714D02*
X48640595Y-104255714D01*
X48878690Y-103922380D02*
X48878690Y-104779523D01*
X48831071Y-104874761D01*
X48735833Y-104922380D01*
X48640595Y-104922380D01*
X48307261Y-104922380D02*
X48307261Y-104255714D01*
X48307261Y-103922380D02*
X48354880Y-103970000D01*
X48307261Y-104017619D01*
X48259642Y-103970000D01*
X48307261Y-103922380D01*
X48307261Y-104017619D01*
X47688214Y-104922380D02*
X47783452Y-104874761D01*
X47831071Y-104827142D01*
X47878690Y-104731904D01*
X47878690Y-104446190D01*
X47831071Y-104350952D01*
X47783452Y-104303333D01*
X47688214Y-104255714D01*
X47545357Y-104255714D01*
X47450119Y-104303333D01*
X47402500Y-104350952D01*
X47354880Y-104446190D01*
X47354880Y-104731904D01*
X47402500Y-104827142D01*
X47450119Y-104874761D01*
X47545357Y-104922380D01*
X47688214Y-104922380D01*
X46926309Y-104255714D02*
X46926309Y-104922380D01*
X46926309Y-104350952D02*
X46878690Y-104303333D01*
X46783452Y-104255714D01*
X46640595Y-104255714D01*
X46545357Y-104303333D01*
X46497738Y-104398571D01*
X46497738Y-104922380D01*
X45354880Y-104255714D02*
X45164404Y-104922380D01*
X44973928Y-104446190D01*
X44783452Y-104922380D01*
X44592976Y-104255714D01*
X44212023Y-104922380D02*
X44212023Y-104255714D01*
X44212023Y-103922380D02*
X44259642Y-103970000D01*
X44212023Y-104017619D01*
X44164404Y-103970000D01*
X44212023Y-103922380D01*
X44212023Y-104017619D01*
X43878690Y-104255714D02*
X43497738Y-104255714D01*
X43735833Y-103922380D02*
X43735833Y-104779523D01*
X43688214Y-104874761D01*
X43592976Y-104922380D01*
X43497738Y-104922380D01*
X43164404Y-104922380D02*
X43164404Y-103922380D01*
X42735833Y-104922380D02*
X42735833Y-104398571D01*
X42783452Y-104303333D01*
X42878690Y-104255714D01*
X43021547Y-104255714D01*
X43116785Y-104303333D01*
X43164404Y-104350952D01*
X41497738Y-104922380D02*
X41497738Y-103922380D01*
X41069166Y-104922380D02*
X41069166Y-104398571D01*
X41116785Y-104303333D01*
X41212023Y-104255714D01*
X41354880Y-104255714D01*
X41450119Y-104303333D01*
X41497738Y-104350952D01*
X40592976Y-104922380D02*
X40592976Y-104255714D01*
X40592976Y-103922380D02*
X40640595Y-103970000D01*
X40592976Y-104017619D01*
X40545357Y-103970000D01*
X40592976Y-103922380D01*
X40592976Y-104017619D01*
X39688214Y-104255714D02*
X39688214Y-105065238D01*
X39735833Y-105160476D01*
X39783452Y-105208095D01*
X39878690Y-105255714D01*
X40021547Y-105255714D01*
X40116785Y-105208095D01*
X39688214Y-104874761D02*
X39783452Y-104922380D01*
X39973928Y-104922380D01*
X40069166Y-104874761D01*
X40116785Y-104827142D01*
X40164404Y-104731904D01*
X40164404Y-104446190D01*
X40116785Y-104350952D01*
X40069166Y-104303333D01*
X39973928Y-104255714D01*
X39783452Y-104255714D01*
X39688214Y-104303333D01*
X39212023Y-104922380D02*
X39212023Y-103922380D01*
X38783452Y-104922380D02*
X38783452Y-104398571D01*
X38831071Y-104303333D01*
X38926309Y-104255714D01*
X39069166Y-104255714D01*
X39164404Y-104303333D01*
X39212023Y-104350952D01*
X37926309Y-104874761D02*
X38021547Y-104922380D01*
X38212023Y-104922380D01*
X38307261Y-104874761D01*
X38354880Y-104779523D01*
X38354880Y-104398571D01*
X38307261Y-104303333D01*
X38212023Y-104255714D01*
X38021547Y-104255714D01*
X37926309Y-104303333D01*
X37878690Y-104398571D01*
X37878690Y-104493809D01*
X38354880Y-104589047D01*
X37450119Y-104922380D02*
X37450119Y-104255714D01*
X37450119Y-104446190D02*
X37402500Y-104350952D01*
X37354880Y-104303333D01*
X37259642Y-104255714D01*
X37164404Y-104255714D01*
X67212023Y-106246666D02*
X66735833Y-106246666D01*
X67307261Y-106532380D02*
X66973928Y-105532380D01*
X66640595Y-106532380D01*
X66307261Y-106532380D02*
X66307261Y-105865714D01*
X66307261Y-105960952D02*
X66259642Y-105913333D01*
X66164404Y-105865714D01*
X66021547Y-105865714D01*
X65926309Y-105913333D01*
X65878690Y-106008571D01*
X65878690Y-106532380D01*
X65878690Y-106008571D02*
X65831071Y-105913333D01*
X65735833Y-105865714D01*
X65592976Y-105865714D01*
X65497738Y-105913333D01*
X65450119Y-106008571D01*
X65450119Y-106532380D01*
X64973928Y-105865714D02*
X64973928Y-106865714D01*
X64973928Y-105913333D02*
X64878690Y-105865714D01*
X64688214Y-105865714D01*
X64592976Y-105913333D01*
X64545357Y-105960952D01*
X64497738Y-106056190D01*
X64497738Y-106341904D01*
X64545357Y-106437142D01*
X64592976Y-106484761D01*
X64688214Y-106532380D01*
X64878690Y-106532380D01*
X64973928Y-106484761D01*
X64116785Y-106484761D02*
X64021547Y-106532380D01*
X63831071Y-106532380D01*
X63735833Y-106484761D01*
X63688214Y-106389523D01*
X63688214Y-106341904D01*
X63735833Y-106246666D01*
X63831071Y-106199047D01*
X63973928Y-106199047D01*
X64069166Y-106151428D01*
X64116785Y-106056190D01*
X64116785Y-106008571D01*
X64069166Y-105913333D01*
X63973928Y-105865714D01*
X63831071Y-105865714D01*
X63735833Y-105913333D01*
X62497738Y-106532380D02*
X62497738Y-105865714D01*
X62497738Y-105532380D02*
X62545357Y-105580000D01*
X62497738Y-105627619D01*
X62450119Y-105580000D01*
X62497738Y-105532380D01*
X62497738Y-105627619D01*
X62069166Y-106484761D02*
X61973928Y-106532380D01*
X61783452Y-106532380D01*
X61688214Y-106484761D01*
X61640595Y-106389523D01*
X61640595Y-106341904D01*
X61688214Y-106246666D01*
X61783452Y-106199047D01*
X61926309Y-106199047D01*
X62021547Y-106151428D01*
X62069166Y-106056190D01*
X62069166Y-106008571D01*
X62021547Y-105913333D01*
X61926309Y-105865714D01*
X61783452Y-105865714D01*
X61688214Y-105913333D01*
X60450119Y-106532380D02*
X60450119Y-105532380D01*
X60450119Y-105913333D02*
X60354880Y-105865714D01*
X60164404Y-105865714D01*
X60069166Y-105913333D01*
X60021547Y-105960952D01*
X59973928Y-106056190D01*
X59973928Y-106341904D01*
X60021547Y-106437142D01*
X60069166Y-106484761D01*
X60164404Y-106532380D01*
X60354880Y-106532380D01*
X60450119Y-106484761D01*
X59164404Y-106484761D02*
X59259642Y-106532380D01*
X59450119Y-106532380D01*
X59545357Y-106484761D01*
X59592976Y-106389523D01*
X59592976Y-106008571D01*
X59545357Y-105913333D01*
X59450119Y-105865714D01*
X59259642Y-105865714D01*
X59164404Y-105913333D01*
X59116785Y-106008571D01*
X59116785Y-106103809D01*
X59592976Y-106199047D01*
X58831071Y-105865714D02*
X58450119Y-105865714D01*
X58688214Y-105532380D02*
X58688214Y-106389523D01*
X58640595Y-106484761D01*
X58545357Y-106532380D01*
X58450119Y-106532380D01*
X58259642Y-105865714D02*
X57878690Y-105865714D01*
X58116785Y-105532380D02*
X58116785Y-106389523D01*
X58069166Y-106484761D01*
X57973928Y-106532380D01*
X57878690Y-106532380D01*
X57164404Y-106484761D02*
X57259642Y-106532380D01*
X57450119Y-106532380D01*
X57545357Y-106484761D01*
X57592976Y-106389523D01*
X57592976Y-106008571D01*
X57545357Y-105913333D01*
X57450119Y-105865714D01*
X57259642Y-105865714D01*
X57164404Y-105913333D01*
X57116785Y-106008571D01*
X57116785Y-106103809D01*
X57592976Y-106199047D01*
X56688214Y-106532380D02*
X56688214Y-105865714D01*
X56688214Y-106056190D02*
X56640595Y-105960952D01*
X56592976Y-105913333D01*
X56497738Y-105865714D01*
X56402500Y-105865714D01*
X56069166Y-106437142D02*
X56021547Y-106484761D01*
X56069166Y-106532380D01*
X56116785Y-106484761D01*
X56069166Y-106437142D01*
X56069166Y-106532380D01*
X66688214Y-108142380D02*
X67164404Y-108142380D01*
X67164404Y-107142380D01*
X66354880Y-107618571D02*
X66021547Y-107618571D01*
X65878690Y-108142380D02*
X66354880Y-108142380D01*
X66354880Y-107142380D01*
X65878690Y-107142380D01*
X65450119Y-108142380D02*
X65450119Y-107142380D01*
X65212023Y-107142380D01*
X65069166Y-107190000D01*
X64973928Y-107285238D01*
X64926309Y-107380476D01*
X64878690Y-107570952D01*
X64878690Y-107713809D01*
X64926309Y-107904285D01*
X64973928Y-107999523D01*
X65069166Y-108094761D01*
X65212023Y-108142380D01*
X65450119Y-108142380D01*
X64450119Y-108047142D02*
X64402500Y-108094761D01*
X64450119Y-108142380D01*
X64497738Y-108094761D01*
X64450119Y-108047142D01*
X64450119Y-108142380D01*
X64450119Y-107523333D02*
X64402500Y-107570952D01*
X64450119Y-107618571D01*
X64497738Y-107570952D01*
X64450119Y-107523333D01*
X64450119Y-107618571D01*
X63307261Y-107142380D02*
X63069166Y-108142380D01*
X62878690Y-107428095D01*
X62688214Y-108142380D01*
X62450119Y-107142380D01*
X62116785Y-108094761D02*
X61973928Y-108142380D01*
X61735833Y-108142380D01*
X61640595Y-108094761D01*
X61592976Y-108047142D01*
X61545357Y-107951904D01*
X61545357Y-107856666D01*
X61592976Y-107761428D01*
X61640595Y-107713809D01*
X61735833Y-107666190D01*
X61926309Y-107618571D01*
X62021547Y-107570952D01*
X62069166Y-107523333D01*
X62116785Y-107428095D01*
X62116785Y-107332857D01*
X62069166Y-107237619D01*
X62021547Y-107190000D01*
X61926309Y-107142380D01*
X61688214Y-107142380D01*
X61545357Y-107190000D01*
X61164404Y-107237619D02*
X61116785Y-107190000D01*
X61021547Y-107142380D01*
X60783452Y-107142380D01*
X60688214Y-107190000D01*
X60640595Y-107237619D01*
X60592976Y-107332857D01*
X60592976Y-107428095D01*
X60640595Y-107570952D01*
X61212023Y-108142380D01*
X60592976Y-108142380D01*
X60021547Y-107570952D02*
X60116785Y-107523333D01*
X60164404Y-107475714D01*
X60212023Y-107380476D01*
X60212023Y-107332857D01*
X60164404Y-107237619D01*
X60116785Y-107190000D01*
X60021547Y-107142380D01*
X59831071Y-107142380D01*
X59735833Y-107190000D01*
X59688214Y-107237619D01*
X59640595Y-107332857D01*
X59640595Y-107380476D01*
X59688214Y-107475714D01*
X59735833Y-107523333D01*
X59831071Y-107570952D01*
X60021547Y-107570952D01*
X60116785Y-107618571D01*
X60164404Y-107666190D01*
X60212023Y-107761428D01*
X60212023Y-107951904D01*
X60164404Y-108047142D01*
X60116785Y-108094761D01*
X60021547Y-108142380D01*
X59831071Y-108142380D01*
X59735833Y-108094761D01*
X59688214Y-108047142D01*
X59640595Y-107951904D01*
X59640595Y-107761428D01*
X59688214Y-107666190D01*
X59735833Y-107618571D01*
X59831071Y-107570952D01*
X58688214Y-108142380D02*
X59259642Y-108142380D01*
X58973928Y-108142380D02*
X58973928Y-107142380D01*
X59069166Y-107285238D01*
X59164404Y-107380476D01*
X59259642Y-107428095D01*
X58307261Y-107237619D02*
X58259642Y-107190000D01*
X58164404Y-107142380D01*
X57926309Y-107142380D01*
X57831071Y-107190000D01*
X57783452Y-107237619D01*
X57735833Y-107332857D01*
X57735833Y-107428095D01*
X57783452Y-107570952D01*
X58354880Y-108142380D01*
X57735833Y-108142380D01*
X56973928Y-107618571D02*
X56831071Y-107666190D01*
X56783452Y-107713809D01*
X56735833Y-107809047D01*
X56735833Y-107951904D01*
X56783452Y-108047142D01*
X56831071Y-108094761D01*
X56926309Y-108142380D01*
X57307261Y-108142380D01*
X57307261Y-107142380D01*
X56973928Y-107142380D01*
X56878690Y-107190000D01*
X56831071Y-107237619D01*
X56783452Y-107332857D01*
X56783452Y-107428095D01*
X56831071Y-107523333D01*
X56878690Y-107570952D01*
X56973928Y-107618571D01*
X57307261Y-107618571D01*
X66592976Y-109657142D02*
X66640595Y-109704761D01*
X66783452Y-109752380D01*
X66878690Y-109752380D01*
X67021547Y-109704761D01*
X67116785Y-109609523D01*
X67164404Y-109514285D01*
X67212023Y-109323809D01*
X67212023Y-109180952D01*
X67164404Y-108990476D01*
X67116785Y-108895238D01*
X67021547Y-108800000D01*
X66878690Y-108752380D01*
X66783452Y-108752380D01*
X66640595Y-108800000D01*
X66592976Y-108847619D01*
X65735833Y-109752380D02*
X65735833Y-109228571D01*
X65783452Y-109133333D01*
X65878690Y-109085714D01*
X66069166Y-109085714D01*
X66164404Y-109133333D01*
X65735833Y-109704761D02*
X65831071Y-109752380D01*
X66069166Y-109752380D01*
X66164404Y-109704761D01*
X66212023Y-109609523D01*
X66212023Y-109514285D01*
X66164404Y-109419047D01*
X66069166Y-109371428D01*
X65831071Y-109371428D01*
X65735833Y-109323809D01*
X65259642Y-109085714D02*
X65259642Y-110085714D01*
X65259642Y-109133333D02*
X65164404Y-109085714D01*
X64973928Y-109085714D01*
X64878690Y-109133333D01*
X64831071Y-109180952D01*
X64783452Y-109276190D01*
X64783452Y-109561904D01*
X64831071Y-109657142D01*
X64878690Y-109704761D01*
X64973928Y-109752380D01*
X65164404Y-109752380D01*
X65259642Y-109704761D01*
X63926309Y-109752380D02*
X63926309Y-109228571D01*
X63973928Y-109133333D01*
X64069166Y-109085714D01*
X64259642Y-109085714D01*
X64354880Y-109133333D01*
X63926309Y-109704761D02*
X64021547Y-109752380D01*
X64259642Y-109752380D01*
X64354880Y-109704761D01*
X64402500Y-109609523D01*
X64402500Y-109514285D01*
X64354880Y-109419047D01*
X64259642Y-109371428D01*
X64021547Y-109371428D01*
X63926309Y-109323809D01*
X63021547Y-109704761D02*
X63116785Y-109752380D01*
X63307261Y-109752380D01*
X63402500Y-109704761D01*
X63450119Y-109657142D01*
X63497738Y-109561904D01*
X63497738Y-109276190D01*
X63450119Y-109180952D01*
X63402500Y-109133333D01*
X63307261Y-109085714D01*
X63116785Y-109085714D01*
X63021547Y-109133333D01*
X62592976Y-109752380D02*
X62592976Y-109085714D01*
X62592976Y-108752380D02*
X62640595Y-108800000D01*
X62592976Y-108847619D01*
X62545357Y-108800000D01*
X62592976Y-108752380D01*
X62592976Y-108847619D01*
X62259642Y-109085714D02*
X61878690Y-109085714D01*
X62116785Y-108752380D02*
X62116785Y-109609523D01*
X62069166Y-109704761D01*
X61973928Y-109752380D01*
X61878690Y-109752380D01*
X61402500Y-109752380D02*
X61497738Y-109704761D01*
X61545357Y-109657142D01*
X61592976Y-109561904D01*
X61592976Y-109276190D01*
X61545357Y-109180952D01*
X61497738Y-109133333D01*
X61402500Y-109085714D01*
X61259642Y-109085714D01*
X61164404Y-109133333D01*
X61116785Y-109180952D01*
X61069166Y-109276190D01*
X61069166Y-109561904D01*
X61116785Y-109657142D01*
X61164404Y-109704761D01*
X61259642Y-109752380D01*
X61402500Y-109752380D01*
X60640595Y-109752380D02*
X60640595Y-109085714D01*
X60640595Y-109276190D02*
X60592976Y-109180952D01*
X60545357Y-109133333D01*
X60450119Y-109085714D01*
X60354880Y-109085714D01*
X60069166Y-109704761D02*
X59973928Y-109752380D01*
X59783452Y-109752380D01*
X59688214Y-109704761D01*
X59640595Y-109609523D01*
X59640595Y-109561904D01*
X59688214Y-109466666D01*
X59783452Y-109419047D01*
X59926309Y-109419047D01*
X60021547Y-109371428D01*
X60069166Y-109276190D01*
X60069166Y-109228571D01*
X60021547Y-109133333D01*
X59926309Y-109085714D01*
X59783452Y-109085714D01*
X59688214Y-109133333D01*
X59212023Y-109657142D02*
X59164404Y-109704761D01*
X59212023Y-109752380D01*
X59259642Y-109704761D01*
X59212023Y-109657142D01*
X59212023Y-109752380D01*
X59212023Y-109133333D02*
X59164404Y-109180952D01*
X59212023Y-109228571D01*
X59259642Y-109180952D01*
X59212023Y-109133333D01*
X59212023Y-109228571D01*
X57783452Y-108752380D02*
X57688214Y-108752380D01*
X57592976Y-108800000D01*
X57545357Y-108847619D01*
X57497738Y-108942857D01*
X57450119Y-109133333D01*
X57450119Y-109371428D01*
X57497738Y-109561904D01*
X57545357Y-109657142D01*
X57592976Y-109704761D01*
X57688214Y-109752380D01*
X57783452Y-109752380D01*
X57878690Y-109704761D01*
X57926309Y-109657142D01*
X57973928Y-109561904D01*
X58021547Y-109371428D01*
X58021547Y-109133333D01*
X57973928Y-108942857D01*
X57926309Y-108847619D01*
X57878690Y-108800000D01*
X57783452Y-108752380D01*
X56878690Y-109180952D02*
X56973928Y-109133333D01*
X57021547Y-109085714D01*
X57069166Y-108990476D01*
X57069166Y-108942857D01*
X57021547Y-108847619D01*
X56973928Y-108800000D01*
X56878690Y-108752380D01*
X56688214Y-108752380D01*
X56592976Y-108800000D01*
X56545357Y-108847619D01*
X56497738Y-108942857D01*
X56497738Y-108990476D01*
X56545357Y-109085714D01*
X56592976Y-109133333D01*
X56688214Y-109180952D01*
X56878690Y-109180952D01*
X56973928Y-109228571D01*
X57021547Y-109276190D01*
X57069166Y-109371428D01*
X57069166Y-109561904D01*
X57021547Y-109657142D01*
X56973928Y-109704761D01*
X56878690Y-109752380D01*
X56688214Y-109752380D01*
X56592976Y-109704761D01*
X56545357Y-109657142D01*
X56497738Y-109561904D01*
X56497738Y-109371428D01*
X56545357Y-109276190D01*
X56592976Y-109228571D01*
X56688214Y-109180952D01*
X55878690Y-108752380D02*
X55783452Y-108752380D01*
X55688214Y-108800000D01*
X55640595Y-108847619D01*
X55592976Y-108942857D01*
X55545357Y-109133333D01*
X55545357Y-109371428D01*
X55592976Y-109561904D01*
X55640595Y-109657142D01*
X55688214Y-109704761D01*
X55783452Y-109752380D01*
X55878690Y-109752380D01*
X55973928Y-109704761D01*
X56021547Y-109657142D01*
X56069166Y-109561904D01*
X56116785Y-109371428D01*
X56116785Y-109133333D01*
X56069166Y-108942857D01*
X56021547Y-108847619D01*
X55973928Y-108800000D01*
X55878690Y-108752380D01*
X54640595Y-108752380D02*
X55116785Y-108752380D01*
X55164404Y-109228571D01*
X55116785Y-109180952D01*
X55021547Y-109133333D01*
X54783452Y-109133333D01*
X54688214Y-109180952D01*
X54640595Y-109228571D01*
X54592976Y-109323809D01*
X54592976Y-109561904D01*
X54640595Y-109657142D01*
X54688214Y-109704761D01*
X54783452Y-109752380D01*
X55021547Y-109752380D01*
X55116785Y-109704761D01*
X55164404Y-109657142D01*
X53212023Y-108752380D02*
X53116785Y-108752380D01*
X53021547Y-108800000D01*
X52973928Y-108847619D01*
X52926309Y-108942857D01*
X52878690Y-109133333D01*
X52878690Y-109371428D01*
X52926309Y-109561904D01*
X52973928Y-109657142D01*
X53021547Y-109704761D01*
X53116785Y-109752380D01*
X53212023Y-109752380D01*
X53307261Y-109704761D01*
X53354880Y-109657142D01*
X53402500Y-109561904D01*
X53450119Y-109371428D01*
X53450119Y-109133333D01*
X53402500Y-108942857D01*
X53354880Y-108847619D01*
X53307261Y-108800000D01*
X53212023Y-108752380D01*
X52450119Y-109657142D02*
X52402500Y-109704761D01*
X52450119Y-109752380D01*
X52497738Y-109704761D01*
X52450119Y-109657142D01*
X52450119Y-109752380D01*
X51450119Y-109752380D02*
X52021547Y-109752380D01*
X51735833Y-109752380D02*
X51735833Y-108752380D01*
X51831071Y-108895238D01*
X51926309Y-108990476D01*
X52021547Y-109038095D01*
X51021547Y-109085714D02*
X51021547Y-110085714D01*
X50545357Y-109609523D02*
X50497738Y-109704761D01*
X50402500Y-109752380D01*
X51021547Y-109609523D02*
X50973928Y-109704761D01*
X50878690Y-109752380D01*
X50688214Y-109752380D01*
X50592976Y-109704761D01*
X50545357Y-109609523D01*
X50545357Y-109085714D01*
X49640595Y-109228571D02*
X49973928Y-109228571D01*
X49973928Y-109752380D02*
X49973928Y-108752380D01*
X49497738Y-108752380D01*
X35500000Y-92250000D02*
X67500000Y-92250000D01*
X67500000Y-92250000D02*
X67500000Y-110250000D01*
X67500000Y-110250000D02*
X35500000Y-110250000D01*
X35500000Y-110250000D02*
X35500000Y-92250000D01*
M02*
