%TF.GenerationSoftware,KiCad,Pcbnew,(6.0.5)*%
%TF.CreationDate,2022-08-18T17:20:14-06:00*%
%TF.ProjectId,Led Zia,4c656420-5a69-4612-9e6b-696361645f70,rev?*%
%TF.SameCoordinates,Original*%
%TF.FileFunction,Paste,Top*%
%TF.FilePolarity,Positive*%
%FSLAX46Y46*%
G04 Gerber Fmt 4.6, Leading zero omitted, Abs format (unit mm)*
G04 Created by KiCad (PCBNEW (6.0.5)) date 2022-08-18 17:20:14*
%MOMM*%
%LPD*%
G01*
G04 APERTURE LIST*
G04 Aperture macros list*
%AMRoundRect*
0 Rectangle with rounded corners*
0 $1 Rounding radius*
0 $2 $3 $4 $5 $6 $7 $8 $9 X,Y pos of 4 corners*
0 Add a 4 corners polygon primitive as box body*
4,1,4,$2,$3,$4,$5,$6,$7,$8,$9,$2,$3,0*
0 Add four circle primitives for the rounded corners*
1,1,$1+$1,$2,$3*
1,1,$1+$1,$4,$5*
1,1,$1+$1,$6,$7*
1,1,$1+$1,$8,$9*
0 Add four rect primitives between the rounded corners*
20,1,$1+$1,$2,$3,$4,$5,0*
20,1,$1+$1,$4,$5,$6,$7,0*
20,1,$1+$1,$6,$7,$8,$9,0*
20,1,$1+$1,$8,$9,$2,$3,0*%
%AMRotRect*
0 Rectangle, with rotation*
0 The origin of the aperture is its center*
0 $1 length*
0 $2 width*
0 $3 Rotation angle, in degrees counterclockwise*
0 Add horizontal line*
21,1,$1,$2,0,0,$3*%
G04 Aperture macros list end*
%ADD10R,1.000000X1.500000*%
%ADD11R,1.500000X1.000000*%
%ADD12RoundRect,0.250000X0.250000X0.475000X-0.250000X0.475000X-0.250000X-0.475000X0.250000X-0.475000X0*%
%ADD13RoundRect,0.250000X-0.250000X-0.475000X0.250000X-0.475000X0.250000X0.475000X-0.250000X0.475000X0*%
%ADD14RoundRect,0.250000X0.475000X-0.250000X0.475000X0.250000X-0.475000X0.250000X-0.475000X-0.250000X0*%
%ADD15RoundRect,0.250000X-0.475000X0.250000X-0.475000X-0.250000X0.475000X-0.250000X0.475000X0.250000X0*%
%ADD16RotRect,1.500000X1.000000X135.000000*%
%ADD17RotRect,1.500000X1.000000X315.000000*%
%ADD18RotRect,1.500000X1.000000X225.000000*%
%ADD19RotRect,1.500000X1.000000X45.000000*%
G04 APERTURE END LIST*
D10*
%TO.C,D46*%
X113399999Y-134450000D03*
X116599999Y-134450000D03*
X116599999Y-129550000D03*
X113399999Y-129550000D03*
%TD*%
D11*
%TO.C,D11*%
X165449999Y-115600000D03*
X165449999Y-112400000D03*
X160549999Y-112400000D03*
X160549999Y-115600000D03*
%TD*%
D12*
%TO.C,C30*%
X58950000Y-85000000D03*
X57050000Y-85000000D03*
%TD*%
D11*
%TO.C,D33*%
X49549999Y-100400000D03*
X49549999Y-103600000D03*
X54449999Y-103600000D03*
X54449999Y-100400000D03*
%TD*%
D13*
%TO.C,C16*%
X132050000Y-95000000D03*
X133950000Y-95000000D03*
%TD*%
D11*
%TO.C,D34*%
X34549999Y-100400000D03*
X34549999Y-103600000D03*
X39449999Y-103600000D03*
X39449999Y-100400000D03*
%TD*%
D10*
%TO.C,D45*%
X101399999Y-185450000D03*
X104599999Y-185450000D03*
X104599999Y-180550000D03*
X101399999Y-180550000D03*
%TD*%
D13*
%TO.C,C18*%
X162050000Y-95000000D03*
X163950000Y-95000000D03*
%TD*%
D10*
%TO.C,D8*%
X116399999Y-104450000D03*
X119599999Y-104450000D03*
X119599999Y-99550000D03*
X116399999Y-99550000D03*
%TD*%
D12*
%TO.C,C35*%
X22900000Y-97000000D03*
X21000000Y-97000000D03*
%TD*%
%TO.C,C34*%
X37900000Y-97000000D03*
X36000000Y-97000000D03*
%TD*%
%TO.C,C7*%
X117950000Y-87000000D03*
X116050000Y-87000000D03*
%TD*%
D10*
%TO.C,D27*%
X92599999Y-54550000D03*
X89399999Y-54550000D03*
X89399999Y-59450000D03*
X92599999Y-59450000D03*
%TD*%
D14*
%TO.C,C20*%
X120000000Y-57950000D03*
X120000000Y-56050000D03*
%TD*%
D10*
%TO.C,D19*%
X116599999Y-69550000D03*
X113399999Y-69550000D03*
X113399999Y-74450000D03*
X116599999Y-74450000D03*
%TD*%
D15*
%TO.C,C41*%
X86000000Y-161050000D03*
X86000000Y-162950000D03*
%TD*%
D14*
%TO.C,C1*%
X117000000Y-117950000D03*
X117000000Y-116050000D03*
%TD*%
D12*
%TO.C,C31*%
X43950000Y-85000000D03*
X42050000Y-85000000D03*
%TD*%
%TO.C,C33*%
X52900000Y-97000000D03*
X51000000Y-97000000D03*
%TD*%
D15*
%TO.C,C5*%
X89000000Y-86050000D03*
X89000000Y-87950000D03*
%TD*%
D16*
%TO.C,D7*%
X114207642Y-94257180D03*
X116470383Y-91994439D03*
X113005560Y-88529616D03*
X110742819Y-90792357D03*
%TD*%
D10*
%TO.C,D4*%
X89600000Y-99550000D03*
X86400000Y-99550000D03*
X86400000Y-104450000D03*
X89600000Y-104450000D03*
%TD*%
D13*
%TO.C,C10*%
X147050000Y-119000000D03*
X148950000Y-119000000D03*
%TD*%
D12*
%TO.C,C32*%
X67900000Y-97000000D03*
X66000000Y-97000000D03*
%TD*%
D17*
%TO.C,D3*%
X91792356Y-109742820D03*
X89529615Y-112005561D03*
X92994438Y-115470384D03*
X95257179Y-113207643D03*
%TD*%
D15*
%TO.C,C42*%
X98000000Y-137000000D03*
X98000000Y-138900000D03*
%TD*%
D14*
%TO.C,C3*%
X89000000Y-117950000D03*
X89000000Y-116050000D03*
%TD*%
%TO.C,C21*%
X120000000Y-42950000D03*
X120000000Y-41050000D03*
%TD*%
D11*
%TO.C,D35*%
X19549999Y-100400000D03*
X19549999Y-103600000D03*
X24449999Y-103600000D03*
X24449999Y-100400000D03*
%TD*%
D15*
%TO.C,C48*%
X110000000Y-161050000D03*
X110000000Y-162950000D03*
%TD*%
D13*
%TO.C,C11*%
X162050000Y-119000000D03*
X163950000Y-119000000D03*
%TD*%
D11*
%TO.C,D38*%
X40549999Y-112400000D03*
X40549999Y-115600000D03*
X45449999Y-115600000D03*
X45449999Y-112400000D03*
%TD*%
D13*
%TO.C,C6*%
X102050000Y-82000000D03*
X103950000Y-82000000D03*
%TD*%
D11*
%TO.C,D30*%
X55549999Y-88400000D03*
X55549999Y-91600000D03*
X60449999Y-91600000D03*
X60449999Y-88400000D03*
%TD*%
%TO.C,D2*%
X100550000Y-115400000D03*
X100550000Y-118600000D03*
X105450000Y-118600000D03*
X105450000Y-115400000D03*
%TD*%
D10*
%TO.C,D26*%
X92599999Y-69550000D03*
X89399999Y-69550000D03*
X89399999Y-74450000D03*
X92599999Y-74450000D03*
%TD*%
D11*
%TO.C,D12*%
X141449999Y-103600000D03*
X141449999Y-100400000D03*
X136549999Y-100400000D03*
X136549999Y-103600000D03*
%TD*%
%TO.C,D15*%
X186449999Y-103600000D03*
X186449999Y-100400000D03*
X181549999Y-100400000D03*
X181549999Y-103600000D03*
%TD*%
D18*
%TO.C,D5*%
X95257179Y-90792357D03*
X92994438Y-88529616D03*
X89529615Y-91994439D03*
X91792356Y-94257180D03*
%TD*%
D10*
%TO.C,D23*%
X104599999Y-48550000D03*
X101399999Y-48550000D03*
X101399999Y-53450000D03*
X104599999Y-53450000D03*
%TD*%
D12*
%TO.C,C38*%
X43950000Y-109000000D03*
X42050000Y-109000000D03*
%TD*%
D11*
%TO.C,D10*%
X150449999Y-115600000D03*
X150449999Y-112400000D03*
X145549999Y-112400000D03*
X145549999Y-115600000D03*
%TD*%
D10*
%TO.C,D48*%
X113399999Y-164450000D03*
X116599999Y-164450000D03*
X116599999Y-159550000D03*
X113399999Y-159550000D03*
%TD*%
D12*
%TO.C,C37*%
X58950000Y-109000000D03*
X57050000Y-109000000D03*
%TD*%
D11*
%TO.C,D6*%
X105450000Y-88600000D03*
X105450000Y-85400000D03*
X100550000Y-85400000D03*
X100550000Y-88600000D03*
%TD*%
D10*
%TO.C,D43*%
X101399999Y-155450000D03*
X104599999Y-155450000D03*
X104599999Y-150550000D03*
X101399999Y-150550000D03*
%TD*%
D11*
%TO.C,D32*%
X64549999Y-100400000D03*
X64549999Y-103600000D03*
X69449999Y-103600000D03*
X69449999Y-100400000D03*
%TD*%
D14*
%TO.C,C22*%
X108000000Y-66950000D03*
X108000000Y-65050000D03*
%TD*%
%TO.C,C26*%
X96000000Y-72950000D03*
X96000000Y-71050000D03*
%TD*%
D10*
%TO.C,D40*%
X89399999Y-149450000D03*
X92599999Y-149450000D03*
X92599999Y-144550000D03*
X89399999Y-144550000D03*
%TD*%
D15*
%TO.C,C46*%
X110000000Y-131050000D03*
X110000000Y-132950000D03*
%TD*%
%TO.C,C44*%
X98000000Y-165050000D03*
X98000000Y-166950000D03*
%TD*%
D11*
%TO.C,D18*%
X165449999Y-91600000D03*
X165449999Y-88400000D03*
X160549999Y-88400000D03*
X160549999Y-91600000D03*
%TD*%
%TO.C,D29*%
X70549999Y-88400000D03*
X70549999Y-91600000D03*
X75449999Y-91600000D03*
X75449999Y-88400000D03*
%TD*%
D14*
%TO.C,C19*%
X120000000Y-72950000D03*
X120000000Y-71050000D03*
%TD*%
D11*
%TO.C,D37*%
X55549999Y-112400000D03*
X55549999Y-115600000D03*
X60449999Y-115600000D03*
X60449999Y-112400000D03*
%TD*%
D10*
%TO.C,D24*%
X104599999Y-33550000D03*
X101399999Y-33550000D03*
X101399999Y-38450000D03*
X104599999Y-38450000D03*
%TD*%
D11*
%TO.C,D17*%
X150449999Y-91600000D03*
X150449999Y-88400000D03*
X145549999Y-88400000D03*
X145549999Y-91600000D03*
%TD*%
D10*
%TO.C,D21*%
X116599999Y-39550000D03*
X113399999Y-39550000D03*
X113399999Y-44450000D03*
X116599999Y-44450000D03*
%TD*%
D11*
%TO.C,D36*%
X70549999Y-112400000D03*
X70549999Y-115600000D03*
X75449999Y-115600000D03*
X75449999Y-112400000D03*
%TD*%
D12*
%TO.C,C29*%
X73950000Y-85000000D03*
X72050000Y-85000000D03*
%TD*%
D13*
%TO.C,C17*%
X147050000Y-95000000D03*
X148950000Y-95000000D03*
%TD*%
D10*
%TO.C,D39*%
X89399999Y-134450000D03*
X92599999Y-134450000D03*
X92599999Y-129550000D03*
X89399999Y-129550000D03*
%TD*%
%TO.C,D42*%
X101399999Y-140450000D03*
X104599999Y-140450000D03*
X104599999Y-135550000D03*
X101399999Y-135550000D03*
%TD*%
%TO.C,D47*%
X113399999Y-149450000D03*
X116599999Y-149450000D03*
X116599999Y-144550000D03*
X113399999Y-144550000D03*
%TD*%
D13*
%TO.C,C12*%
X138050000Y-107000000D03*
X139950000Y-107000000D03*
%TD*%
D12*
%TO.C,C36*%
X73950000Y-109000000D03*
X72050000Y-109000000D03*
%TD*%
D14*
%TO.C,C4*%
X83000000Y-102950000D03*
X83000000Y-101050000D03*
%TD*%
%TO.C,C24*%
X108000000Y-36950000D03*
X108000000Y-35050000D03*
%TD*%
D11*
%TO.C,D9*%
X135449999Y-115600000D03*
X135449999Y-112400000D03*
X130549999Y-112400000D03*
X130549999Y-115600000D03*
%TD*%
D15*
%TO.C,C45*%
X98000000Y-182000000D03*
X98000000Y-183900000D03*
%TD*%
D10*
%TO.C,D25*%
X104599999Y-18550000D03*
X101399999Y-18550000D03*
X101399999Y-23450000D03*
X104599999Y-23450000D03*
%TD*%
D14*
%TO.C,C28*%
X96000000Y-42950000D03*
X96000000Y-41050000D03*
%TD*%
D13*
%TO.C,C15*%
X183050000Y-107000000D03*
X184950000Y-107000000D03*
%TD*%
D12*
%TO.C,C2*%
X103950000Y-122000000D03*
X102050000Y-122000000D03*
%TD*%
D15*
%TO.C,C43*%
X98000000Y-152000000D03*
X98000000Y-153900000D03*
%TD*%
D11*
%TO.C,D14*%
X171449999Y-103600000D03*
X171449999Y-100400000D03*
X166549999Y-100400000D03*
X166549999Y-103600000D03*
%TD*%
D10*
%TO.C,D28*%
X92599999Y-39550000D03*
X89399999Y-39550000D03*
X89399999Y-44450000D03*
X92599999Y-44450000D03*
%TD*%
D19*
%TO.C,D1*%
X110742819Y-113207643D03*
X113005560Y-115470384D03*
X116470383Y-112005561D03*
X114207642Y-109742820D03*
%TD*%
D11*
%TO.C,D31*%
X40549999Y-88400000D03*
X40549999Y-91600000D03*
X45449999Y-91600000D03*
X45449999Y-88400000D03*
%TD*%
%TO.C,D13*%
X156449999Y-103600000D03*
X156449999Y-100400000D03*
X151549999Y-100400000D03*
X151549999Y-103600000D03*
%TD*%
D10*
%TO.C,D41*%
X89399999Y-164450000D03*
X92599999Y-164450000D03*
X92599999Y-159550000D03*
X89399999Y-159550000D03*
%TD*%
D13*
%TO.C,C13*%
X153050000Y-107000000D03*
X154950000Y-107000000D03*
%TD*%
%TO.C,C14*%
X168050000Y-107000000D03*
X169950000Y-107000000D03*
%TD*%
D14*
%TO.C,C25*%
X108000000Y-21950000D03*
X108000000Y-20050000D03*
%TD*%
D15*
%TO.C,C40*%
X86000000Y-146050000D03*
X86000000Y-147950000D03*
%TD*%
D14*
%TO.C,C23*%
X108000000Y-51950000D03*
X108000000Y-50050000D03*
%TD*%
%TO.C,C27*%
X96000000Y-57950000D03*
X96000000Y-56050000D03*
%TD*%
D15*
%TO.C,C47*%
X110000000Y-146050000D03*
X110000000Y-147950000D03*
%TD*%
%TO.C,C39*%
X86000000Y-131050000D03*
X86000000Y-132950000D03*
%TD*%
D13*
%TO.C,C9*%
X132050000Y-119000000D03*
X133950000Y-119000000D03*
%TD*%
D10*
%TO.C,D44*%
X101399999Y-170450000D03*
X104599999Y-170450000D03*
X104599999Y-165550000D03*
X101399999Y-165550000D03*
%TD*%
D15*
%TO.C,C8*%
X123000000Y-101050000D03*
X123000000Y-102950000D03*
%TD*%
D10*
%TO.C,D22*%
X104599999Y-63550000D03*
X101399999Y-63550000D03*
X101399999Y-68450000D03*
X104599999Y-68450000D03*
%TD*%
D11*
%TO.C,D16*%
X135449999Y-91600000D03*
X135449999Y-88400000D03*
X130549999Y-88400000D03*
X130549999Y-91600000D03*
%TD*%
D10*
%TO.C,D20*%
X116599999Y-54550000D03*
X113399999Y-54550000D03*
X113399999Y-59450000D03*
X116599999Y-59450000D03*
%TD*%
M02*
