M48
; DRILL file {KiCad (6.0.5)} date Thu Aug 25 18:23:57 2022
; FORMAT={-:-/ absolute / inch / decimal}
; #@! TF.CreationDate,2022-08-25T18:23:57-06:00
; #@! TF.GenerationSoftware,Kicad,Pcbnew,(6.0.5)
; #@! TF.FileFunction,Plated,1,2,PTH
FMAT,2
INCH
; #@! TA.AperFunction,Plated,PTH,ViaDrill
T1C0.0157
; #@! TA.AperFunction,Plated,PTH,ComponentDrill
T2C0.0394
%
G90
G05
T1
X0.9449Y-3.8189
X1.5354Y-3.8189
X1.7717Y-3.3465
X1.7717Y-4.2913
X2.126Y-3.8189
X2.3622Y-3.3465
X2.3622Y-4.2913
X2.6378Y-3.7402
X2.874Y-4.2126
X2.9528Y-3.3465
X3.2677Y-4.1339
X3.3858Y-5.1181
X3.3858Y-5.7087
X3.3858Y-6.2992
X3.4252Y-3.3858
X3.5827Y-4.6457
X3.7795Y-1.7323
X3.7795Y-2.3228
X3.7795Y-5.4331
X3.8583Y-2.8346
X3.8583Y-5.9449
X3.8583Y-6.4567
X3.8583Y-7.126
X3.937Y-3.2283
X4.1732Y-4.8031
X4.252Y-0.9055
X4.252Y-1.4961
X4.252Y-2.0866
X4.252Y-5.1969
X4.3307Y-2.5984
X4.3307Y-5.7087
X4.3307Y-6.2992
X4.3701Y-4.3307
X4.5276Y-4.6457
X4.6457Y-3.3465
X4.7244Y-1.7323
X4.7244Y-2.3228
X4.7244Y-2.9134
X4.8425Y-3.8976
X5.1181Y-4.685
X5.1575Y-3.7402
X5.3937Y-4.2126
X5.7087Y-4.685
X5.748Y-3.7402
X5.9843Y-4.2126
X6.2992Y-4.685
X6.3386Y-3.7402
X6.5748Y-4.2126
X7.1654Y-4.2126
T2
X3.5608Y-6.6781
X3.6608Y-6.6781
X3.7608Y-6.6781
X4.3482Y-6.6781
X4.4482Y-6.6781
X4.5482Y-6.6781
T0
M30
