%TF.GenerationSoftware,KiCad,Pcbnew,(6.0.5)*%
%TF.CreationDate,2022-08-25T18:23:53-06:00*%
%TF.ProjectId,Led Zia,4c656420-5a69-4612-9e6b-696361645f70,rev?*%
%TF.SameCoordinates,Original*%
%TF.FileFunction,Legend,Top*%
%TF.FilePolarity,Positive*%
%FSLAX46Y46*%
G04 Gerber Fmt 4.6, Leading zero omitted, Abs format (unit mm)*
G04 Created by KiCad (PCBNEW (6.0.5)) date 2022-08-25 18:23:53*
%MOMM*%
%LPD*%
G01*
G04 APERTURE LIST*
%ADD10C,0.150000*%
%ADD11C,0.120000*%
G04 APERTURE END LIST*
D10*
%TO.C,C9*%
X136008333Y-119357142D02*
X135960714Y-119404761D01*
X135817857Y-119452380D01*
X135722619Y-119452380D01*
X135579761Y-119404761D01*
X135484523Y-119309523D01*
X135436904Y-119214285D01*
X135389285Y-119023809D01*
X135389285Y-118880952D01*
X135436904Y-118690476D01*
X135484523Y-118595238D01*
X135579761Y-118500000D01*
X135722619Y-118452380D01*
X135817857Y-118452380D01*
X135960714Y-118500000D01*
X136008333Y-118547619D01*
X136484523Y-119452380D02*
X136675000Y-119452380D01*
X136770238Y-119404761D01*
X136817857Y-119357142D01*
X136913095Y-119214285D01*
X136960714Y-119023809D01*
X136960714Y-118642857D01*
X136913095Y-118547619D01*
X136865476Y-118500000D01*
X136770238Y-118452380D01*
X136579761Y-118452380D01*
X136484523Y-118500000D01*
X136436904Y-118547619D01*
X136389285Y-118642857D01*
X136389285Y-118880952D01*
X136436904Y-118976190D01*
X136484523Y-119023809D01*
X136579761Y-119071428D01*
X136770238Y-119071428D01*
X136865476Y-119023809D01*
X136913095Y-118976190D01*
X136960714Y-118880952D01*
%TO.C,C26*%
X96357142Y-69467857D02*
X96404761Y-69515476D01*
X96452380Y-69658333D01*
X96452380Y-69753571D01*
X96404761Y-69896428D01*
X96309523Y-69991666D01*
X96214285Y-70039285D01*
X96023809Y-70086904D01*
X95880952Y-70086904D01*
X95690476Y-70039285D01*
X95595238Y-69991666D01*
X95500000Y-69896428D01*
X95452380Y-69753571D01*
X95452380Y-69658333D01*
X95500000Y-69515476D01*
X95547619Y-69467857D01*
X95547619Y-69086904D02*
X95500000Y-69039285D01*
X95452380Y-68944047D01*
X95452380Y-68705952D01*
X95500000Y-68610714D01*
X95547619Y-68563095D01*
X95642857Y-68515476D01*
X95738095Y-68515476D01*
X95880952Y-68563095D01*
X96452380Y-69134523D01*
X96452380Y-68515476D01*
X95452380Y-67658333D02*
X95452380Y-67848809D01*
X95500000Y-67944047D01*
X95547619Y-67991666D01*
X95690476Y-68086904D01*
X95880952Y-68134523D01*
X96261904Y-68134523D01*
X96357142Y-68086904D01*
X96404761Y-68039285D01*
X96452380Y-67944047D01*
X96452380Y-67753571D01*
X96404761Y-67658333D01*
X96357142Y-67610714D01*
X96261904Y-67563095D01*
X96023809Y-67563095D01*
X95928571Y-67610714D01*
X95880952Y-67658333D01*
X95833333Y-67753571D01*
X95833333Y-67944047D01*
X95880952Y-68039285D01*
X95928571Y-68086904D01*
X96023809Y-68134523D01*
%TO.C,C30*%
X54182142Y-85357142D02*
X54134523Y-85404761D01*
X53991666Y-85452380D01*
X53896428Y-85452380D01*
X53753571Y-85404761D01*
X53658333Y-85309523D01*
X53610714Y-85214285D01*
X53563095Y-85023809D01*
X53563095Y-84880952D01*
X53610714Y-84690476D01*
X53658333Y-84595238D01*
X53753571Y-84500000D01*
X53896428Y-84452380D01*
X53991666Y-84452380D01*
X54134523Y-84500000D01*
X54182142Y-84547619D01*
X54515476Y-84452380D02*
X55134523Y-84452380D01*
X54801190Y-84833333D01*
X54944047Y-84833333D01*
X55039285Y-84880952D01*
X55086904Y-84928571D01*
X55134523Y-85023809D01*
X55134523Y-85261904D01*
X55086904Y-85357142D01*
X55039285Y-85404761D01*
X54944047Y-85452380D01*
X54658333Y-85452380D01*
X54563095Y-85404761D01*
X54515476Y-85357142D01*
X55753571Y-84452380D02*
X55848809Y-84452380D01*
X55944047Y-84500000D01*
X55991666Y-84547619D01*
X56039285Y-84642857D01*
X56086904Y-84833333D01*
X56086904Y-85071428D01*
X56039285Y-85261904D01*
X55991666Y-85357142D01*
X55944047Y-85404761D01*
X55848809Y-85452380D01*
X55753571Y-85452380D01*
X55658333Y-85404761D01*
X55610714Y-85357142D01*
X55563095Y-85261904D01*
X55515476Y-85071428D01*
X55515476Y-84833333D01*
X55563095Y-84642857D01*
X55610714Y-84547619D01*
X55658333Y-84500000D01*
X55753571Y-84452380D01*
%TO.C,C16*%
X135532142Y-95357142D02*
X135484523Y-95404761D01*
X135341666Y-95452380D01*
X135246428Y-95452380D01*
X135103571Y-95404761D01*
X135008333Y-95309523D01*
X134960714Y-95214285D01*
X134913095Y-95023809D01*
X134913095Y-94880952D01*
X134960714Y-94690476D01*
X135008333Y-94595238D01*
X135103571Y-94500000D01*
X135246428Y-94452380D01*
X135341666Y-94452380D01*
X135484523Y-94500000D01*
X135532142Y-94547619D01*
X136484523Y-95452380D02*
X135913095Y-95452380D01*
X136198809Y-95452380D02*
X136198809Y-94452380D01*
X136103571Y-94595238D01*
X136008333Y-94690476D01*
X135913095Y-94738095D01*
X137341666Y-94452380D02*
X137151190Y-94452380D01*
X137055952Y-94500000D01*
X137008333Y-94547619D01*
X136913095Y-94690476D01*
X136865476Y-94880952D01*
X136865476Y-95261904D01*
X136913095Y-95357142D01*
X136960714Y-95404761D01*
X137055952Y-95452380D01*
X137246428Y-95452380D01*
X137341666Y-95404761D01*
X137389285Y-95357142D01*
X137436904Y-95261904D01*
X137436904Y-95023809D01*
X137389285Y-94928571D01*
X137341666Y-94880952D01*
X137246428Y-94833333D01*
X137055952Y-94833333D01*
X136960714Y-94880952D01*
X136913095Y-94928571D01*
X136865476Y-95023809D01*
%TO.C,C18*%
X165532142Y-95357142D02*
X165484523Y-95404761D01*
X165341666Y-95452380D01*
X165246428Y-95452380D01*
X165103571Y-95404761D01*
X165008333Y-95309523D01*
X164960714Y-95214285D01*
X164913095Y-95023809D01*
X164913095Y-94880952D01*
X164960714Y-94690476D01*
X165008333Y-94595238D01*
X165103571Y-94500000D01*
X165246428Y-94452380D01*
X165341666Y-94452380D01*
X165484523Y-94500000D01*
X165532142Y-94547619D01*
X166484523Y-95452380D02*
X165913095Y-95452380D01*
X166198809Y-95452380D02*
X166198809Y-94452380D01*
X166103571Y-94595238D01*
X166008333Y-94690476D01*
X165913095Y-94738095D01*
X167055952Y-94880952D02*
X166960714Y-94833333D01*
X166913095Y-94785714D01*
X166865476Y-94690476D01*
X166865476Y-94642857D01*
X166913095Y-94547619D01*
X166960714Y-94500000D01*
X167055952Y-94452380D01*
X167246428Y-94452380D01*
X167341666Y-94500000D01*
X167389285Y-94547619D01*
X167436904Y-94642857D01*
X167436904Y-94690476D01*
X167389285Y-94785714D01*
X167341666Y-94833333D01*
X167246428Y-94880952D01*
X167055952Y-94880952D01*
X166960714Y-94928571D01*
X166913095Y-94976190D01*
X166865476Y-95071428D01*
X166865476Y-95261904D01*
X166913095Y-95357142D01*
X166960714Y-95404761D01*
X167055952Y-95452380D01*
X167246428Y-95452380D01*
X167341666Y-95404761D01*
X167389285Y-95357142D01*
X167436904Y-95261904D01*
X167436904Y-95071428D01*
X167389285Y-94976190D01*
X167341666Y-94928571D01*
X167246428Y-94880952D01*
%TO.C,C35*%
X20357142Y-95357142D02*
X20309523Y-95404761D01*
X20166666Y-95452380D01*
X20071428Y-95452380D01*
X19928571Y-95404761D01*
X19833333Y-95309523D01*
X19785714Y-95214285D01*
X19738095Y-95023809D01*
X19738095Y-94880952D01*
X19785714Y-94690476D01*
X19833333Y-94595238D01*
X19928571Y-94500000D01*
X20071428Y-94452380D01*
X20166666Y-94452380D01*
X20309523Y-94500000D01*
X20357142Y-94547619D01*
X20690476Y-94452380D02*
X21309523Y-94452380D01*
X20976190Y-94833333D01*
X21119047Y-94833333D01*
X21214285Y-94880952D01*
X21261904Y-94928571D01*
X21309523Y-95023809D01*
X21309523Y-95261904D01*
X21261904Y-95357142D01*
X21214285Y-95404761D01*
X21119047Y-95452380D01*
X20833333Y-95452380D01*
X20738095Y-95404761D01*
X20690476Y-95357142D01*
X22214285Y-94452380D02*
X21738095Y-94452380D01*
X21690476Y-94928571D01*
X21738095Y-94880952D01*
X21833333Y-94833333D01*
X22071428Y-94833333D01*
X22166666Y-94880952D01*
X22214285Y-94928571D01*
X22261904Y-95023809D01*
X22261904Y-95261904D01*
X22214285Y-95357142D01*
X22166666Y-95404761D01*
X22071428Y-95452380D01*
X21833333Y-95452380D01*
X21738095Y-95404761D01*
X21690476Y-95357142D01*
%TO.C,C34*%
X33132142Y-97357142D02*
X33084523Y-97404761D01*
X32941666Y-97452380D01*
X32846428Y-97452380D01*
X32703571Y-97404761D01*
X32608333Y-97309523D01*
X32560714Y-97214285D01*
X32513095Y-97023809D01*
X32513095Y-96880952D01*
X32560714Y-96690476D01*
X32608333Y-96595238D01*
X32703571Y-96500000D01*
X32846428Y-96452380D01*
X32941666Y-96452380D01*
X33084523Y-96500000D01*
X33132142Y-96547619D01*
X33465476Y-96452380D02*
X34084523Y-96452380D01*
X33751190Y-96833333D01*
X33894047Y-96833333D01*
X33989285Y-96880952D01*
X34036904Y-96928571D01*
X34084523Y-97023809D01*
X34084523Y-97261904D01*
X34036904Y-97357142D01*
X33989285Y-97404761D01*
X33894047Y-97452380D01*
X33608333Y-97452380D01*
X33513095Y-97404761D01*
X33465476Y-97357142D01*
X34941666Y-96785714D02*
X34941666Y-97452380D01*
X34703571Y-96404761D02*
X34465476Y-97119047D01*
X35084523Y-97119047D01*
%TO.C,C7*%
X113658333Y-86357142D02*
X113610714Y-86404761D01*
X113467857Y-86452380D01*
X113372619Y-86452380D01*
X113229761Y-86404761D01*
X113134523Y-86309523D01*
X113086904Y-86214285D01*
X113039285Y-86023809D01*
X113039285Y-85880952D01*
X113086904Y-85690476D01*
X113134523Y-85595238D01*
X113229761Y-85500000D01*
X113372619Y-85452380D01*
X113467857Y-85452380D01*
X113610714Y-85500000D01*
X113658333Y-85547619D01*
X113991666Y-85452380D02*
X114658333Y-85452380D01*
X114229761Y-86452380D01*
%TO.C,C20*%
X120357142Y-54467857D02*
X120404761Y-54515476D01*
X120452380Y-54658333D01*
X120452380Y-54753571D01*
X120404761Y-54896428D01*
X120309523Y-54991666D01*
X120214285Y-55039285D01*
X120023809Y-55086904D01*
X119880952Y-55086904D01*
X119690476Y-55039285D01*
X119595238Y-54991666D01*
X119500000Y-54896428D01*
X119452380Y-54753571D01*
X119452380Y-54658333D01*
X119500000Y-54515476D01*
X119547619Y-54467857D01*
X119547619Y-54086904D02*
X119500000Y-54039285D01*
X119452380Y-53944047D01*
X119452380Y-53705952D01*
X119500000Y-53610714D01*
X119547619Y-53563095D01*
X119642857Y-53515476D01*
X119738095Y-53515476D01*
X119880952Y-53563095D01*
X120452380Y-54134523D01*
X120452380Y-53515476D01*
X119452380Y-52896428D02*
X119452380Y-52801190D01*
X119500000Y-52705952D01*
X119547619Y-52658333D01*
X119642857Y-52610714D01*
X119833333Y-52563095D01*
X120071428Y-52563095D01*
X120261904Y-52610714D01*
X120357142Y-52658333D01*
X120404761Y-52705952D01*
X120452380Y-52801190D01*
X120452380Y-52896428D01*
X120404761Y-52991666D01*
X120357142Y-53039285D01*
X120261904Y-53086904D01*
X120071428Y-53134523D01*
X119833333Y-53134523D01*
X119642857Y-53086904D01*
X119547619Y-53039285D01*
X119500000Y-52991666D01*
X119452380Y-52896428D01*
%TO.C,C41*%
X86357142Y-165817857D02*
X86404761Y-165865476D01*
X86452380Y-166008333D01*
X86452380Y-166103571D01*
X86404761Y-166246428D01*
X86309523Y-166341666D01*
X86214285Y-166389285D01*
X86023809Y-166436904D01*
X85880952Y-166436904D01*
X85690476Y-166389285D01*
X85595238Y-166341666D01*
X85500000Y-166246428D01*
X85452380Y-166103571D01*
X85452380Y-166008333D01*
X85500000Y-165865476D01*
X85547619Y-165817857D01*
X85785714Y-164960714D02*
X86452380Y-164960714D01*
X85404761Y-165198809D02*
X86119047Y-165436904D01*
X86119047Y-164817857D01*
X86452380Y-163913095D02*
X86452380Y-164484523D01*
X86452380Y-164198809D02*
X85452380Y-164198809D01*
X85595238Y-164294047D01*
X85690476Y-164389285D01*
X85738095Y-164484523D01*
%TO.C,C1*%
X118357142Y-113991666D02*
X118404761Y-114039285D01*
X118452380Y-114182142D01*
X118452380Y-114277380D01*
X118404761Y-114420238D01*
X118309523Y-114515476D01*
X118214285Y-114563095D01*
X118023809Y-114610714D01*
X117880952Y-114610714D01*
X117690476Y-114563095D01*
X117595238Y-114515476D01*
X117500000Y-114420238D01*
X117452380Y-114277380D01*
X117452380Y-114182142D01*
X117500000Y-114039285D01*
X117547619Y-113991666D01*
X118452380Y-113039285D02*
X118452380Y-113610714D01*
X118452380Y-113325000D02*
X117452380Y-113325000D01*
X117595238Y-113420238D01*
X117690476Y-113515476D01*
X117738095Y-113610714D01*
%TO.C,C31*%
X39182142Y-85357142D02*
X39134523Y-85404761D01*
X38991666Y-85452380D01*
X38896428Y-85452380D01*
X38753571Y-85404761D01*
X38658333Y-85309523D01*
X38610714Y-85214285D01*
X38563095Y-85023809D01*
X38563095Y-84880952D01*
X38610714Y-84690476D01*
X38658333Y-84595238D01*
X38753571Y-84500000D01*
X38896428Y-84452380D01*
X38991666Y-84452380D01*
X39134523Y-84500000D01*
X39182142Y-84547619D01*
X39515476Y-84452380D02*
X40134523Y-84452380D01*
X39801190Y-84833333D01*
X39944047Y-84833333D01*
X40039285Y-84880952D01*
X40086904Y-84928571D01*
X40134523Y-85023809D01*
X40134523Y-85261904D01*
X40086904Y-85357142D01*
X40039285Y-85404761D01*
X39944047Y-85452380D01*
X39658333Y-85452380D01*
X39563095Y-85404761D01*
X39515476Y-85357142D01*
X41086904Y-85452380D02*
X40515476Y-85452380D01*
X40801190Y-85452380D02*
X40801190Y-84452380D01*
X40705952Y-84595238D01*
X40610714Y-84690476D01*
X40515476Y-84738095D01*
%TO.C,C33*%
X48132142Y-97357142D02*
X48084523Y-97404761D01*
X47941666Y-97452380D01*
X47846428Y-97452380D01*
X47703571Y-97404761D01*
X47608333Y-97309523D01*
X47560714Y-97214285D01*
X47513095Y-97023809D01*
X47513095Y-96880952D01*
X47560714Y-96690476D01*
X47608333Y-96595238D01*
X47703571Y-96500000D01*
X47846428Y-96452380D01*
X47941666Y-96452380D01*
X48084523Y-96500000D01*
X48132142Y-96547619D01*
X48465476Y-96452380D02*
X49084523Y-96452380D01*
X48751190Y-96833333D01*
X48894047Y-96833333D01*
X48989285Y-96880952D01*
X49036904Y-96928571D01*
X49084523Y-97023809D01*
X49084523Y-97261904D01*
X49036904Y-97357142D01*
X48989285Y-97404761D01*
X48894047Y-97452380D01*
X48608333Y-97452380D01*
X48513095Y-97404761D01*
X48465476Y-97357142D01*
X49417857Y-96452380D02*
X50036904Y-96452380D01*
X49703571Y-96833333D01*
X49846428Y-96833333D01*
X49941666Y-96880952D01*
X49989285Y-96928571D01*
X50036904Y-97023809D01*
X50036904Y-97261904D01*
X49989285Y-97357142D01*
X49941666Y-97404761D01*
X49846428Y-97452380D01*
X49560714Y-97452380D01*
X49465476Y-97404761D01*
X49417857Y-97357142D01*
%TO.C,C5*%
X88357142Y-90341666D02*
X88404761Y-90389285D01*
X88452380Y-90532142D01*
X88452380Y-90627380D01*
X88404761Y-90770238D01*
X88309523Y-90865476D01*
X88214285Y-90913095D01*
X88023809Y-90960714D01*
X87880952Y-90960714D01*
X87690476Y-90913095D01*
X87595238Y-90865476D01*
X87500000Y-90770238D01*
X87452380Y-90627380D01*
X87452380Y-90532142D01*
X87500000Y-90389285D01*
X87547619Y-90341666D01*
X87452380Y-89436904D02*
X87452380Y-89913095D01*
X87928571Y-89960714D01*
X87880952Y-89913095D01*
X87833333Y-89817857D01*
X87833333Y-89579761D01*
X87880952Y-89484523D01*
X87928571Y-89436904D01*
X88023809Y-89389285D01*
X88261904Y-89389285D01*
X88357142Y-89436904D01*
X88404761Y-89484523D01*
X88452380Y-89579761D01*
X88452380Y-89817857D01*
X88404761Y-89913095D01*
X88357142Y-89960714D01*
%TO.C,C10*%
X150532142Y-119357142D02*
X150484523Y-119404761D01*
X150341666Y-119452380D01*
X150246428Y-119452380D01*
X150103571Y-119404761D01*
X150008333Y-119309523D01*
X149960714Y-119214285D01*
X149913095Y-119023809D01*
X149913095Y-118880952D01*
X149960714Y-118690476D01*
X150008333Y-118595238D01*
X150103571Y-118500000D01*
X150246428Y-118452380D01*
X150341666Y-118452380D01*
X150484523Y-118500000D01*
X150532142Y-118547619D01*
X151484523Y-119452380D02*
X150913095Y-119452380D01*
X151198809Y-119452380D02*
X151198809Y-118452380D01*
X151103571Y-118595238D01*
X151008333Y-118690476D01*
X150913095Y-118738095D01*
X152103571Y-118452380D02*
X152198809Y-118452380D01*
X152294047Y-118500000D01*
X152341666Y-118547619D01*
X152389285Y-118642857D01*
X152436904Y-118833333D01*
X152436904Y-119071428D01*
X152389285Y-119261904D01*
X152341666Y-119357142D01*
X152294047Y-119404761D01*
X152198809Y-119452380D01*
X152103571Y-119452380D01*
X152008333Y-119404761D01*
X151960714Y-119357142D01*
X151913095Y-119261904D01*
X151865476Y-119071428D01*
X151865476Y-118833333D01*
X151913095Y-118642857D01*
X151960714Y-118547619D01*
X152008333Y-118500000D01*
X152103571Y-118452380D01*
%TO.C,C32*%
X63132142Y-97357142D02*
X63084523Y-97404761D01*
X62941666Y-97452380D01*
X62846428Y-97452380D01*
X62703571Y-97404761D01*
X62608333Y-97309523D01*
X62560714Y-97214285D01*
X62513095Y-97023809D01*
X62513095Y-96880952D01*
X62560714Y-96690476D01*
X62608333Y-96595238D01*
X62703571Y-96500000D01*
X62846428Y-96452380D01*
X62941666Y-96452380D01*
X63084523Y-96500000D01*
X63132142Y-96547619D01*
X63465476Y-96452380D02*
X64084523Y-96452380D01*
X63751190Y-96833333D01*
X63894047Y-96833333D01*
X63989285Y-96880952D01*
X64036904Y-96928571D01*
X64084523Y-97023809D01*
X64084523Y-97261904D01*
X64036904Y-97357142D01*
X63989285Y-97404761D01*
X63894047Y-97452380D01*
X63608333Y-97452380D01*
X63513095Y-97404761D01*
X63465476Y-97357142D01*
X64465476Y-96547619D02*
X64513095Y-96500000D01*
X64608333Y-96452380D01*
X64846428Y-96452380D01*
X64941666Y-96500000D01*
X64989285Y-96547619D01*
X65036904Y-96642857D01*
X65036904Y-96738095D01*
X64989285Y-96880952D01*
X64417857Y-97452380D01*
X65036904Y-97452380D01*
%TO.C,C42*%
X98357142Y-141767857D02*
X98404761Y-141815476D01*
X98452380Y-141958333D01*
X98452380Y-142053571D01*
X98404761Y-142196428D01*
X98309523Y-142291666D01*
X98214285Y-142339285D01*
X98023809Y-142386904D01*
X97880952Y-142386904D01*
X97690476Y-142339285D01*
X97595238Y-142291666D01*
X97500000Y-142196428D01*
X97452380Y-142053571D01*
X97452380Y-141958333D01*
X97500000Y-141815476D01*
X97547619Y-141767857D01*
X97785714Y-140910714D02*
X98452380Y-140910714D01*
X97404761Y-141148809D02*
X98119047Y-141386904D01*
X98119047Y-140767857D01*
X97547619Y-140434523D02*
X97500000Y-140386904D01*
X97452380Y-140291666D01*
X97452380Y-140053571D01*
X97500000Y-139958333D01*
X97547619Y-139910714D01*
X97642857Y-139863095D01*
X97738095Y-139863095D01*
X97880952Y-139910714D01*
X98452380Y-140482142D01*
X98452380Y-139863095D01*
%TO.C,C3*%
X88357142Y-113991666D02*
X88404761Y-114039285D01*
X88452380Y-114182142D01*
X88452380Y-114277380D01*
X88404761Y-114420238D01*
X88309523Y-114515476D01*
X88214285Y-114563095D01*
X88023809Y-114610714D01*
X87880952Y-114610714D01*
X87690476Y-114563095D01*
X87595238Y-114515476D01*
X87500000Y-114420238D01*
X87452380Y-114277380D01*
X87452380Y-114182142D01*
X87500000Y-114039285D01*
X87547619Y-113991666D01*
X87452380Y-113658333D02*
X87452380Y-113039285D01*
X87833333Y-113372619D01*
X87833333Y-113229761D01*
X87880952Y-113134523D01*
X87928571Y-113086904D01*
X88023809Y-113039285D01*
X88261904Y-113039285D01*
X88357142Y-113086904D01*
X88404761Y-113134523D01*
X88452380Y-113229761D01*
X88452380Y-113515476D01*
X88404761Y-113610714D01*
X88357142Y-113658333D01*
%TO.C,C21*%
X120357142Y-39467857D02*
X120404761Y-39515476D01*
X120452380Y-39658333D01*
X120452380Y-39753571D01*
X120404761Y-39896428D01*
X120309523Y-39991666D01*
X120214285Y-40039285D01*
X120023809Y-40086904D01*
X119880952Y-40086904D01*
X119690476Y-40039285D01*
X119595238Y-39991666D01*
X119500000Y-39896428D01*
X119452380Y-39753571D01*
X119452380Y-39658333D01*
X119500000Y-39515476D01*
X119547619Y-39467857D01*
X119547619Y-39086904D02*
X119500000Y-39039285D01*
X119452380Y-38944047D01*
X119452380Y-38705952D01*
X119500000Y-38610714D01*
X119547619Y-38563095D01*
X119642857Y-38515476D01*
X119738095Y-38515476D01*
X119880952Y-38563095D01*
X120452380Y-39134523D01*
X120452380Y-38515476D01*
X120452380Y-37563095D02*
X120452380Y-38134523D01*
X120452380Y-37848809D02*
X119452380Y-37848809D01*
X119595238Y-37944047D01*
X119690476Y-38039285D01*
X119738095Y-38134523D01*
%TO.C,C48*%
X110357142Y-165817857D02*
X110404761Y-165865476D01*
X110452380Y-166008333D01*
X110452380Y-166103571D01*
X110404761Y-166246428D01*
X110309523Y-166341666D01*
X110214285Y-166389285D01*
X110023809Y-166436904D01*
X109880952Y-166436904D01*
X109690476Y-166389285D01*
X109595238Y-166341666D01*
X109500000Y-166246428D01*
X109452380Y-166103571D01*
X109452380Y-166008333D01*
X109500000Y-165865476D01*
X109547619Y-165817857D01*
X109785714Y-164960714D02*
X110452380Y-164960714D01*
X109404761Y-165198809D02*
X110119047Y-165436904D01*
X110119047Y-164817857D01*
X109880952Y-164294047D02*
X109833333Y-164389285D01*
X109785714Y-164436904D01*
X109690476Y-164484523D01*
X109642857Y-164484523D01*
X109547619Y-164436904D01*
X109500000Y-164389285D01*
X109452380Y-164294047D01*
X109452380Y-164103571D01*
X109500000Y-164008333D01*
X109547619Y-163960714D01*
X109642857Y-163913095D01*
X109690476Y-163913095D01*
X109785714Y-163960714D01*
X109833333Y-164008333D01*
X109880952Y-164103571D01*
X109880952Y-164294047D01*
X109928571Y-164389285D01*
X109976190Y-164436904D01*
X110071428Y-164484523D01*
X110261904Y-164484523D01*
X110357142Y-164436904D01*
X110404761Y-164389285D01*
X110452380Y-164294047D01*
X110452380Y-164103571D01*
X110404761Y-164008333D01*
X110357142Y-163960714D01*
X110261904Y-163913095D01*
X110071428Y-163913095D01*
X109976190Y-163960714D01*
X109928571Y-164008333D01*
X109880952Y-164103571D01*
%TO.C,C11*%
X165532142Y-119357142D02*
X165484523Y-119404761D01*
X165341666Y-119452380D01*
X165246428Y-119452380D01*
X165103571Y-119404761D01*
X165008333Y-119309523D01*
X164960714Y-119214285D01*
X164913095Y-119023809D01*
X164913095Y-118880952D01*
X164960714Y-118690476D01*
X165008333Y-118595238D01*
X165103571Y-118500000D01*
X165246428Y-118452380D01*
X165341666Y-118452380D01*
X165484523Y-118500000D01*
X165532142Y-118547619D01*
X166484523Y-119452380D02*
X165913095Y-119452380D01*
X166198809Y-119452380D02*
X166198809Y-118452380D01*
X166103571Y-118595238D01*
X166008333Y-118690476D01*
X165913095Y-118738095D01*
X167436904Y-119452380D02*
X166865476Y-119452380D01*
X167151190Y-119452380D02*
X167151190Y-118452380D01*
X167055952Y-118595238D01*
X166960714Y-118690476D01*
X166865476Y-118738095D01*
%TO.C,C6*%
X106008333Y-82357142D02*
X105960714Y-82404761D01*
X105817857Y-82452380D01*
X105722619Y-82452380D01*
X105579761Y-82404761D01*
X105484523Y-82309523D01*
X105436904Y-82214285D01*
X105389285Y-82023809D01*
X105389285Y-81880952D01*
X105436904Y-81690476D01*
X105484523Y-81595238D01*
X105579761Y-81500000D01*
X105722619Y-81452380D01*
X105817857Y-81452380D01*
X105960714Y-81500000D01*
X106008333Y-81547619D01*
X106865476Y-81452380D02*
X106675000Y-81452380D01*
X106579761Y-81500000D01*
X106532142Y-81547619D01*
X106436904Y-81690476D01*
X106389285Y-81880952D01*
X106389285Y-82261904D01*
X106436904Y-82357142D01*
X106484523Y-82404761D01*
X106579761Y-82452380D01*
X106770238Y-82452380D01*
X106865476Y-82404761D01*
X106913095Y-82357142D01*
X106960714Y-82261904D01*
X106960714Y-82023809D01*
X106913095Y-81928571D01*
X106865476Y-81880952D01*
X106770238Y-81833333D01*
X106579761Y-81833333D01*
X106484523Y-81880952D01*
X106436904Y-81928571D01*
X106389285Y-82023809D01*
%TO.C,C38*%
X39182142Y-109357142D02*
X39134523Y-109404761D01*
X38991666Y-109452380D01*
X38896428Y-109452380D01*
X38753571Y-109404761D01*
X38658333Y-109309523D01*
X38610714Y-109214285D01*
X38563095Y-109023809D01*
X38563095Y-108880952D01*
X38610714Y-108690476D01*
X38658333Y-108595238D01*
X38753571Y-108500000D01*
X38896428Y-108452380D01*
X38991666Y-108452380D01*
X39134523Y-108500000D01*
X39182142Y-108547619D01*
X39515476Y-108452380D02*
X40134523Y-108452380D01*
X39801190Y-108833333D01*
X39944047Y-108833333D01*
X40039285Y-108880952D01*
X40086904Y-108928571D01*
X40134523Y-109023809D01*
X40134523Y-109261904D01*
X40086904Y-109357142D01*
X40039285Y-109404761D01*
X39944047Y-109452380D01*
X39658333Y-109452380D01*
X39563095Y-109404761D01*
X39515476Y-109357142D01*
X40705952Y-108880952D02*
X40610714Y-108833333D01*
X40563095Y-108785714D01*
X40515476Y-108690476D01*
X40515476Y-108642857D01*
X40563095Y-108547619D01*
X40610714Y-108500000D01*
X40705952Y-108452380D01*
X40896428Y-108452380D01*
X40991666Y-108500000D01*
X41039285Y-108547619D01*
X41086904Y-108642857D01*
X41086904Y-108690476D01*
X41039285Y-108785714D01*
X40991666Y-108833333D01*
X40896428Y-108880952D01*
X40705952Y-108880952D01*
X40610714Y-108928571D01*
X40563095Y-108976190D01*
X40515476Y-109071428D01*
X40515476Y-109261904D01*
X40563095Y-109357142D01*
X40610714Y-109404761D01*
X40705952Y-109452380D01*
X40896428Y-109452380D01*
X40991666Y-109404761D01*
X41039285Y-109357142D01*
X41086904Y-109261904D01*
X41086904Y-109071428D01*
X41039285Y-108976190D01*
X40991666Y-108928571D01*
X40896428Y-108880952D01*
%TO.C,C37*%
X54182142Y-109357142D02*
X54134523Y-109404761D01*
X53991666Y-109452380D01*
X53896428Y-109452380D01*
X53753571Y-109404761D01*
X53658333Y-109309523D01*
X53610714Y-109214285D01*
X53563095Y-109023809D01*
X53563095Y-108880952D01*
X53610714Y-108690476D01*
X53658333Y-108595238D01*
X53753571Y-108500000D01*
X53896428Y-108452380D01*
X53991666Y-108452380D01*
X54134523Y-108500000D01*
X54182142Y-108547619D01*
X54515476Y-108452380D02*
X55134523Y-108452380D01*
X54801190Y-108833333D01*
X54944047Y-108833333D01*
X55039285Y-108880952D01*
X55086904Y-108928571D01*
X55134523Y-109023809D01*
X55134523Y-109261904D01*
X55086904Y-109357142D01*
X55039285Y-109404761D01*
X54944047Y-109452380D01*
X54658333Y-109452380D01*
X54563095Y-109404761D01*
X54515476Y-109357142D01*
X55467857Y-108452380D02*
X56134523Y-108452380D01*
X55705952Y-109452380D01*
%TO.C,C22*%
X108357142Y-63467857D02*
X108404761Y-63515476D01*
X108452380Y-63658333D01*
X108452380Y-63753571D01*
X108404761Y-63896428D01*
X108309523Y-63991666D01*
X108214285Y-64039285D01*
X108023809Y-64086904D01*
X107880952Y-64086904D01*
X107690476Y-64039285D01*
X107595238Y-63991666D01*
X107500000Y-63896428D01*
X107452380Y-63753571D01*
X107452380Y-63658333D01*
X107500000Y-63515476D01*
X107547619Y-63467857D01*
X107547619Y-63086904D02*
X107500000Y-63039285D01*
X107452380Y-62944047D01*
X107452380Y-62705952D01*
X107500000Y-62610714D01*
X107547619Y-62563095D01*
X107642857Y-62515476D01*
X107738095Y-62515476D01*
X107880952Y-62563095D01*
X108452380Y-63134523D01*
X108452380Y-62515476D01*
X107547619Y-62134523D02*
X107500000Y-62086904D01*
X107452380Y-61991666D01*
X107452380Y-61753571D01*
X107500000Y-61658333D01*
X107547619Y-61610714D01*
X107642857Y-61563095D01*
X107738095Y-61563095D01*
X107880952Y-61610714D01*
X108452380Y-62182142D01*
X108452380Y-61563095D01*
%TO.C,C46*%
X110357142Y-135817857D02*
X110404761Y-135865476D01*
X110452380Y-136008333D01*
X110452380Y-136103571D01*
X110404761Y-136246428D01*
X110309523Y-136341666D01*
X110214285Y-136389285D01*
X110023809Y-136436904D01*
X109880952Y-136436904D01*
X109690476Y-136389285D01*
X109595238Y-136341666D01*
X109500000Y-136246428D01*
X109452380Y-136103571D01*
X109452380Y-136008333D01*
X109500000Y-135865476D01*
X109547619Y-135817857D01*
X109785714Y-134960714D02*
X110452380Y-134960714D01*
X109404761Y-135198809D02*
X110119047Y-135436904D01*
X110119047Y-134817857D01*
X109452380Y-134008333D02*
X109452380Y-134198809D01*
X109500000Y-134294047D01*
X109547619Y-134341666D01*
X109690476Y-134436904D01*
X109880952Y-134484523D01*
X110261904Y-134484523D01*
X110357142Y-134436904D01*
X110404761Y-134389285D01*
X110452380Y-134294047D01*
X110452380Y-134103571D01*
X110404761Y-134008333D01*
X110357142Y-133960714D01*
X110261904Y-133913095D01*
X110023809Y-133913095D01*
X109928571Y-133960714D01*
X109880952Y-134008333D01*
X109833333Y-134103571D01*
X109833333Y-134294047D01*
X109880952Y-134389285D01*
X109928571Y-134436904D01*
X110023809Y-134484523D01*
%TO.C,C44*%
X98357142Y-169817857D02*
X98404761Y-169865476D01*
X98452380Y-170008333D01*
X98452380Y-170103571D01*
X98404761Y-170246428D01*
X98309523Y-170341666D01*
X98214285Y-170389285D01*
X98023809Y-170436904D01*
X97880952Y-170436904D01*
X97690476Y-170389285D01*
X97595238Y-170341666D01*
X97500000Y-170246428D01*
X97452380Y-170103571D01*
X97452380Y-170008333D01*
X97500000Y-169865476D01*
X97547619Y-169817857D01*
X97785714Y-168960714D02*
X98452380Y-168960714D01*
X97404761Y-169198809D02*
X98119047Y-169436904D01*
X98119047Y-168817857D01*
X97785714Y-168008333D02*
X98452380Y-168008333D01*
X97404761Y-168246428D02*
X98119047Y-168484523D01*
X98119047Y-167865476D01*
%TO.C,C19*%
X120357142Y-69467857D02*
X120404761Y-69515476D01*
X120452380Y-69658333D01*
X120452380Y-69753571D01*
X120404761Y-69896428D01*
X120309523Y-69991666D01*
X120214285Y-70039285D01*
X120023809Y-70086904D01*
X119880952Y-70086904D01*
X119690476Y-70039285D01*
X119595238Y-69991666D01*
X119500000Y-69896428D01*
X119452380Y-69753571D01*
X119452380Y-69658333D01*
X119500000Y-69515476D01*
X119547619Y-69467857D01*
X120452380Y-68515476D02*
X120452380Y-69086904D01*
X120452380Y-68801190D02*
X119452380Y-68801190D01*
X119595238Y-68896428D01*
X119690476Y-68991666D01*
X119738095Y-69086904D01*
X120452380Y-68039285D02*
X120452380Y-67848809D01*
X120404761Y-67753571D01*
X120357142Y-67705952D01*
X120214285Y-67610714D01*
X120023809Y-67563095D01*
X119642857Y-67563095D01*
X119547619Y-67610714D01*
X119500000Y-67658333D01*
X119452380Y-67753571D01*
X119452380Y-67944047D01*
X119500000Y-68039285D01*
X119547619Y-68086904D01*
X119642857Y-68134523D01*
X119880952Y-68134523D01*
X119976190Y-68086904D01*
X120023809Y-68039285D01*
X120071428Y-67944047D01*
X120071428Y-67753571D01*
X120023809Y-67658333D01*
X119976190Y-67610714D01*
X119880952Y-67563095D01*
%TO.C,C29*%
X69182142Y-85357142D02*
X69134523Y-85404761D01*
X68991666Y-85452380D01*
X68896428Y-85452380D01*
X68753571Y-85404761D01*
X68658333Y-85309523D01*
X68610714Y-85214285D01*
X68563095Y-85023809D01*
X68563095Y-84880952D01*
X68610714Y-84690476D01*
X68658333Y-84595238D01*
X68753571Y-84500000D01*
X68896428Y-84452380D01*
X68991666Y-84452380D01*
X69134523Y-84500000D01*
X69182142Y-84547619D01*
X69563095Y-84547619D02*
X69610714Y-84500000D01*
X69705952Y-84452380D01*
X69944047Y-84452380D01*
X70039285Y-84500000D01*
X70086904Y-84547619D01*
X70134523Y-84642857D01*
X70134523Y-84738095D01*
X70086904Y-84880952D01*
X69515476Y-85452380D01*
X70134523Y-85452380D01*
X70610714Y-85452380D02*
X70801190Y-85452380D01*
X70896428Y-85404761D01*
X70944047Y-85357142D01*
X71039285Y-85214285D01*
X71086904Y-85023809D01*
X71086904Y-84642857D01*
X71039285Y-84547619D01*
X70991666Y-84500000D01*
X70896428Y-84452380D01*
X70705952Y-84452380D01*
X70610714Y-84500000D01*
X70563095Y-84547619D01*
X70515476Y-84642857D01*
X70515476Y-84880952D01*
X70563095Y-84976190D01*
X70610714Y-85023809D01*
X70705952Y-85071428D01*
X70896428Y-85071428D01*
X70991666Y-85023809D01*
X71039285Y-84976190D01*
X71086904Y-84880952D01*
%TO.C,C17*%
X150532142Y-95357142D02*
X150484523Y-95404761D01*
X150341666Y-95452380D01*
X150246428Y-95452380D01*
X150103571Y-95404761D01*
X150008333Y-95309523D01*
X149960714Y-95214285D01*
X149913095Y-95023809D01*
X149913095Y-94880952D01*
X149960714Y-94690476D01*
X150008333Y-94595238D01*
X150103571Y-94500000D01*
X150246428Y-94452380D01*
X150341666Y-94452380D01*
X150484523Y-94500000D01*
X150532142Y-94547619D01*
X151484523Y-95452380D02*
X150913095Y-95452380D01*
X151198809Y-95452380D02*
X151198809Y-94452380D01*
X151103571Y-94595238D01*
X151008333Y-94690476D01*
X150913095Y-94738095D01*
X151817857Y-94452380D02*
X152484523Y-94452380D01*
X152055952Y-95452380D01*
%TO.C,C12*%
X141532142Y-107357142D02*
X141484523Y-107404761D01*
X141341666Y-107452380D01*
X141246428Y-107452380D01*
X141103571Y-107404761D01*
X141008333Y-107309523D01*
X140960714Y-107214285D01*
X140913095Y-107023809D01*
X140913095Y-106880952D01*
X140960714Y-106690476D01*
X141008333Y-106595238D01*
X141103571Y-106500000D01*
X141246428Y-106452380D01*
X141341666Y-106452380D01*
X141484523Y-106500000D01*
X141532142Y-106547619D01*
X142484523Y-107452380D02*
X141913095Y-107452380D01*
X142198809Y-107452380D02*
X142198809Y-106452380D01*
X142103571Y-106595238D01*
X142008333Y-106690476D01*
X141913095Y-106738095D01*
X142865476Y-106547619D02*
X142913095Y-106500000D01*
X143008333Y-106452380D01*
X143246428Y-106452380D01*
X143341666Y-106500000D01*
X143389285Y-106547619D01*
X143436904Y-106642857D01*
X143436904Y-106738095D01*
X143389285Y-106880952D01*
X142817857Y-107452380D01*
X143436904Y-107452380D01*
%TO.C,C36*%
X69182142Y-109357142D02*
X69134523Y-109404761D01*
X68991666Y-109452380D01*
X68896428Y-109452380D01*
X68753571Y-109404761D01*
X68658333Y-109309523D01*
X68610714Y-109214285D01*
X68563095Y-109023809D01*
X68563095Y-108880952D01*
X68610714Y-108690476D01*
X68658333Y-108595238D01*
X68753571Y-108500000D01*
X68896428Y-108452380D01*
X68991666Y-108452380D01*
X69134523Y-108500000D01*
X69182142Y-108547619D01*
X69515476Y-108452380D02*
X70134523Y-108452380D01*
X69801190Y-108833333D01*
X69944047Y-108833333D01*
X70039285Y-108880952D01*
X70086904Y-108928571D01*
X70134523Y-109023809D01*
X70134523Y-109261904D01*
X70086904Y-109357142D01*
X70039285Y-109404761D01*
X69944047Y-109452380D01*
X69658333Y-109452380D01*
X69563095Y-109404761D01*
X69515476Y-109357142D01*
X70991666Y-108452380D02*
X70801190Y-108452380D01*
X70705952Y-108500000D01*
X70658333Y-108547619D01*
X70563095Y-108690476D01*
X70515476Y-108880952D01*
X70515476Y-109261904D01*
X70563095Y-109357142D01*
X70610714Y-109404761D01*
X70705952Y-109452380D01*
X70896428Y-109452380D01*
X70991666Y-109404761D01*
X71039285Y-109357142D01*
X71086904Y-109261904D01*
X71086904Y-109023809D01*
X71039285Y-108928571D01*
X70991666Y-108880952D01*
X70896428Y-108833333D01*
X70705952Y-108833333D01*
X70610714Y-108880952D01*
X70563095Y-108928571D01*
X70515476Y-109023809D01*
%TO.C,C4*%
X83357142Y-98991666D02*
X83404761Y-99039285D01*
X83452380Y-99182142D01*
X83452380Y-99277380D01*
X83404761Y-99420238D01*
X83309523Y-99515476D01*
X83214285Y-99563095D01*
X83023809Y-99610714D01*
X82880952Y-99610714D01*
X82690476Y-99563095D01*
X82595238Y-99515476D01*
X82500000Y-99420238D01*
X82452380Y-99277380D01*
X82452380Y-99182142D01*
X82500000Y-99039285D01*
X82547619Y-98991666D01*
X82785714Y-98134523D02*
X83452380Y-98134523D01*
X82404761Y-98372619D02*
X83119047Y-98610714D01*
X83119047Y-97991666D01*
%TO.C,C24*%
X108357142Y-33467857D02*
X108404761Y-33515476D01*
X108452380Y-33658333D01*
X108452380Y-33753571D01*
X108404761Y-33896428D01*
X108309523Y-33991666D01*
X108214285Y-34039285D01*
X108023809Y-34086904D01*
X107880952Y-34086904D01*
X107690476Y-34039285D01*
X107595238Y-33991666D01*
X107500000Y-33896428D01*
X107452380Y-33753571D01*
X107452380Y-33658333D01*
X107500000Y-33515476D01*
X107547619Y-33467857D01*
X107547619Y-33086904D02*
X107500000Y-33039285D01*
X107452380Y-32944047D01*
X107452380Y-32705952D01*
X107500000Y-32610714D01*
X107547619Y-32563095D01*
X107642857Y-32515476D01*
X107738095Y-32515476D01*
X107880952Y-32563095D01*
X108452380Y-33134523D01*
X108452380Y-32515476D01*
X107785714Y-31658333D02*
X108452380Y-31658333D01*
X107404761Y-31896428D02*
X108119047Y-32134523D01*
X108119047Y-31515476D01*
%TO.C,C45*%
X96357142Y-183642857D02*
X96404761Y-183690476D01*
X96452380Y-183833333D01*
X96452380Y-183928571D01*
X96404761Y-184071428D01*
X96309523Y-184166666D01*
X96214285Y-184214285D01*
X96023809Y-184261904D01*
X95880952Y-184261904D01*
X95690476Y-184214285D01*
X95595238Y-184166666D01*
X95500000Y-184071428D01*
X95452380Y-183928571D01*
X95452380Y-183833333D01*
X95500000Y-183690476D01*
X95547619Y-183642857D01*
X95785714Y-182785714D02*
X96452380Y-182785714D01*
X95404761Y-183023809D02*
X96119047Y-183261904D01*
X96119047Y-182642857D01*
X95452380Y-181785714D02*
X95452380Y-182261904D01*
X95928571Y-182309523D01*
X95880952Y-182261904D01*
X95833333Y-182166666D01*
X95833333Y-181928571D01*
X95880952Y-181833333D01*
X95928571Y-181785714D01*
X96023809Y-181738095D01*
X96261904Y-181738095D01*
X96357142Y-181785714D01*
X96404761Y-181833333D01*
X96452380Y-181928571D01*
X96452380Y-182166666D01*
X96404761Y-182261904D01*
X96357142Y-182309523D01*
%TO.C,C28*%
X96357142Y-39467857D02*
X96404761Y-39515476D01*
X96452380Y-39658333D01*
X96452380Y-39753571D01*
X96404761Y-39896428D01*
X96309523Y-39991666D01*
X96214285Y-40039285D01*
X96023809Y-40086904D01*
X95880952Y-40086904D01*
X95690476Y-40039285D01*
X95595238Y-39991666D01*
X95500000Y-39896428D01*
X95452380Y-39753571D01*
X95452380Y-39658333D01*
X95500000Y-39515476D01*
X95547619Y-39467857D01*
X95547619Y-39086904D02*
X95500000Y-39039285D01*
X95452380Y-38944047D01*
X95452380Y-38705952D01*
X95500000Y-38610714D01*
X95547619Y-38563095D01*
X95642857Y-38515476D01*
X95738095Y-38515476D01*
X95880952Y-38563095D01*
X96452380Y-39134523D01*
X96452380Y-38515476D01*
X95880952Y-37944047D02*
X95833333Y-38039285D01*
X95785714Y-38086904D01*
X95690476Y-38134523D01*
X95642857Y-38134523D01*
X95547619Y-38086904D01*
X95500000Y-38039285D01*
X95452380Y-37944047D01*
X95452380Y-37753571D01*
X95500000Y-37658333D01*
X95547619Y-37610714D01*
X95642857Y-37563095D01*
X95690476Y-37563095D01*
X95785714Y-37610714D01*
X95833333Y-37658333D01*
X95880952Y-37753571D01*
X95880952Y-37944047D01*
X95928571Y-38039285D01*
X95976190Y-38086904D01*
X96071428Y-38134523D01*
X96261904Y-38134523D01*
X96357142Y-38086904D01*
X96404761Y-38039285D01*
X96452380Y-37944047D01*
X96452380Y-37753571D01*
X96404761Y-37658333D01*
X96357142Y-37610714D01*
X96261904Y-37563095D01*
X96071428Y-37563095D01*
X95976190Y-37610714D01*
X95928571Y-37658333D01*
X95880952Y-37753571D01*
%TO.C,C15*%
X183357142Y-109357142D02*
X183309523Y-109404761D01*
X183166666Y-109452380D01*
X183071428Y-109452380D01*
X182928571Y-109404761D01*
X182833333Y-109309523D01*
X182785714Y-109214285D01*
X182738095Y-109023809D01*
X182738095Y-108880952D01*
X182785714Y-108690476D01*
X182833333Y-108595238D01*
X182928571Y-108500000D01*
X183071428Y-108452380D01*
X183166666Y-108452380D01*
X183309523Y-108500000D01*
X183357142Y-108547619D01*
X184309523Y-109452380D02*
X183738095Y-109452380D01*
X184023809Y-109452380D02*
X184023809Y-108452380D01*
X183928571Y-108595238D01*
X183833333Y-108690476D01*
X183738095Y-108738095D01*
X185214285Y-108452380D02*
X184738095Y-108452380D01*
X184690476Y-108928571D01*
X184738095Y-108880952D01*
X184833333Y-108833333D01*
X185071428Y-108833333D01*
X185166666Y-108880952D01*
X185214285Y-108928571D01*
X185261904Y-109023809D01*
X185261904Y-109261904D01*
X185214285Y-109357142D01*
X185166666Y-109404761D01*
X185071428Y-109452380D01*
X184833333Y-109452380D01*
X184738095Y-109404761D01*
X184690476Y-109357142D01*
%TO.C,C2*%
X99658333Y-122357142D02*
X99610714Y-122404761D01*
X99467857Y-122452380D01*
X99372619Y-122452380D01*
X99229761Y-122404761D01*
X99134523Y-122309523D01*
X99086904Y-122214285D01*
X99039285Y-122023809D01*
X99039285Y-121880952D01*
X99086904Y-121690476D01*
X99134523Y-121595238D01*
X99229761Y-121500000D01*
X99372619Y-121452380D01*
X99467857Y-121452380D01*
X99610714Y-121500000D01*
X99658333Y-121547619D01*
X100039285Y-121547619D02*
X100086904Y-121500000D01*
X100182142Y-121452380D01*
X100420238Y-121452380D01*
X100515476Y-121500000D01*
X100563095Y-121547619D01*
X100610714Y-121642857D01*
X100610714Y-121738095D01*
X100563095Y-121880952D01*
X99991666Y-122452380D01*
X100610714Y-122452380D01*
%TO.C,C43*%
X98357142Y-156767857D02*
X98404761Y-156815476D01*
X98452380Y-156958333D01*
X98452380Y-157053571D01*
X98404761Y-157196428D01*
X98309523Y-157291666D01*
X98214285Y-157339285D01*
X98023809Y-157386904D01*
X97880952Y-157386904D01*
X97690476Y-157339285D01*
X97595238Y-157291666D01*
X97500000Y-157196428D01*
X97452380Y-157053571D01*
X97452380Y-156958333D01*
X97500000Y-156815476D01*
X97547619Y-156767857D01*
X97785714Y-155910714D02*
X98452380Y-155910714D01*
X97404761Y-156148809D02*
X98119047Y-156386904D01*
X98119047Y-155767857D01*
X97452380Y-155482142D02*
X97452380Y-154863095D01*
X97833333Y-155196428D01*
X97833333Y-155053571D01*
X97880952Y-154958333D01*
X97928571Y-154910714D01*
X98023809Y-154863095D01*
X98261904Y-154863095D01*
X98357142Y-154910714D01*
X98404761Y-154958333D01*
X98452380Y-155053571D01*
X98452380Y-155339285D01*
X98404761Y-155434523D01*
X98357142Y-155482142D01*
%TO.C,C13*%
X156532142Y-107357142D02*
X156484523Y-107404761D01*
X156341666Y-107452380D01*
X156246428Y-107452380D01*
X156103571Y-107404761D01*
X156008333Y-107309523D01*
X155960714Y-107214285D01*
X155913095Y-107023809D01*
X155913095Y-106880952D01*
X155960714Y-106690476D01*
X156008333Y-106595238D01*
X156103571Y-106500000D01*
X156246428Y-106452380D01*
X156341666Y-106452380D01*
X156484523Y-106500000D01*
X156532142Y-106547619D01*
X157484523Y-107452380D02*
X156913095Y-107452380D01*
X157198809Y-107452380D02*
X157198809Y-106452380D01*
X157103571Y-106595238D01*
X157008333Y-106690476D01*
X156913095Y-106738095D01*
X157817857Y-106452380D02*
X158436904Y-106452380D01*
X158103571Y-106833333D01*
X158246428Y-106833333D01*
X158341666Y-106880952D01*
X158389285Y-106928571D01*
X158436904Y-107023809D01*
X158436904Y-107261904D01*
X158389285Y-107357142D01*
X158341666Y-107404761D01*
X158246428Y-107452380D01*
X157960714Y-107452380D01*
X157865476Y-107404761D01*
X157817857Y-107357142D01*
%TO.C,C14*%
X171532142Y-107357142D02*
X171484523Y-107404761D01*
X171341666Y-107452380D01*
X171246428Y-107452380D01*
X171103571Y-107404761D01*
X171008333Y-107309523D01*
X170960714Y-107214285D01*
X170913095Y-107023809D01*
X170913095Y-106880952D01*
X170960714Y-106690476D01*
X171008333Y-106595238D01*
X171103571Y-106500000D01*
X171246428Y-106452380D01*
X171341666Y-106452380D01*
X171484523Y-106500000D01*
X171532142Y-106547619D01*
X172484523Y-107452380D02*
X171913095Y-107452380D01*
X172198809Y-107452380D02*
X172198809Y-106452380D01*
X172103571Y-106595238D01*
X172008333Y-106690476D01*
X171913095Y-106738095D01*
X173341666Y-106785714D02*
X173341666Y-107452380D01*
X173103571Y-106404761D02*
X172865476Y-107119047D01*
X173484523Y-107119047D01*
%TO.C,C25*%
X110357142Y-21642857D02*
X110404761Y-21690476D01*
X110452380Y-21833333D01*
X110452380Y-21928571D01*
X110404761Y-22071428D01*
X110309523Y-22166666D01*
X110214285Y-22214285D01*
X110023809Y-22261904D01*
X109880952Y-22261904D01*
X109690476Y-22214285D01*
X109595238Y-22166666D01*
X109500000Y-22071428D01*
X109452380Y-21928571D01*
X109452380Y-21833333D01*
X109500000Y-21690476D01*
X109547619Y-21642857D01*
X109547619Y-21261904D02*
X109500000Y-21214285D01*
X109452380Y-21119047D01*
X109452380Y-20880952D01*
X109500000Y-20785714D01*
X109547619Y-20738095D01*
X109642857Y-20690476D01*
X109738095Y-20690476D01*
X109880952Y-20738095D01*
X110452380Y-21309523D01*
X110452380Y-20690476D01*
X109452380Y-19785714D02*
X109452380Y-20261904D01*
X109928571Y-20309523D01*
X109880952Y-20261904D01*
X109833333Y-20166666D01*
X109833333Y-19928571D01*
X109880952Y-19833333D01*
X109928571Y-19785714D01*
X110023809Y-19738095D01*
X110261904Y-19738095D01*
X110357142Y-19785714D01*
X110404761Y-19833333D01*
X110452380Y-19928571D01*
X110452380Y-20166666D01*
X110404761Y-20261904D01*
X110357142Y-20309523D01*
%TO.C,C40*%
X86357142Y-150817857D02*
X86404761Y-150865476D01*
X86452380Y-151008333D01*
X86452380Y-151103571D01*
X86404761Y-151246428D01*
X86309523Y-151341666D01*
X86214285Y-151389285D01*
X86023809Y-151436904D01*
X85880952Y-151436904D01*
X85690476Y-151389285D01*
X85595238Y-151341666D01*
X85500000Y-151246428D01*
X85452380Y-151103571D01*
X85452380Y-151008333D01*
X85500000Y-150865476D01*
X85547619Y-150817857D01*
X85785714Y-149960714D02*
X86452380Y-149960714D01*
X85404761Y-150198809D02*
X86119047Y-150436904D01*
X86119047Y-149817857D01*
X85452380Y-149246428D02*
X85452380Y-149151190D01*
X85500000Y-149055952D01*
X85547619Y-149008333D01*
X85642857Y-148960714D01*
X85833333Y-148913095D01*
X86071428Y-148913095D01*
X86261904Y-148960714D01*
X86357142Y-149008333D01*
X86404761Y-149055952D01*
X86452380Y-149151190D01*
X86452380Y-149246428D01*
X86404761Y-149341666D01*
X86357142Y-149389285D01*
X86261904Y-149436904D01*
X86071428Y-149484523D01*
X85833333Y-149484523D01*
X85642857Y-149436904D01*
X85547619Y-149389285D01*
X85500000Y-149341666D01*
X85452380Y-149246428D01*
%TO.C,C23*%
X108357142Y-48467857D02*
X108404761Y-48515476D01*
X108452380Y-48658333D01*
X108452380Y-48753571D01*
X108404761Y-48896428D01*
X108309523Y-48991666D01*
X108214285Y-49039285D01*
X108023809Y-49086904D01*
X107880952Y-49086904D01*
X107690476Y-49039285D01*
X107595238Y-48991666D01*
X107500000Y-48896428D01*
X107452380Y-48753571D01*
X107452380Y-48658333D01*
X107500000Y-48515476D01*
X107547619Y-48467857D01*
X107547619Y-48086904D02*
X107500000Y-48039285D01*
X107452380Y-47944047D01*
X107452380Y-47705952D01*
X107500000Y-47610714D01*
X107547619Y-47563095D01*
X107642857Y-47515476D01*
X107738095Y-47515476D01*
X107880952Y-47563095D01*
X108452380Y-48134523D01*
X108452380Y-47515476D01*
X107452380Y-47182142D02*
X107452380Y-46563095D01*
X107833333Y-46896428D01*
X107833333Y-46753571D01*
X107880952Y-46658333D01*
X107928571Y-46610714D01*
X108023809Y-46563095D01*
X108261904Y-46563095D01*
X108357142Y-46610714D01*
X108404761Y-46658333D01*
X108452380Y-46753571D01*
X108452380Y-47039285D01*
X108404761Y-47134523D01*
X108357142Y-47182142D01*
%TO.C,C27*%
X96357142Y-54467857D02*
X96404761Y-54515476D01*
X96452380Y-54658333D01*
X96452380Y-54753571D01*
X96404761Y-54896428D01*
X96309523Y-54991666D01*
X96214285Y-55039285D01*
X96023809Y-55086904D01*
X95880952Y-55086904D01*
X95690476Y-55039285D01*
X95595238Y-54991666D01*
X95500000Y-54896428D01*
X95452380Y-54753571D01*
X95452380Y-54658333D01*
X95500000Y-54515476D01*
X95547619Y-54467857D01*
X95547619Y-54086904D02*
X95500000Y-54039285D01*
X95452380Y-53944047D01*
X95452380Y-53705952D01*
X95500000Y-53610714D01*
X95547619Y-53563095D01*
X95642857Y-53515476D01*
X95738095Y-53515476D01*
X95880952Y-53563095D01*
X96452380Y-54134523D01*
X96452380Y-53515476D01*
X95452380Y-53182142D02*
X95452380Y-52515476D01*
X96452380Y-52944047D01*
%TO.C,C47*%
X110357142Y-150817857D02*
X110404761Y-150865476D01*
X110452380Y-151008333D01*
X110452380Y-151103571D01*
X110404761Y-151246428D01*
X110309523Y-151341666D01*
X110214285Y-151389285D01*
X110023809Y-151436904D01*
X109880952Y-151436904D01*
X109690476Y-151389285D01*
X109595238Y-151341666D01*
X109500000Y-151246428D01*
X109452380Y-151103571D01*
X109452380Y-151008333D01*
X109500000Y-150865476D01*
X109547619Y-150817857D01*
X109785714Y-149960714D02*
X110452380Y-149960714D01*
X109404761Y-150198809D02*
X110119047Y-150436904D01*
X110119047Y-149817857D01*
X109452380Y-149532142D02*
X109452380Y-148865476D01*
X110452380Y-149294047D01*
%TO.C,C39*%
X86357142Y-135817857D02*
X86404761Y-135865476D01*
X86452380Y-136008333D01*
X86452380Y-136103571D01*
X86404761Y-136246428D01*
X86309523Y-136341666D01*
X86214285Y-136389285D01*
X86023809Y-136436904D01*
X85880952Y-136436904D01*
X85690476Y-136389285D01*
X85595238Y-136341666D01*
X85500000Y-136246428D01*
X85452380Y-136103571D01*
X85452380Y-136008333D01*
X85500000Y-135865476D01*
X85547619Y-135817857D01*
X85452380Y-135484523D02*
X85452380Y-134865476D01*
X85833333Y-135198809D01*
X85833333Y-135055952D01*
X85880952Y-134960714D01*
X85928571Y-134913095D01*
X86023809Y-134865476D01*
X86261904Y-134865476D01*
X86357142Y-134913095D01*
X86404761Y-134960714D01*
X86452380Y-135055952D01*
X86452380Y-135341666D01*
X86404761Y-135436904D01*
X86357142Y-135484523D01*
X86452380Y-134389285D02*
X86452380Y-134198809D01*
X86404761Y-134103571D01*
X86357142Y-134055952D01*
X86214285Y-133960714D01*
X86023809Y-133913095D01*
X85642857Y-133913095D01*
X85547619Y-133960714D01*
X85500000Y-134008333D01*
X85452380Y-134103571D01*
X85452380Y-134294047D01*
X85500000Y-134389285D01*
X85547619Y-134436904D01*
X85642857Y-134484523D01*
X85880952Y-134484523D01*
X85976190Y-134436904D01*
X86023809Y-134389285D01*
X86071428Y-134294047D01*
X86071428Y-134103571D01*
X86023809Y-134008333D01*
X85976190Y-133960714D01*
X85880952Y-133913095D01*
%TO.C,C8*%
X123357142Y-105341666D02*
X123404761Y-105389285D01*
X123452380Y-105532142D01*
X123452380Y-105627380D01*
X123404761Y-105770238D01*
X123309523Y-105865476D01*
X123214285Y-105913095D01*
X123023809Y-105960714D01*
X122880952Y-105960714D01*
X122690476Y-105913095D01*
X122595238Y-105865476D01*
X122500000Y-105770238D01*
X122452380Y-105627380D01*
X122452380Y-105532142D01*
X122500000Y-105389285D01*
X122547619Y-105341666D01*
X122880952Y-104770238D02*
X122833333Y-104865476D01*
X122785714Y-104913095D01*
X122690476Y-104960714D01*
X122642857Y-104960714D01*
X122547619Y-104913095D01*
X122500000Y-104865476D01*
X122452380Y-104770238D01*
X122452380Y-104579761D01*
X122500000Y-104484523D01*
X122547619Y-104436904D01*
X122642857Y-104389285D01*
X122690476Y-104389285D01*
X122785714Y-104436904D01*
X122833333Y-104484523D01*
X122880952Y-104579761D01*
X122880952Y-104770238D01*
X122928571Y-104865476D01*
X122976190Y-104913095D01*
X123071428Y-104960714D01*
X123261904Y-104960714D01*
X123357142Y-104913095D01*
X123404761Y-104865476D01*
X123452380Y-104770238D01*
X123452380Y-104579761D01*
X123404761Y-104484523D01*
X123357142Y-104436904D01*
X123261904Y-104389285D01*
X123071428Y-104389285D01*
X122976190Y-104436904D01*
X122928571Y-104484523D01*
X122880952Y-104579761D01*
%TO.C,1/4"*%
X128904761Y-97372380D02*
X128333333Y-97372380D01*
X128619047Y-97372380D02*
X128619047Y-96372380D01*
X128523809Y-96515238D01*
X128428571Y-96610476D01*
X128333333Y-96658095D01*
X130047619Y-96324761D02*
X129190476Y-97610476D01*
X130809523Y-96705714D02*
X130809523Y-97372380D01*
X130571428Y-96324761D02*
X130333333Y-97039047D01*
X130952380Y-97039047D01*
X131285714Y-96372380D02*
X131285714Y-96562857D01*
X131666666Y-96372380D02*
X131666666Y-96562857D01*
X101904761Y-124372380D02*
X101333333Y-124372380D01*
X101619047Y-124372380D02*
X101619047Y-123372380D01*
X101523809Y-123515238D01*
X101428571Y-123610476D01*
X101333333Y-123658095D01*
X103047619Y-123324761D02*
X102190476Y-124610476D01*
X103809523Y-123705714D02*
X103809523Y-124372380D01*
X103571428Y-123324761D02*
X103333333Y-124039047D01*
X103952380Y-124039047D01*
X104285714Y-123372380D02*
X104285714Y-123562857D01*
X104666666Y-123372380D02*
X104666666Y-123562857D01*
X74904761Y-97372380D02*
X74333333Y-97372380D01*
X74619047Y-97372380D02*
X74619047Y-96372380D01*
X74523809Y-96515238D01*
X74428571Y-96610476D01*
X74333333Y-96658095D01*
X76047619Y-96324761D02*
X75190476Y-97610476D01*
X76809523Y-96705714D02*
X76809523Y-97372380D01*
X76571428Y-96324761D02*
X76333333Y-97039047D01*
X76952380Y-97039047D01*
X77285714Y-96372380D02*
X77285714Y-96562857D01*
X77666666Y-96372380D02*
X77666666Y-96562857D01*
X101904761Y-70372380D02*
X101333333Y-70372380D01*
X101619047Y-70372380D02*
X101619047Y-69372380D01*
X101523809Y-69515238D01*
X101428571Y-69610476D01*
X101333333Y-69658095D01*
X103047619Y-69324761D02*
X102190476Y-70610476D01*
X103809523Y-69705714D02*
X103809523Y-70372380D01*
X103571428Y-69324761D02*
X103333333Y-70039047D01*
X103952380Y-70039047D01*
X104285714Y-69372380D02*
X104285714Y-69562857D01*
X104666666Y-69372380D02*
X104666666Y-69562857D01*
X101904761Y-97372380D02*
X101333333Y-97372380D01*
X101619047Y-97372380D02*
X101619047Y-96372380D01*
X101523809Y-96515238D01*
X101428571Y-96610476D01*
X101333333Y-96658095D01*
X103047619Y-96324761D02*
X102190476Y-97610476D01*
X103809523Y-96705714D02*
X103809523Y-97372380D01*
X103571428Y-96324761D02*
X103333333Y-97039047D01*
X103952380Y-97039047D01*
X104285714Y-96372380D02*
X104285714Y-96562857D01*
X104666666Y-96372380D02*
X104666666Y-96562857D01*
%TO.C,D46*%
X111952379Y-133214285D02*
X110952379Y-133214285D01*
X110952379Y-132976190D01*
X110999999Y-132833333D01*
X111095237Y-132738095D01*
X111190475Y-132690476D01*
X111380951Y-132642857D01*
X111523808Y-132642857D01*
X111714284Y-132690476D01*
X111809522Y-132738095D01*
X111904760Y-132833333D01*
X111952379Y-132976190D01*
X111952379Y-133214285D01*
X111285713Y-131785714D02*
X111952379Y-131785714D01*
X110904760Y-132023809D02*
X111619046Y-132261904D01*
X111619046Y-131642857D01*
X110952379Y-130833333D02*
X110952379Y-131023809D01*
X110999999Y-131119047D01*
X111047618Y-131166666D01*
X111190475Y-131261904D01*
X111380951Y-131309523D01*
X111761903Y-131309523D01*
X111857141Y-131261904D01*
X111904760Y-131214285D01*
X111952379Y-131119047D01*
X111952379Y-130928571D01*
X111904760Y-130833333D01*
X111857141Y-130785714D01*
X111761903Y-130738095D01*
X111523808Y-130738095D01*
X111428570Y-130785714D01*
X111380951Y-130833333D01*
X111333332Y-130928571D01*
X111333332Y-131119047D01*
X111380951Y-131214285D01*
X111428570Y-131261904D01*
X111523808Y-131309523D01*
X113852379Y-135864285D02*
X113852379Y-136435714D01*
X113852379Y-136150000D02*
X112852379Y-136150000D01*
X112995237Y-136245238D01*
X113090475Y-136340476D01*
X113138094Y-136435714D01*
%TO.C,D11*%
X161785713Y-117952380D02*
X161785713Y-116952380D01*
X162023808Y-116952380D01*
X162166665Y-117000000D01*
X162261903Y-117095238D01*
X162309522Y-117190476D01*
X162357141Y-117380952D01*
X162357141Y-117523809D01*
X162309522Y-117714285D01*
X162261903Y-117809523D01*
X162166665Y-117904761D01*
X162023808Y-117952380D01*
X161785713Y-117952380D01*
X163309522Y-117952380D02*
X162738094Y-117952380D01*
X163023808Y-117952380D02*
X163023808Y-116952380D01*
X162928570Y-117095238D01*
X162833332Y-117190476D01*
X162738094Y-117238095D01*
X164261903Y-117952380D02*
X163690475Y-117952380D01*
X163976189Y-117952380D02*
X163976189Y-116952380D01*
X163880951Y-117095238D01*
X163785713Y-117190476D01*
X163690475Y-117238095D01*
X167435713Y-116052380D02*
X166864284Y-116052380D01*
X167149999Y-116052380D02*
X167149999Y-115052380D01*
X167054760Y-115195238D01*
X166959522Y-115290476D01*
X166864284Y-115338095D01*
%TO.C,D33*%
X50785713Y-98952380D02*
X50785713Y-97952380D01*
X51023808Y-97952380D01*
X51166665Y-98000000D01*
X51261903Y-98095238D01*
X51309522Y-98190476D01*
X51357141Y-98380952D01*
X51357141Y-98523809D01*
X51309522Y-98714285D01*
X51261903Y-98809523D01*
X51166665Y-98904761D01*
X51023808Y-98952380D01*
X50785713Y-98952380D01*
X51690475Y-97952380D02*
X52309522Y-97952380D01*
X51976189Y-98333333D01*
X52119046Y-98333333D01*
X52214284Y-98380952D01*
X52261903Y-98428571D01*
X52309522Y-98523809D01*
X52309522Y-98761904D01*
X52261903Y-98857142D01*
X52214284Y-98904761D01*
X52119046Y-98952380D01*
X51833332Y-98952380D01*
X51738094Y-98904761D01*
X51690475Y-98857142D01*
X52642856Y-97952380D02*
X53261903Y-97952380D01*
X52928570Y-98333333D01*
X53071427Y-98333333D01*
X53166665Y-98380952D01*
X53214284Y-98428571D01*
X53261903Y-98523809D01*
X53261903Y-98761904D01*
X53214284Y-98857142D01*
X53166665Y-98904761D01*
X53071427Y-98952380D01*
X52785713Y-98952380D01*
X52690475Y-98904761D01*
X52642856Y-98857142D01*
X48135713Y-100852380D02*
X47564284Y-100852380D01*
X47849999Y-100852380D02*
X47849999Y-99852380D01*
X47754760Y-99995238D01*
X47659522Y-100090476D01*
X47564284Y-100138095D01*
%TO.C,D34*%
X35785713Y-98952380D02*
X35785713Y-97952380D01*
X36023808Y-97952380D01*
X36166665Y-98000000D01*
X36261903Y-98095238D01*
X36309522Y-98190476D01*
X36357141Y-98380952D01*
X36357141Y-98523809D01*
X36309522Y-98714285D01*
X36261903Y-98809523D01*
X36166665Y-98904761D01*
X36023808Y-98952380D01*
X35785713Y-98952380D01*
X36690475Y-97952380D02*
X37309522Y-97952380D01*
X36976189Y-98333333D01*
X37119046Y-98333333D01*
X37214284Y-98380952D01*
X37261903Y-98428571D01*
X37309522Y-98523809D01*
X37309522Y-98761904D01*
X37261903Y-98857142D01*
X37214284Y-98904761D01*
X37119046Y-98952380D01*
X36833332Y-98952380D01*
X36738094Y-98904761D01*
X36690475Y-98857142D01*
X38166665Y-98285714D02*
X38166665Y-98952380D01*
X37928570Y-97904761D02*
X37690475Y-98619047D01*
X38309522Y-98619047D01*
X33135713Y-100852380D02*
X32564284Y-100852380D01*
X32849999Y-100852380D02*
X32849999Y-99852380D01*
X32754760Y-99995238D01*
X32659522Y-100090476D01*
X32564284Y-100138095D01*
%TO.C,D45*%
X99952379Y-184214285D02*
X98952379Y-184214285D01*
X98952379Y-183976190D01*
X98999999Y-183833333D01*
X99095237Y-183738095D01*
X99190475Y-183690476D01*
X99380951Y-183642857D01*
X99523808Y-183642857D01*
X99714284Y-183690476D01*
X99809522Y-183738095D01*
X99904760Y-183833333D01*
X99952379Y-183976190D01*
X99952379Y-184214285D01*
X99285713Y-182785714D02*
X99952379Y-182785714D01*
X98904760Y-183023809D02*
X99619046Y-183261904D01*
X99619046Y-182642857D01*
X98952379Y-181785714D02*
X98952379Y-182261904D01*
X99428570Y-182309523D01*
X99380951Y-182261904D01*
X99333332Y-182166666D01*
X99333332Y-181928571D01*
X99380951Y-181833333D01*
X99428570Y-181785714D01*
X99523808Y-181738095D01*
X99761903Y-181738095D01*
X99857141Y-181785714D01*
X99904760Y-181833333D01*
X99952379Y-181928571D01*
X99952379Y-182166666D01*
X99904760Y-182261904D01*
X99857141Y-182309523D01*
X101852379Y-186864285D02*
X101852379Y-187435714D01*
X101852379Y-187150000D02*
X100852379Y-187150000D01*
X100995237Y-187245238D01*
X101090475Y-187340476D01*
X101138094Y-187435714D01*
%TO.C,J2*%
X117247380Y-174343333D02*
X117961666Y-174343333D01*
X118104523Y-174390952D01*
X118199761Y-174486190D01*
X118247380Y-174629047D01*
X118247380Y-174724285D01*
X117342619Y-173914761D02*
X117295000Y-173867142D01*
X117247380Y-173771904D01*
X117247380Y-173533809D01*
X117295000Y-173438571D01*
X117342619Y-173390952D01*
X117437857Y-173343333D01*
X117533095Y-173343333D01*
X117675952Y-173390952D01*
X118247380Y-173962380D01*
X118247380Y-173343333D01*
%TO.C,D8*%
X114952379Y-102738095D02*
X113952379Y-102738095D01*
X113952379Y-102500000D01*
X113999999Y-102357142D01*
X114095237Y-102261904D01*
X114190475Y-102214285D01*
X114380951Y-102166666D01*
X114523808Y-102166666D01*
X114714284Y-102214285D01*
X114809522Y-102261904D01*
X114904760Y-102357142D01*
X114952379Y-102500000D01*
X114952379Y-102738095D01*
X114380951Y-101595238D02*
X114333332Y-101690476D01*
X114285713Y-101738095D01*
X114190475Y-101785714D01*
X114142856Y-101785714D01*
X114047618Y-101738095D01*
X113999999Y-101690476D01*
X113952379Y-101595238D01*
X113952379Y-101404761D01*
X113999999Y-101309523D01*
X114047618Y-101261904D01*
X114142856Y-101214285D01*
X114190475Y-101214285D01*
X114285713Y-101261904D01*
X114333332Y-101309523D01*
X114380951Y-101404761D01*
X114380951Y-101595238D01*
X114428570Y-101690476D01*
X114476189Y-101738095D01*
X114571427Y-101785714D01*
X114761903Y-101785714D01*
X114857141Y-101738095D01*
X114904760Y-101690476D01*
X114952379Y-101595238D01*
X114952379Y-101404761D01*
X114904760Y-101309523D01*
X114857141Y-101261904D01*
X114761903Y-101214285D01*
X114571427Y-101214285D01*
X114476189Y-101261904D01*
X114428570Y-101309523D01*
X114380951Y-101404761D01*
X116852379Y-105864285D02*
X116852379Y-106435714D01*
X116852379Y-106150000D02*
X115852379Y-106150000D01*
X115995237Y-106245238D01*
X116090475Y-106340476D01*
X116138094Y-106435714D01*
%TO.C,D27*%
X94952379Y-58214285D02*
X93952379Y-58214285D01*
X93952379Y-57976190D01*
X93999999Y-57833333D01*
X94095237Y-57738095D01*
X94190475Y-57690476D01*
X94380951Y-57642857D01*
X94523808Y-57642857D01*
X94714284Y-57690476D01*
X94809522Y-57738095D01*
X94904760Y-57833333D01*
X94952379Y-57976190D01*
X94952379Y-58214285D01*
X94047618Y-57261904D02*
X93999999Y-57214285D01*
X93952379Y-57119047D01*
X93952379Y-56880952D01*
X93999999Y-56785714D01*
X94047618Y-56738095D01*
X94142856Y-56690476D01*
X94238094Y-56690476D01*
X94380951Y-56738095D01*
X94952379Y-57309523D01*
X94952379Y-56690476D01*
X93952379Y-56357142D02*
X93952379Y-55690476D01*
X94952379Y-56119047D01*
X93052379Y-52564285D02*
X93052379Y-53135714D01*
X93052379Y-52850000D02*
X92052379Y-52850000D01*
X92195237Y-52945238D01*
X92290475Y-53040476D01*
X92338094Y-53135714D01*
%TO.C,D19*%
X118952379Y-73214285D02*
X117952379Y-73214285D01*
X117952379Y-72976190D01*
X117999999Y-72833333D01*
X118095237Y-72738095D01*
X118190475Y-72690476D01*
X118380951Y-72642857D01*
X118523808Y-72642857D01*
X118714284Y-72690476D01*
X118809522Y-72738095D01*
X118904760Y-72833333D01*
X118952379Y-72976190D01*
X118952379Y-73214285D01*
X118952379Y-71690476D02*
X118952379Y-72261904D01*
X118952379Y-71976190D02*
X117952379Y-71976190D01*
X118095237Y-72071428D01*
X118190475Y-72166666D01*
X118238094Y-72261904D01*
X118952379Y-71214285D02*
X118952379Y-71023809D01*
X118904760Y-70928571D01*
X118857141Y-70880952D01*
X118714284Y-70785714D01*
X118523808Y-70738095D01*
X118142856Y-70738095D01*
X118047618Y-70785714D01*
X117999999Y-70833333D01*
X117952379Y-70928571D01*
X117952379Y-71119047D01*
X117999999Y-71214285D01*
X118047618Y-71261904D01*
X118142856Y-71309523D01*
X118380951Y-71309523D01*
X118476189Y-71261904D01*
X118523808Y-71214285D01*
X118571427Y-71119047D01*
X118571427Y-70928571D01*
X118523808Y-70833333D01*
X118476189Y-70785714D01*
X118380951Y-70738095D01*
X117052379Y-67564285D02*
X117052379Y-68135714D01*
X117052379Y-67850000D02*
X116052379Y-67850000D01*
X116195237Y-67945238D01*
X116290475Y-68040476D01*
X116338094Y-68135714D01*
%TO.C,D7*%
X111973520Y-94070302D02*
X111266414Y-94777409D01*
X111098055Y-94609050D01*
X111030711Y-94474363D01*
X111030711Y-94339676D01*
X111064383Y-94238661D01*
X111165398Y-94070302D01*
X111266414Y-93969287D01*
X111434772Y-93868272D01*
X111535788Y-93834600D01*
X111670475Y-93834600D01*
X111805162Y-93901943D01*
X111973520Y-94070302D01*
X110626650Y-94137646D02*
X110155246Y-93666241D01*
X111165398Y-93262180D01*
X115527574Y-94937349D02*
X115931635Y-95341410D01*
X115729604Y-95139380D02*
X115022497Y-95846487D01*
X115190856Y-95812815D01*
X115325543Y-95812815D01*
X115426558Y-95846487D01*
%TO.C,D4*%
X91952380Y-102738095D02*
X90952380Y-102738095D01*
X90952380Y-102500000D01*
X91000000Y-102357142D01*
X91095238Y-102261904D01*
X91190476Y-102214285D01*
X91380952Y-102166666D01*
X91523809Y-102166666D01*
X91714285Y-102214285D01*
X91809523Y-102261904D01*
X91904761Y-102357142D01*
X91952380Y-102500000D01*
X91952380Y-102738095D01*
X91285714Y-101309523D02*
X91952380Y-101309523D01*
X90904761Y-101547619D02*
X91619047Y-101785714D01*
X91619047Y-101166666D01*
X90052380Y-97564285D02*
X90052380Y-98135714D01*
X90052380Y-97850000D02*
X89052380Y-97850000D01*
X89195238Y-97945238D01*
X89290476Y-98040476D01*
X89338095Y-98135714D01*
%TO.C,D3*%
X95710064Y-110333758D02*
X95002958Y-111040865D01*
X94834599Y-110872506D01*
X94767255Y-110737819D01*
X94767255Y-110603132D01*
X94800927Y-110502117D01*
X94901942Y-110333758D01*
X95002958Y-110232743D01*
X95171316Y-110131728D01*
X95272332Y-110098056D01*
X95407019Y-110098056D01*
X95541706Y-110165399D01*
X95710064Y-110333758D01*
X94363194Y-110401102D02*
X93925461Y-109963369D01*
X94430538Y-109929697D01*
X94329522Y-109828682D01*
X94295851Y-109727666D01*
X94295851Y-109660323D01*
X94329522Y-109559308D01*
X94497881Y-109390949D01*
X94598896Y-109357277D01*
X94666240Y-109357277D01*
X94767255Y-109390949D01*
X94969286Y-109592979D01*
X95002958Y-109693995D01*
X95002958Y-109761338D01*
X90708126Y-108018825D02*
X91112187Y-108422886D01*
X90910156Y-108220856D02*
X90203049Y-108927963D01*
X90371408Y-108894291D01*
X90506095Y-108894291D01*
X90607110Y-108927963D01*
%TO.C,D35*%
X20785713Y-98952380D02*
X20785713Y-97952380D01*
X21023808Y-97952380D01*
X21166665Y-98000000D01*
X21261903Y-98095238D01*
X21309522Y-98190476D01*
X21357141Y-98380952D01*
X21357141Y-98523809D01*
X21309522Y-98714285D01*
X21261903Y-98809523D01*
X21166665Y-98904761D01*
X21023808Y-98952380D01*
X20785713Y-98952380D01*
X21690475Y-97952380D02*
X22309522Y-97952380D01*
X21976189Y-98333333D01*
X22119046Y-98333333D01*
X22214284Y-98380952D01*
X22261903Y-98428571D01*
X22309522Y-98523809D01*
X22309522Y-98761904D01*
X22261903Y-98857142D01*
X22214284Y-98904761D01*
X22119046Y-98952380D01*
X21833332Y-98952380D01*
X21738094Y-98904761D01*
X21690475Y-98857142D01*
X23214284Y-97952380D02*
X22738094Y-97952380D01*
X22690475Y-98428571D01*
X22738094Y-98380952D01*
X22833332Y-98333333D01*
X23071427Y-98333333D01*
X23166665Y-98380952D01*
X23214284Y-98428571D01*
X23261903Y-98523809D01*
X23261903Y-98761904D01*
X23214284Y-98857142D01*
X23166665Y-98904761D01*
X23071427Y-98952380D01*
X22833332Y-98952380D01*
X22738094Y-98904761D01*
X22690475Y-98857142D01*
X18135713Y-100852380D02*
X17564284Y-100852380D01*
X17849999Y-100852380D02*
X17849999Y-99852380D01*
X17754760Y-99995238D01*
X17659522Y-100090476D01*
X17564284Y-100138095D01*
%TO.C,D38*%
X41785713Y-110952380D02*
X41785713Y-109952380D01*
X42023808Y-109952380D01*
X42166665Y-110000000D01*
X42261903Y-110095238D01*
X42309522Y-110190476D01*
X42357141Y-110380952D01*
X42357141Y-110523809D01*
X42309522Y-110714285D01*
X42261903Y-110809523D01*
X42166665Y-110904761D01*
X42023808Y-110952380D01*
X41785713Y-110952380D01*
X42690475Y-109952380D02*
X43309522Y-109952380D01*
X42976189Y-110333333D01*
X43119046Y-110333333D01*
X43214284Y-110380952D01*
X43261903Y-110428571D01*
X43309522Y-110523809D01*
X43309522Y-110761904D01*
X43261903Y-110857142D01*
X43214284Y-110904761D01*
X43119046Y-110952380D01*
X42833332Y-110952380D01*
X42738094Y-110904761D01*
X42690475Y-110857142D01*
X43880951Y-110380952D02*
X43785713Y-110333333D01*
X43738094Y-110285714D01*
X43690475Y-110190476D01*
X43690475Y-110142857D01*
X43738094Y-110047619D01*
X43785713Y-110000000D01*
X43880951Y-109952380D01*
X44071427Y-109952380D01*
X44166665Y-110000000D01*
X44214284Y-110047619D01*
X44261903Y-110142857D01*
X44261903Y-110190476D01*
X44214284Y-110285714D01*
X44166665Y-110333333D01*
X44071427Y-110380952D01*
X43880951Y-110380952D01*
X43785713Y-110428571D01*
X43738094Y-110476190D01*
X43690475Y-110571428D01*
X43690475Y-110761904D01*
X43738094Y-110857142D01*
X43785713Y-110904761D01*
X43880951Y-110952380D01*
X44071427Y-110952380D01*
X44166665Y-110904761D01*
X44214284Y-110857142D01*
X44261903Y-110761904D01*
X44261903Y-110571428D01*
X44214284Y-110476190D01*
X44166665Y-110428571D01*
X44071427Y-110380952D01*
X39135713Y-112852380D02*
X38564284Y-112852380D01*
X38849999Y-112852380D02*
X38849999Y-111852380D01*
X38754760Y-111995238D01*
X38659522Y-112090476D01*
X38564284Y-112138095D01*
%TO.C,D30*%
X56785713Y-86952380D02*
X56785713Y-85952380D01*
X57023808Y-85952380D01*
X57166665Y-86000000D01*
X57261903Y-86095238D01*
X57309522Y-86190476D01*
X57357141Y-86380952D01*
X57357141Y-86523809D01*
X57309522Y-86714285D01*
X57261903Y-86809523D01*
X57166665Y-86904761D01*
X57023808Y-86952380D01*
X56785713Y-86952380D01*
X57690475Y-85952380D02*
X58309522Y-85952380D01*
X57976189Y-86333333D01*
X58119046Y-86333333D01*
X58214284Y-86380952D01*
X58261903Y-86428571D01*
X58309522Y-86523809D01*
X58309522Y-86761904D01*
X58261903Y-86857142D01*
X58214284Y-86904761D01*
X58119046Y-86952380D01*
X57833332Y-86952380D01*
X57738094Y-86904761D01*
X57690475Y-86857142D01*
X58928570Y-85952380D02*
X59023808Y-85952380D01*
X59119046Y-86000000D01*
X59166665Y-86047619D01*
X59214284Y-86142857D01*
X59261903Y-86333333D01*
X59261903Y-86571428D01*
X59214284Y-86761904D01*
X59166665Y-86857142D01*
X59119046Y-86904761D01*
X59023808Y-86952380D01*
X58928570Y-86952380D01*
X58833332Y-86904761D01*
X58785713Y-86857142D01*
X58738094Y-86761904D01*
X58690475Y-86571428D01*
X58690475Y-86333333D01*
X58738094Y-86142857D01*
X58785713Y-86047619D01*
X58833332Y-86000000D01*
X58928570Y-85952380D01*
X54135713Y-88852380D02*
X53564284Y-88852380D01*
X53849999Y-88852380D02*
X53849999Y-87852380D01*
X53754760Y-87995238D01*
X53659522Y-88090476D01*
X53564284Y-88138095D01*
%TO.C,D2*%
X102261904Y-113952380D02*
X102261904Y-112952380D01*
X102500000Y-112952380D01*
X102642857Y-113000000D01*
X102738095Y-113095238D01*
X102785714Y-113190476D01*
X102833333Y-113380952D01*
X102833333Y-113523809D01*
X102785714Y-113714285D01*
X102738095Y-113809523D01*
X102642857Y-113904761D01*
X102500000Y-113952380D01*
X102261904Y-113952380D01*
X103214285Y-113047619D02*
X103261904Y-113000000D01*
X103357142Y-112952380D01*
X103595238Y-112952380D01*
X103690476Y-113000000D01*
X103738095Y-113047619D01*
X103785714Y-113142857D01*
X103785714Y-113238095D01*
X103738095Y-113380952D01*
X103166666Y-113952380D01*
X103785714Y-113952380D01*
X99135714Y-115852380D02*
X98564285Y-115852380D01*
X98850000Y-115852380D02*
X98850000Y-114852380D01*
X98754761Y-114995238D01*
X98659523Y-115090476D01*
X98564285Y-115138095D01*
%TO.C,D26*%
X94952379Y-73214285D02*
X93952379Y-73214285D01*
X93952379Y-72976190D01*
X93999999Y-72833333D01*
X94095237Y-72738095D01*
X94190475Y-72690476D01*
X94380951Y-72642857D01*
X94523808Y-72642857D01*
X94714284Y-72690476D01*
X94809522Y-72738095D01*
X94904760Y-72833333D01*
X94952379Y-72976190D01*
X94952379Y-73214285D01*
X94047618Y-72261904D02*
X93999999Y-72214285D01*
X93952379Y-72119047D01*
X93952379Y-71880952D01*
X93999999Y-71785714D01*
X94047618Y-71738095D01*
X94142856Y-71690476D01*
X94238094Y-71690476D01*
X94380951Y-71738095D01*
X94952379Y-72309523D01*
X94952379Y-71690476D01*
X93952379Y-70833333D02*
X93952379Y-71023809D01*
X93999999Y-71119047D01*
X94047618Y-71166666D01*
X94190475Y-71261904D01*
X94380951Y-71309523D01*
X94761903Y-71309523D01*
X94857141Y-71261904D01*
X94904760Y-71214285D01*
X94952379Y-71119047D01*
X94952379Y-70928571D01*
X94904760Y-70833333D01*
X94857141Y-70785714D01*
X94761903Y-70738095D01*
X94523808Y-70738095D01*
X94428570Y-70785714D01*
X94380951Y-70833333D01*
X94333332Y-70928571D01*
X94333332Y-71119047D01*
X94380951Y-71214285D01*
X94428570Y-71261904D01*
X94523808Y-71309523D01*
X93052379Y-67564285D02*
X93052379Y-68135714D01*
X93052379Y-67850000D02*
X92052379Y-67850000D01*
X92195237Y-67945238D01*
X92290475Y-68040476D01*
X92338094Y-68135714D01*
%TO.C,D12*%
X137785713Y-105952380D02*
X137785713Y-104952380D01*
X138023808Y-104952380D01*
X138166665Y-105000000D01*
X138261903Y-105095238D01*
X138309522Y-105190476D01*
X138357141Y-105380952D01*
X138357141Y-105523809D01*
X138309522Y-105714285D01*
X138261903Y-105809523D01*
X138166665Y-105904761D01*
X138023808Y-105952380D01*
X137785713Y-105952380D01*
X139309522Y-105952380D02*
X138738094Y-105952380D01*
X139023808Y-105952380D02*
X139023808Y-104952380D01*
X138928570Y-105095238D01*
X138833332Y-105190476D01*
X138738094Y-105238095D01*
X139690475Y-105047619D02*
X139738094Y-105000000D01*
X139833332Y-104952380D01*
X140071427Y-104952380D01*
X140166665Y-105000000D01*
X140214284Y-105047619D01*
X140261903Y-105142857D01*
X140261903Y-105238095D01*
X140214284Y-105380952D01*
X139642856Y-105952380D01*
X140261903Y-105952380D01*
X143435713Y-104052380D02*
X142864284Y-104052380D01*
X143149999Y-104052380D02*
X143149999Y-103052380D01*
X143054760Y-103195238D01*
X142959522Y-103290476D01*
X142864284Y-103338095D01*
%TO.C,D15*%
X182785713Y-105952380D02*
X182785713Y-104952380D01*
X183023808Y-104952380D01*
X183166665Y-105000000D01*
X183261903Y-105095238D01*
X183309522Y-105190476D01*
X183357141Y-105380952D01*
X183357141Y-105523809D01*
X183309522Y-105714285D01*
X183261903Y-105809523D01*
X183166665Y-105904761D01*
X183023808Y-105952380D01*
X182785713Y-105952380D01*
X184309522Y-105952380D02*
X183738094Y-105952380D01*
X184023808Y-105952380D02*
X184023808Y-104952380D01*
X183928570Y-105095238D01*
X183833332Y-105190476D01*
X183738094Y-105238095D01*
X185214284Y-104952380D02*
X184738094Y-104952380D01*
X184690475Y-105428571D01*
X184738094Y-105380952D01*
X184833332Y-105333333D01*
X185071427Y-105333333D01*
X185166665Y-105380952D01*
X185214284Y-105428571D01*
X185261903Y-105523809D01*
X185261903Y-105761904D01*
X185214284Y-105857142D01*
X185166665Y-105904761D01*
X185071427Y-105952380D01*
X184833332Y-105952380D01*
X184738094Y-105904761D01*
X184690475Y-105857142D01*
X188435713Y-104052380D02*
X187864284Y-104052380D01*
X188149999Y-104052380D02*
X188149999Y-103052380D01*
X188054760Y-103195238D01*
X187959522Y-103290476D01*
X187864284Y-103338095D01*
%TO.C,D5*%
X94666240Y-94710065D02*
X93959133Y-94002959D01*
X94127492Y-93834600D01*
X94262179Y-93767256D01*
X94396866Y-93767256D01*
X94497881Y-93800928D01*
X94666240Y-93901943D01*
X94767255Y-94002959D01*
X94868271Y-94171317D01*
X94901942Y-94272333D01*
X94901942Y-94407020D01*
X94834599Y-94541707D01*
X94666240Y-94710065D01*
X95002958Y-92959134D02*
X94666240Y-93295852D01*
X94969286Y-93666241D01*
X94969286Y-93598897D01*
X95002958Y-93497882D01*
X95171316Y-93329523D01*
X95272332Y-93295852D01*
X95339675Y-93295852D01*
X95440690Y-93329523D01*
X95609049Y-93497882D01*
X95642721Y-93598897D01*
X95642721Y-93666241D01*
X95609049Y-93767256D01*
X95440690Y-93935615D01*
X95339675Y-93969287D01*
X95272332Y-93969287D01*
X96981173Y-89708127D02*
X96577112Y-90112188D01*
X96779142Y-89910157D02*
X96072035Y-89203050D01*
X96105707Y-89371409D01*
X96105707Y-89506096D01*
X96072035Y-89607111D01*
%TO.C,D23*%
X106952379Y-52214285D02*
X105952379Y-52214285D01*
X105952379Y-51976190D01*
X105999999Y-51833333D01*
X106095237Y-51738095D01*
X106190475Y-51690476D01*
X106380951Y-51642857D01*
X106523808Y-51642857D01*
X106714284Y-51690476D01*
X106809522Y-51738095D01*
X106904760Y-51833333D01*
X106952379Y-51976190D01*
X106952379Y-52214285D01*
X106047618Y-51261904D02*
X105999999Y-51214285D01*
X105952379Y-51119047D01*
X105952379Y-50880952D01*
X105999999Y-50785714D01*
X106047618Y-50738095D01*
X106142856Y-50690476D01*
X106238094Y-50690476D01*
X106380951Y-50738095D01*
X106952379Y-51309523D01*
X106952379Y-50690476D01*
X105952379Y-50357142D02*
X105952379Y-49738095D01*
X106333332Y-50071428D01*
X106333332Y-49928571D01*
X106380951Y-49833333D01*
X106428570Y-49785714D01*
X106523808Y-49738095D01*
X106761903Y-49738095D01*
X106857141Y-49785714D01*
X106904760Y-49833333D01*
X106952379Y-49928571D01*
X106952379Y-50214285D01*
X106904760Y-50309523D01*
X106857141Y-50357142D01*
X105052379Y-46564285D02*
X105052379Y-47135714D01*
X105052379Y-46850000D02*
X104052379Y-46850000D01*
X104195237Y-46945238D01*
X104290475Y-47040476D01*
X104338094Y-47135714D01*
%TO.C,D10*%
X146785713Y-117952380D02*
X146785713Y-116952380D01*
X147023808Y-116952380D01*
X147166665Y-117000000D01*
X147261903Y-117095238D01*
X147309522Y-117190476D01*
X147357141Y-117380952D01*
X147357141Y-117523809D01*
X147309522Y-117714285D01*
X147261903Y-117809523D01*
X147166665Y-117904761D01*
X147023808Y-117952380D01*
X146785713Y-117952380D01*
X148309522Y-117952380D02*
X147738094Y-117952380D01*
X148023808Y-117952380D02*
X148023808Y-116952380D01*
X147928570Y-117095238D01*
X147833332Y-117190476D01*
X147738094Y-117238095D01*
X148928570Y-116952380D02*
X149023808Y-116952380D01*
X149119046Y-117000000D01*
X149166665Y-117047619D01*
X149214284Y-117142857D01*
X149261903Y-117333333D01*
X149261903Y-117571428D01*
X149214284Y-117761904D01*
X149166665Y-117857142D01*
X149119046Y-117904761D01*
X149023808Y-117952380D01*
X148928570Y-117952380D01*
X148833332Y-117904761D01*
X148785713Y-117857142D01*
X148738094Y-117761904D01*
X148690475Y-117571428D01*
X148690475Y-117333333D01*
X148738094Y-117142857D01*
X148785713Y-117047619D01*
X148833332Y-117000000D01*
X148928570Y-116952380D01*
X152435713Y-116052380D02*
X151864284Y-116052380D01*
X152149999Y-116052380D02*
X152149999Y-115052380D01*
X152054760Y-115195238D01*
X151959522Y-115290476D01*
X151864284Y-115338095D01*
%TO.C,D48*%
X111952379Y-163214285D02*
X110952379Y-163214285D01*
X110952379Y-162976190D01*
X110999999Y-162833333D01*
X111095237Y-162738095D01*
X111190475Y-162690476D01*
X111380951Y-162642857D01*
X111523808Y-162642857D01*
X111714284Y-162690476D01*
X111809522Y-162738095D01*
X111904760Y-162833333D01*
X111952379Y-162976190D01*
X111952379Y-163214285D01*
X111285713Y-161785714D02*
X111952379Y-161785714D01*
X110904760Y-162023809D02*
X111619046Y-162261904D01*
X111619046Y-161642857D01*
X111380951Y-161119047D02*
X111333332Y-161214285D01*
X111285713Y-161261904D01*
X111190475Y-161309523D01*
X111142856Y-161309523D01*
X111047618Y-161261904D01*
X110999999Y-161214285D01*
X110952379Y-161119047D01*
X110952379Y-160928571D01*
X110999999Y-160833333D01*
X111047618Y-160785714D01*
X111142856Y-160738095D01*
X111190475Y-160738095D01*
X111285713Y-160785714D01*
X111333332Y-160833333D01*
X111380951Y-160928571D01*
X111380951Y-161119047D01*
X111428570Y-161214285D01*
X111476189Y-161261904D01*
X111571427Y-161309523D01*
X111761903Y-161309523D01*
X111857141Y-161261904D01*
X111904760Y-161214285D01*
X111952379Y-161119047D01*
X111952379Y-160928571D01*
X111904760Y-160833333D01*
X111857141Y-160785714D01*
X111761903Y-160738095D01*
X111571427Y-160738095D01*
X111476189Y-160785714D01*
X111428570Y-160833333D01*
X111380951Y-160928571D01*
X113852379Y-165864285D02*
X113852379Y-166435714D01*
X113852379Y-166150000D02*
X112852379Y-166150000D01*
X112995237Y-166245238D01*
X113090475Y-166340476D01*
X113138094Y-166435714D01*
%TO.C,D6*%
X102261904Y-90952380D02*
X102261904Y-89952380D01*
X102500000Y-89952380D01*
X102642857Y-90000000D01*
X102738095Y-90095238D01*
X102785714Y-90190476D01*
X102833333Y-90380952D01*
X102833333Y-90523809D01*
X102785714Y-90714285D01*
X102738095Y-90809523D01*
X102642857Y-90904761D01*
X102500000Y-90952380D01*
X102261904Y-90952380D01*
X103690476Y-89952380D02*
X103500000Y-89952380D01*
X103404761Y-90000000D01*
X103357142Y-90047619D01*
X103261904Y-90190476D01*
X103214285Y-90380952D01*
X103214285Y-90761904D01*
X103261904Y-90857142D01*
X103309523Y-90904761D01*
X103404761Y-90952380D01*
X103595238Y-90952380D01*
X103690476Y-90904761D01*
X103738095Y-90857142D01*
X103785714Y-90761904D01*
X103785714Y-90523809D01*
X103738095Y-90428571D01*
X103690476Y-90380952D01*
X103595238Y-90333333D01*
X103404761Y-90333333D01*
X103309523Y-90380952D01*
X103261904Y-90428571D01*
X103214285Y-90523809D01*
X107435714Y-89052380D02*
X106864285Y-89052380D01*
X107150000Y-89052380D02*
X107150000Y-88052380D01*
X107054761Y-88195238D01*
X106959523Y-88290476D01*
X106864285Y-88338095D01*
%TO.C,D43*%
X99952379Y-154214285D02*
X98952379Y-154214285D01*
X98952379Y-153976190D01*
X98999999Y-153833333D01*
X99095237Y-153738095D01*
X99190475Y-153690476D01*
X99380951Y-153642857D01*
X99523808Y-153642857D01*
X99714284Y-153690476D01*
X99809522Y-153738095D01*
X99904760Y-153833333D01*
X99952379Y-153976190D01*
X99952379Y-154214285D01*
X99285713Y-152785714D02*
X99952379Y-152785714D01*
X98904760Y-153023809D02*
X99619046Y-153261904D01*
X99619046Y-152642857D01*
X98952379Y-152357142D02*
X98952379Y-151738095D01*
X99333332Y-152071428D01*
X99333332Y-151928571D01*
X99380951Y-151833333D01*
X99428570Y-151785714D01*
X99523808Y-151738095D01*
X99761903Y-151738095D01*
X99857141Y-151785714D01*
X99904760Y-151833333D01*
X99952379Y-151928571D01*
X99952379Y-152214285D01*
X99904760Y-152309523D01*
X99857141Y-152357142D01*
X101852379Y-156864285D02*
X101852379Y-157435714D01*
X101852379Y-157150000D02*
X100852379Y-157150000D01*
X100995237Y-157245238D01*
X101090475Y-157340476D01*
X101138094Y-157435714D01*
%TO.C,D32*%
X65785713Y-98952380D02*
X65785713Y-97952380D01*
X66023808Y-97952380D01*
X66166665Y-98000000D01*
X66261903Y-98095238D01*
X66309522Y-98190476D01*
X66357141Y-98380952D01*
X66357141Y-98523809D01*
X66309522Y-98714285D01*
X66261903Y-98809523D01*
X66166665Y-98904761D01*
X66023808Y-98952380D01*
X65785713Y-98952380D01*
X66690475Y-97952380D02*
X67309522Y-97952380D01*
X66976189Y-98333333D01*
X67119046Y-98333333D01*
X67214284Y-98380952D01*
X67261903Y-98428571D01*
X67309522Y-98523809D01*
X67309522Y-98761904D01*
X67261903Y-98857142D01*
X67214284Y-98904761D01*
X67119046Y-98952380D01*
X66833332Y-98952380D01*
X66738094Y-98904761D01*
X66690475Y-98857142D01*
X67690475Y-98047619D02*
X67738094Y-98000000D01*
X67833332Y-97952380D01*
X68071427Y-97952380D01*
X68166665Y-98000000D01*
X68214284Y-98047619D01*
X68261903Y-98142857D01*
X68261903Y-98238095D01*
X68214284Y-98380952D01*
X67642856Y-98952380D01*
X68261903Y-98952380D01*
X63135713Y-100852380D02*
X62564284Y-100852380D01*
X62849999Y-100852380D02*
X62849999Y-99852380D01*
X62754760Y-99995238D01*
X62659522Y-100090476D01*
X62564284Y-100138095D01*
%TO.C,D40*%
X87952379Y-148214285D02*
X86952379Y-148214285D01*
X86952379Y-147976190D01*
X86999999Y-147833333D01*
X87095237Y-147738095D01*
X87190475Y-147690476D01*
X87380951Y-147642857D01*
X87523808Y-147642857D01*
X87714284Y-147690476D01*
X87809522Y-147738095D01*
X87904760Y-147833333D01*
X87952379Y-147976190D01*
X87952379Y-148214285D01*
X87285713Y-146785714D02*
X87952379Y-146785714D01*
X86904760Y-147023809D02*
X87619046Y-147261904D01*
X87619046Y-146642857D01*
X86952379Y-146071428D02*
X86952379Y-145976190D01*
X86999999Y-145880952D01*
X87047618Y-145833333D01*
X87142856Y-145785714D01*
X87333332Y-145738095D01*
X87571427Y-145738095D01*
X87761903Y-145785714D01*
X87857141Y-145833333D01*
X87904760Y-145880952D01*
X87952379Y-145976190D01*
X87952379Y-146071428D01*
X87904760Y-146166666D01*
X87857141Y-146214285D01*
X87761903Y-146261904D01*
X87571427Y-146309523D01*
X87333332Y-146309523D01*
X87142856Y-146261904D01*
X87047618Y-146214285D01*
X86999999Y-146166666D01*
X86952379Y-146071428D01*
X89852379Y-150864285D02*
X89852379Y-151435714D01*
X89852379Y-151150000D02*
X88852379Y-151150000D01*
X88995237Y-151245238D01*
X89090475Y-151340476D01*
X89138094Y-151435714D01*
%TO.C,J1*%
X97247380Y-174343333D02*
X97961666Y-174343333D01*
X98104523Y-174390952D01*
X98199761Y-174486190D01*
X98247380Y-174629047D01*
X98247380Y-174724285D01*
X98247380Y-173343333D02*
X98247380Y-173914761D01*
X98247380Y-173629047D02*
X97247380Y-173629047D01*
X97390238Y-173724285D01*
X97485476Y-173819523D01*
X97533095Y-173914761D01*
%TO.C,D18*%
X161785713Y-93952380D02*
X161785713Y-92952380D01*
X162023808Y-92952380D01*
X162166665Y-93000000D01*
X162261903Y-93095238D01*
X162309522Y-93190476D01*
X162357141Y-93380952D01*
X162357141Y-93523809D01*
X162309522Y-93714285D01*
X162261903Y-93809523D01*
X162166665Y-93904761D01*
X162023808Y-93952380D01*
X161785713Y-93952380D01*
X163309522Y-93952380D02*
X162738094Y-93952380D01*
X163023808Y-93952380D02*
X163023808Y-92952380D01*
X162928570Y-93095238D01*
X162833332Y-93190476D01*
X162738094Y-93238095D01*
X163880951Y-93380952D02*
X163785713Y-93333333D01*
X163738094Y-93285714D01*
X163690475Y-93190476D01*
X163690475Y-93142857D01*
X163738094Y-93047619D01*
X163785713Y-93000000D01*
X163880951Y-92952380D01*
X164071427Y-92952380D01*
X164166665Y-93000000D01*
X164214284Y-93047619D01*
X164261903Y-93142857D01*
X164261903Y-93190476D01*
X164214284Y-93285714D01*
X164166665Y-93333333D01*
X164071427Y-93380952D01*
X163880951Y-93380952D01*
X163785713Y-93428571D01*
X163738094Y-93476190D01*
X163690475Y-93571428D01*
X163690475Y-93761904D01*
X163738094Y-93857142D01*
X163785713Y-93904761D01*
X163880951Y-93952380D01*
X164071427Y-93952380D01*
X164166665Y-93904761D01*
X164214284Y-93857142D01*
X164261903Y-93761904D01*
X164261903Y-93571428D01*
X164214284Y-93476190D01*
X164166665Y-93428571D01*
X164071427Y-93380952D01*
X167435713Y-92052380D02*
X166864284Y-92052380D01*
X167149999Y-92052380D02*
X167149999Y-91052380D01*
X167054760Y-91195238D01*
X166959522Y-91290476D01*
X166864284Y-91338095D01*
%TO.C,D29*%
X71785713Y-86952380D02*
X71785713Y-85952380D01*
X72023808Y-85952380D01*
X72166665Y-86000000D01*
X72261903Y-86095238D01*
X72309522Y-86190476D01*
X72357141Y-86380952D01*
X72357141Y-86523809D01*
X72309522Y-86714285D01*
X72261903Y-86809523D01*
X72166665Y-86904761D01*
X72023808Y-86952380D01*
X71785713Y-86952380D01*
X72738094Y-86047619D02*
X72785713Y-86000000D01*
X72880951Y-85952380D01*
X73119046Y-85952380D01*
X73214284Y-86000000D01*
X73261903Y-86047619D01*
X73309522Y-86142857D01*
X73309522Y-86238095D01*
X73261903Y-86380952D01*
X72690475Y-86952380D01*
X73309522Y-86952380D01*
X73785713Y-86952380D02*
X73976189Y-86952380D01*
X74071427Y-86904761D01*
X74119046Y-86857142D01*
X74214284Y-86714285D01*
X74261903Y-86523809D01*
X74261903Y-86142857D01*
X74214284Y-86047619D01*
X74166665Y-86000000D01*
X74071427Y-85952380D01*
X73880951Y-85952380D01*
X73785713Y-86000000D01*
X73738094Y-86047619D01*
X73690475Y-86142857D01*
X73690475Y-86380952D01*
X73738094Y-86476190D01*
X73785713Y-86523809D01*
X73880951Y-86571428D01*
X74071427Y-86571428D01*
X74166665Y-86523809D01*
X74214284Y-86476190D01*
X74261903Y-86380952D01*
X69135713Y-88852380D02*
X68564284Y-88852380D01*
X68849999Y-88852380D02*
X68849999Y-87852380D01*
X68754760Y-87995238D01*
X68659522Y-88090476D01*
X68564284Y-88138095D01*
%TO.C,D37*%
X56785713Y-110952380D02*
X56785713Y-109952380D01*
X57023808Y-109952380D01*
X57166665Y-110000000D01*
X57261903Y-110095238D01*
X57309522Y-110190476D01*
X57357141Y-110380952D01*
X57357141Y-110523809D01*
X57309522Y-110714285D01*
X57261903Y-110809523D01*
X57166665Y-110904761D01*
X57023808Y-110952380D01*
X56785713Y-110952380D01*
X57690475Y-109952380D02*
X58309522Y-109952380D01*
X57976189Y-110333333D01*
X58119046Y-110333333D01*
X58214284Y-110380952D01*
X58261903Y-110428571D01*
X58309522Y-110523809D01*
X58309522Y-110761904D01*
X58261903Y-110857142D01*
X58214284Y-110904761D01*
X58119046Y-110952380D01*
X57833332Y-110952380D01*
X57738094Y-110904761D01*
X57690475Y-110857142D01*
X58642856Y-109952380D02*
X59309522Y-109952380D01*
X58880951Y-110952380D01*
X54135713Y-112852380D02*
X53564284Y-112852380D01*
X53849999Y-112852380D02*
X53849999Y-111852380D01*
X53754760Y-111995238D01*
X53659522Y-112090476D01*
X53564284Y-112138095D01*
%TO.C,D24*%
X106952379Y-37214285D02*
X105952379Y-37214285D01*
X105952379Y-36976190D01*
X105999999Y-36833333D01*
X106095237Y-36738095D01*
X106190475Y-36690476D01*
X106380951Y-36642857D01*
X106523808Y-36642857D01*
X106714284Y-36690476D01*
X106809522Y-36738095D01*
X106904760Y-36833333D01*
X106952379Y-36976190D01*
X106952379Y-37214285D01*
X106047618Y-36261904D02*
X105999999Y-36214285D01*
X105952379Y-36119047D01*
X105952379Y-35880952D01*
X105999999Y-35785714D01*
X106047618Y-35738095D01*
X106142856Y-35690476D01*
X106238094Y-35690476D01*
X106380951Y-35738095D01*
X106952379Y-36309523D01*
X106952379Y-35690476D01*
X106285713Y-34833333D02*
X106952379Y-34833333D01*
X105904760Y-35071428D02*
X106619046Y-35309523D01*
X106619046Y-34690476D01*
X105052379Y-31564285D02*
X105052379Y-32135714D01*
X105052379Y-31850000D02*
X104052379Y-31850000D01*
X104195237Y-31945238D01*
X104290475Y-32040476D01*
X104338094Y-32135714D01*
%TO.C,D17*%
X146785713Y-93952380D02*
X146785713Y-92952380D01*
X147023808Y-92952380D01*
X147166665Y-93000000D01*
X147261903Y-93095238D01*
X147309522Y-93190476D01*
X147357141Y-93380952D01*
X147357141Y-93523809D01*
X147309522Y-93714285D01*
X147261903Y-93809523D01*
X147166665Y-93904761D01*
X147023808Y-93952380D01*
X146785713Y-93952380D01*
X148309522Y-93952380D02*
X147738094Y-93952380D01*
X148023808Y-93952380D02*
X148023808Y-92952380D01*
X147928570Y-93095238D01*
X147833332Y-93190476D01*
X147738094Y-93238095D01*
X148642856Y-92952380D02*
X149309522Y-92952380D01*
X148880951Y-93952380D01*
X152435713Y-92052380D02*
X151864284Y-92052380D01*
X152149999Y-92052380D02*
X152149999Y-91052380D01*
X152054760Y-91195238D01*
X151959522Y-91290476D01*
X151864284Y-91338095D01*
%TO.C,D21*%
X118952379Y-43214285D02*
X117952379Y-43214285D01*
X117952379Y-42976190D01*
X117999999Y-42833333D01*
X118095237Y-42738095D01*
X118190475Y-42690476D01*
X118380951Y-42642857D01*
X118523808Y-42642857D01*
X118714284Y-42690476D01*
X118809522Y-42738095D01*
X118904760Y-42833333D01*
X118952379Y-42976190D01*
X118952379Y-43214285D01*
X118047618Y-42261904D02*
X117999999Y-42214285D01*
X117952379Y-42119047D01*
X117952379Y-41880952D01*
X117999999Y-41785714D01*
X118047618Y-41738095D01*
X118142856Y-41690476D01*
X118238094Y-41690476D01*
X118380951Y-41738095D01*
X118952379Y-42309523D01*
X118952379Y-41690476D01*
X118952379Y-40738095D02*
X118952379Y-41309523D01*
X118952379Y-41023809D02*
X117952379Y-41023809D01*
X118095237Y-41119047D01*
X118190475Y-41214285D01*
X118238094Y-41309523D01*
X117052379Y-37564285D02*
X117052379Y-38135714D01*
X117052379Y-37850000D02*
X116052379Y-37850000D01*
X116195237Y-37945238D01*
X116290475Y-38040476D01*
X116338094Y-38135714D01*
%TO.C,D36*%
X71785713Y-110952380D02*
X71785713Y-109952380D01*
X72023808Y-109952380D01*
X72166665Y-110000000D01*
X72261903Y-110095238D01*
X72309522Y-110190476D01*
X72357141Y-110380952D01*
X72357141Y-110523809D01*
X72309522Y-110714285D01*
X72261903Y-110809523D01*
X72166665Y-110904761D01*
X72023808Y-110952380D01*
X71785713Y-110952380D01*
X72690475Y-109952380D02*
X73309522Y-109952380D01*
X72976189Y-110333333D01*
X73119046Y-110333333D01*
X73214284Y-110380952D01*
X73261903Y-110428571D01*
X73309522Y-110523809D01*
X73309522Y-110761904D01*
X73261903Y-110857142D01*
X73214284Y-110904761D01*
X73119046Y-110952380D01*
X72833332Y-110952380D01*
X72738094Y-110904761D01*
X72690475Y-110857142D01*
X74166665Y-109952380D02*
X73976189Y-109952380D01*
X73880951Y-110000000D01*
X73833332Y-110047619D01*
X73738094Y-110190476D01*
X73690475Y-110380952D01*
X73690475Y-110761904D01*
X73738094Y-110857142D01*
X73785713Y-110904761D01*
X73880951Y-110952380D01*
X74071427Y-110952380D01*
X74166665Y-110904761D01*
X74214284Y-110857142D01*
X74261903Y-110761904D01*
X74261903Y-110523809D01*
X74214284Y-110428571D01*
X74166665Y-110380952D01*
X74071427Y-110333333D01*
X73880951Y-110333333D01*
X73785713Y-110380952D01*
X73738094Y-110428571D01*
X73690475Y-110523809D01*
X69135713Y-112852380D02*
X68564284Y-112852380D01*
X68849999Y-112852380D02*
X68849999Y-111852380D01*
X68754760Y-111995238D01*
X68659522Y-112090476D01*
X68564284Y-112138095D01*
%TO.C,D39*%
X87952379Y-133214285D02*
X86952379Y-133214285D01*
X86952379Y-132976190D01*
X86999999Y-132833333D01*
X87095237Y-132738095D01*
X87190475Y-132690476D01*
X87380951Y-132642857D01*
X87523808Y-132642857D01*
X87714284Y-132690476D01*
X87809522Y-132738095D01*
X87904760Y-132833333D01*
X87952379Y-132976190D01*
X87952379Y-133214285D01*
X86952379Y-132309523D02*
X86952379Y-131690476D01*
X87333332Y-132023809D01*
X87333332Y-131880952D01*
X87380951Y-131785714D01*
X87428570Y-131738095D01*
X87523808Y-131690476D01*
X87761903Y-131690476D01*
X87857141Y-131738095D01*
X87904760Y-131785714D01*
X87952379Y-131880952D01*
X87952379Y-132166666D01*
X87904760Y-132261904D01*
X87857141Y-132309523D01*
X87952379Y-131214285D02*
X87952379Y-131023809D01*
X87904760Y-130928571D01*
X87857141Y-130880952D01*
X87714284Y-130785714D01*
X87523808Y-130738095D01*
X87142856Y-130738095D01*
X87047618Y-130785714D01*
X86999999Y-130833333D01*
X86952379Y-130928571D01*
X86952379Y-131119047D01*
X86999999Y-131214285D01*
X87047618Y-131261904D01*
X87142856Y-131309523D01*
X87380951Y-131309523D01*
X87476189Y-131261904D01*
X87523808Y-131214285D01*
X87571427Y-131119047D01*
X87571427Y-130928571D01*
X87523808Y-130833333D01*
X87476189Y-130785714D01*
X87380951Y-130738095D01*
X89852379Y-135864285D02*
X89852379Y-136435714D01*
X89852379Y-136150000D02*
X88852379Y-136150000D01*
X88995237Y-136245238D01*
X89090475Y-136340476D01*
X89138094Y-136435714D01*
%TO.C,D42*%
X99952379Y-139214285D02*
X98952379Y-139214285D01*
X98952379Y-138976190D01*
X98999999Y-138833333D01*
X99095237Y-138738095D01*
X99190475Y-138690476D01*
X99380951Y-138642857D01*
X99523808Y-138642857D01*
X99714284Y-138690476D01*
X99809522Y-138738095D01*
X99904760Y-138833333D01*
X99952379Y-138976190D01*
X99952379Y-139214285D01*
X99285713Y-137785714D02*
X99952379Y-137785714D01*
X98904760Y-138023809D02*
X99619046Y-138261904D01*
X99619046Y-137642857D01*
X99047618Y-137309523D02*
X98999999Y-137261904D01*
X98952379Y-137166666D01*
X98952379Y-136928571D01*
X98999999Y-136833333D01*
X99047618Y-136785714D01*
X99142856Y-136738095D01*
X99238094Y-136738095D01*
X99380951Y-136785714D01*
X99952379Y-137357142D01*
X99952379Y-136738095D01*
X101852379Y-141864285D02*
X101852379Y-142435714D01*
X101852379Y-142150000D02*
X100852379Y-142150000D01*
X100995237Y-142245238D01*
X101090475Y-142340476D01*
X101138094Y-142435714D01*
%TO.C,D47*%
X111952379Y-148214285D02*
X110952379Y-148214285D01*
X110952379Y-147976190D01*
X110999999Y-147833333D01*
X111095237Y-147738095D01*
X111190475Y-147690476D01*
X111380951Y-147642857D01*
X111523808Y-147642857D01*
X111714284Y-147690476D01*
X111809522Y-147738095D01*
X111904760Y-147833333D01*
X111952379Y-147976190D01*
X111952379Y-148214285D01*
X111285713Y-146785714D02*
X111952379Y-146785714D01*
X110904760Y-147023809D02*
X111619046Y-147261904D01*
X111619046Y-146642857D01*
X110952379Y-146357142D02*
X110952379Y-145690476D01*
X111952379Y-146119047D01*
X113852379Y-150864285D02*
X113852379Y-151435714D01*
X113852379Y-151150000D02*
X112852379Y-151150000D01*
X112995237Y-151245238D01*
X113090475Y-151340476D01*
X113138094Y-151435714D01*
%TO.C,D9*%
X132261903Y-117952380D02*
X132261903Y-116952380D01*
X132499999Y-116952380D01*
X132642856Y-117000000D01*
X132738094Y-117095238D01*
X132785713Y-117190476D01*
X132833332Y-117380952D01*
X132833332Y-117523809D01*
X132785713Y-117714285D01*
X132738094Y-117809523D01*
X132642856Y-117904761D01*
X132499999Y-117952380D01*
X132261903Y-117952380D01*
X133309522Y-117952380D02*
X133499999Y-117952380D01*
X133595237Y-117904761D01*
X133642856Y-117857142D01*
X133738094Y-117714285D01*
X133785713Y-117523809D01*
X133785713Y-117142857D01*
X133738094Y-117047619D01*
X133690475Y-117000000D01*
X133595237Y-116952380D01*
X133404760Y-116952380D01*
X133309522Y-117000000D01*
X133261903Y-117047619D01*
X133214284Y-117142857D01*
X133214284Y-117380952D01*
X133261903Y-117476190D01*
X133309522Y-117523809D01*
X133404760Y-117571428D01*
X133595237Y-117571428D01*
X133690475Y-117523809D01*
X133738094Y-117476190D01*
X133785713Y-117380952D01*
X137435713Y-116052380D02*
X136864284Y-116052380D01*
X137149999Y-116052380D02*
X137149999Y-115052380D01*
X137054760Y-115195238D01*
X136959522Y-115290476D01*
X136864284Y-115338095D01*
%TO.C,D25*%
X106952379Y-22214285D02*
X105952379Y-22214285D01*
X105952379Y-21976190D01*
X105999999Y-21833333D01*
X106095237Y-21738095D01*
X106190475Y-21690476D01*
X106380951Y-21642857D01*
X106523808Y-21642857D01*
X106714284Y-21690476D01*
X106809522Y-21738095D01*
X106904760Y-21833333D01*
X106952379Y-21976190D01*
X106952379Y-22214285D01*
X106047618Y-21261904D02*
X105999999Y-21214285D01*
X105952379Y-21119047D01*
X105952379Y-20880952D01*
X105999999Y-20785714D01*
X106047618Y-20738095D01*
X106142856Y-20690476D01*
X106238094Y-20690476D01*
X106380951Y-20738095D01*
X106952379Y-21309523D01*
X106952379Y-20690476D01*
X105952379Y-19785714D02*
X105952379Y-20261904D01*
X106428570Y-20309523D01*
X106380951Y-20261904D01*
X106333332Y-20166666D01*
X106333332Y-19928571D01*
X106380951Y-19833333D01*
X106428570Y-19785714D01*
X106523808Y-19738095D01*
X106761903Y-19738095D01*
X106857141Y-19785714D01*
X106904760Y-19833333D01*
X106952379Y-19928571D01*
X106952379Y-20166666D01*
X106904760Y-20261904D01*
X106857141Y-20309523D01*
X105052379Y-16564285D02*
X105052379Y-17135714D01*
X105052379Y-16850000D02*
X104052379Y-16850000D01*
X104195237Y-16945238D01*
X104290475Y-17040476D01*
X104338094Y-17135714D01*
%TO.C,D14*%
X167785713Y-105952380D02*
X167785713Y-104952380D01*
X168023808Y-104952380D01*
X168166665Y-105000000D01*
X168261903Y-105095238D01*
X168309522Y-105190476D01*
X168357141Y-105380952D01*
X168357141Y-105523809D01*
X168309522Y-105714285D01*
X168261903Y-105809523D01*
X168166665Y-105904761D01*
X168023808Y-105952380D01*
X167785713Y-105952380D01*
X169309522Y-105952380D02*
X168738094Y-105952380D01*
X169023808Y-105952380D02*
X169023808Y-104952380D01*
X168928570Y-105095238D01*
X168833332Y-105190476D01*
X168738094Y-105238095D01*
X170166665Y-105285714D02*
X170166665Y-105952380D01*
X169928570Y-104904761D02*
X169690475Y-105619047D01*
X170309522Y-105619047D01*
X173435713Y-104052380D02*
X172864284Y-104052380D01*
X173149999Y-104052380D02*
X173149999Y-103052380D01*
X173054760Y-103195238D01*
X172959522Y-103290476D01*
X172864284Y-103338095D01*
%TO.C,D28*%
X94952379Y-43214285D02*
X93952379Y-43214285D01*
X93952379Y-42976190D01*
X93999999Y-42833333D01*
X94095237Y-42738095D01*
X94190475Y-42690476D01*
X94380951Y-42642857D01*
X94523808Y-42642857D01*
X94714284Y-42690476D01*
X94809522Y-42738095D01*
X94904760Y-42833333D01*
X94952379Y-42976190D01*
X94952379Y-43214285D01*
X94047618Y-42261904D02*
X93999999Y-42214285D01*
X93952379Y-42119047D01*
X93952379Y-41880952D01*
X93999999Y-41785714D01*
X94047618Y-41738095D01*
X94142856Y-41690476D01*
X94238094Y-41690476D01*
X94380951Y-41738095D01*
X94952379Y-42309523D01*
X94952379Y-41690476D01*
X94380951Y-41119047D02*
X94333332Y-41214285D01*
X94285713Y-41261904D01*
X94190475Y-41309523D01*
X94142856Y-41309523D01*
X94047618Y-41261904D01*
X93999999Y-41214285D01*
X93952379Y-41119047D01*
X93952379Y-40928571D01*
X93999999Y-40833333D01*
X94047618Y-40785714D01*
X94142856Y-40738095D01*
X94190475Y-40738095D01*
X94285713Y-40785714D01*
X94333332Y-40833333D01*
X94380951Y-40928571D01*
X94380951Y-41119047D01*
X94428570Y-41214285D01*
X94476189Y-41261904D01*
X94571427Y-41309523D01*
X94761903Y-41309523D01*
X94857141Y-41261904D01*
X94904760Y-41214285D01*
X94952379Y-41119047D01*
X94952379Y-40928571D01*
X94904760Y-40833333D01*
X94857141Y-40785714D01*
X94761903Y-40738095D01*
X94571427Y-40738095D01*
X94476189Y-40785714D01*
X94428570Y-40833333D01*
X94380951Y-40928571D01*
X93052379Y-37564285D02*
X93052379Y-38135714D01*
X93052379Y-37850000D02*
X92052379Y-37850000D01*
X92195237Y-37945238D01*
X92290475Y-38040476D01*
X92338094Y-38135714D01*
%TO.C,D1*%
X110929696Y-110973521D02*
X110222589Y-110266415D01*
X110390948Y-110098056D01*
X110525635Y-110030712D01*
X110660322Y-110030712D01*
X110761337Y-110064384D01*
X110929696Y-110165399D01*
X111030711Y-110266415D01*
X111131727Y-110434773D01*
X111165398Y-110535789D01*
X111165398Y-110670476D01*
X111098055Y-110805163D01*
X110929696Y-110973521D01*
X112007192Y-109896025D02*
X111603131Y-110300086D01*
X111805162Y-110098056D02*
X111098055Y-109390949D01*
X111131727Y-109559308D01*
X111131727Y-109693995D01*
X111098055Y-109795010D01*
X110062649Y-114527575D02*
X109658588Y-114931636D01*
X109860618Y-114729605D02*
X109153511Y-114022498D01*
X109187183Y-114190857D01*
X109187183Y-114325544D01*
X109153511Y-114426559D01*
%TO.C,D31*%
X41785713Y-86952380D02*
X41785713Y-85952380D01*
X42023808Y-85952380D01*
X42166665Y-86000000D01*
X42261903Y-86095238D01*
X42309522Y-86190476D01*
X42357141Y-86380952D01*
X42357141Y-86523809D01*
X42309522Y-86714285D01*
X42261903Y-86809523D01*
X42166665Y-86904761D01*
X42023808Y-86952380D01*
X41785713Y-86952380D01*
X42690475Y-85952380D02*
X43309522Y-85952380D01*
X42976189Y-86333333D01*
X43119046Y-86333333D01*
X43214284Y-86380952D01*
X43261903Y-86428571D01*
X43309522Y-86523809D01*
X43309522Y-86761904D01*
X43261903Y-86857142D01*
X43214284Y-86904761D01*
X43119046Y-86952380D01*
X42833332Y-86952380D01*
X42738094Y-86904761D01*
X42690475Y-86857142D01*
X44261903Y-86952380D02*
X43690475Y-86952380D01*
X43976189Y-86952380D02*
X43976189Y-85952380D01*
X43880951Y-86095238D01*
X43785713Y-86190476D01*
X43690475Y-86238095D01*
X39135713Y-88852380D02*
X38564284Y-88852380D01*
X38849999Y-88852380D02*
X38849999Y-87852380D01*
X38754760Y-87995238D01*
X38659522Y-88090476D01*
X38564284Y-88138095D01*
%TO.C,D13*%
X152785713Y-105952380D02*
X152785713Y-104952380D01*
X153023808Y-104952380D01*
X153166665Y-105000000D01*
X153261903Y-105095238D01*
X153309522Y-105190476D01*
X153357141Y-105380952D01*
X153357141Y-105523809D01*
X153309522Y-105714285D01*
X153261903Y-105809523D01*
X153166665Y-105904761D01*
X153023808Y-105952380D01*
X152785713Y-105952380D01*
X154309522Y-105952380D02*
X153738094Y-105952380D01*
X154023808Y-105952380D02*
X154023808Y-104952380D01*
X153928570Y-105095238D01*
X153833332Y-105190476D01*
X153738094Y-105238095D01*
X154642856Y-104952380D02*
X155261903Y-104952380D01*
X154928570Y-105333333D01*
X155071427Y-105333333D01*
X155166665Y-105380952D01*
X155214284Y-105428571D01*
X155261903Y-105523809D01*
X155261903Y-105761904D01*
X155214284Y-105857142D01*
X155166665Y-105904761D01*
X155071427Y-105952380D01*
X154785713Y-105952380D01*
X154690475Y-105904761D01*
X154642856Y-105857142D01*
X158435713Y-104052380D02*
X157864284Y-104052380D01*
X158149999Y-104052380D02*
X158149999Y-103052380D01*
X158054760Y-103195238D01*
X157959522Y-103290476D01*
X157864284Y-103338095D01*
%TO.C,D41*%
X87952379Y-163214285D02*
X86952379Y-163214285D01*
X86952379Y-162976190D01*
X86999999Y-162833333D01*
X87095237Y-162738095D01*
X87190475Y-162690476D01*
X87380951Y-162642857D01*
X87523808Y-162642857D01*
X87714284Y-162690476D01*
X87809522Y-162738095D01*
X87904760Y-162833333D01*
X87952379Y-162976190D01*
X87952379Y-163214285D01*
X87285713Y-161785714D02*
X87952379Y-161785714D01*
X86904760Y-162023809D02*
X87619046Y-162261904D01*
X87619046Y-161642857D01*
X87952379Y-160738095D02*
X87952379Y-161309523D01*
X87952379Y-161023809D02*
X86952379Y-161023809D01*
X87095237Y-161119047D01*
X87190475Y-161214285D01*
X87238094Y-161309523D01*
X89852379Y-165864285D02*
X89852379Y-166435714D01*
X89852379Y-166150000D02*
X88852379Y-166150000D01*
X88995237Y-166245238D01*
X89090475Y-166340476D01*
X89138094Y-166435714D01*
%TO.C,D44*%
X99952379Y-169214285D02*
X98952379Y-169214285D01*
X98952379Y-168976190D01*
X98999999Y-168833333D01*
X99095237Y-168738095D01*
X99190475Y-168690476D01*
X99380951Y-168642857D01*
X99523808Y-168642857D01*
X99714284Y-168690476D01*
X99809522Y-168738095D01*
X99904760Y-168833333D01*
X99952379Y-168976190D01*
X99952379Y-169214285D01*
X99285713Y-167785714D02*
X99952379Y-167785714D01*
X98904760Y-168023809D02*
X99619046Y-168261904D01*
X99619046Y-167642857D01*
X99285713Y-166833333D02*
X99952379Y-166833333D01*
X98904760Y-167071428D02*
X99619046Y-167309523D01*
X99619046Y-166690476D01*
X101852379Y-171864285D02*
X101852379Y-172435714D01*
X101852379Y-172150000D02*
X100852379Y-172150000D01*
X100995237Y-172245238D01*
X101090475Y-172340476D01*
X101138094Y-172435714D01*
%TO.C,D22*%
X106952379Y-67214285D02*
X105952379Y-67214285D01*
X105952379Y-66976190D01*
X105999999Y-66833333D01*
X106095237Y-66738095D01*
X106190475Y-66690476D01*
X106380951Y-66642857D01*
X106523808Y-66642857D01*
X106714284Y-66690476D01*
X106809522Y-66738095D01*
X106904760Y-66833333D01*
X106952379Y-66976190D01*
X106952379Y-67214285D01*
X106047618Y-66261904D02*
X105999999Y-66214285D01*
X105952379Y-66119047D01*
X105952379Y-65880952D01*
X105999999Y-65785714D01*
X106047618Y-65738095D01*
X106142856Y-65690476D01*
X106238094Y-65690476D01*
X106380951Y-65738095D01*
X106952379Y-66309523D01*
X106952379Y-65690476D01*
X106047618Y-65309523D02*
X105999999Y-65261904D01*
X105952379Y-65166666D01*
X105952379Y-64928571D01*
X105999999Y-64833333D01*
X106047618Y-64785714D01*
X106142856Y-64738095D01*
X106238094Y-64738095D01*
X106380951Y-64785714D01*
X106952379Y-65357142D01*
X106952379Y-64738095D01*
X105052379Y-61564285D02*
X105052379Y-62135714D01*
X105052379Y-61850000D02*
X104052379Y-61850000D01*
X104195237Y-61945238D01*
X104290475Y-62040476D01*
X104338094Y-62135714D01*
%TO.C,D16*%
X131785713Y-93952380D02*
X131785713Y-92952380D01*
X132023808Y-92952380D01*
X132166665Y-93000000D01*
X132261903Y-93095238D01*
X132309522Y-93190476D01*
X132357141Y-93380952D01*
X132357141Y-93523809D01*
X132309522Y-93714285D01*
X132261903Y-93809523D01*
X132166665Y-93904761D01*
X132023808Y-93952380D01*
X131785713Y-93952380D01*
X133309522Y-93952380D02*
X132738094Y-93952380D01*
X133023808Y-93952380D02*
X133023808Y-92952380D01*
X132928570Y-93095238D01*
X132833332Y-93190476D01*
X132738094Y-93238095D01*
X134166665Y-92952380D02*
X133976189Y-92952380D01*
X133880951Y-93000000D01*
X133833332Y-93047619D01*
X133738094Y-93190476D01*
X133690475Y-93380952D01*
X133690475Y-93761904D01*
X133738094Y-93857142D01*
X133785713Y-93904761D01*
X133880951Y-93952380D01*
X134071427Y-93952380D01*
X134166665Y-93904761D01*
X134214284Y-93857142D01*
X134261903Y-93761904D01*
X134261903Y-93523809D01*
X134214284Y-93428571D01*
X134166665Y-93380952D01*
X134071427Y-93333333D01*
X133880951Y-93333333D01*
X133785713Y-93380952D01*
X133738094Y-93428571D01*
X133690475Y-93523809D01*
X137435713Y-92052380D02*
X136864284Y-92052380D01*
X137149999Y-92052380D02*
X137149999Y-91052380D01*
X137054760Y-91195238D01*
X136959522Y-91290476D01*
X136864284Y-91338095D01*
%TO.C,D20*%
X118952379Y-58214285D02*
X117952379Y-58214285D01*
X117952379Y-57976190D01*
X117999999Y-57833333D01*
X118095237Y-57738095D01*
X118190475Y-57690476D01*
X118380951Y-57642857D01*
X118523808Y-57642857D01*
X118714284Y-57690476D01*
X118809522Y-57738095D01*
X118904760Y-57833333D01*
X118952379Y-57976190D01*
X118952379Y-58214285D01*
X118047618Y-57261904D02*
X117999999Y-57214285D01*
X117952379Y-57119047D01*
X117952379Y-56880952D01*
X117999999Y-56785714D01*
X118047618Y-56738095D01*
X118142856Y-56690476D01*
X118238094Y-56690476D01*
X118380951Y-56738095D01*
X118952379Y-57309523D01*
X118952379Y-56690476D01*
X117952379Y-56071428D02*
X117952379Y-55976190D01*
X117999999Y-55880952D01*
X118047618Y-55833333D01*
X118142856Y-55785714D01*
X118333332Y-55738095D01*
X118571427Y-55738095D01*
X118761903Y-55785714D01*
X118857141Y-55833333D01*
X118904760Y-55880952D01*
X118952379Y-55976190D01*
X118952379Y-56071428D01*
X118904760Y-56166666D01*
X118857141Y-56214285D01*
X118761903Y-56261904D01*
X118571427Y-56309523D01*
X118333332Y-56309523D01*
X118142856Y-56261904D01*
X118047618Y-56214285D01*
X117999999Y-56166666D01*
X117952379Y-56071428D01*
X117052379Y-52564285D02*
X117052379Y-53135714D01*
X117052379Y-52850000D02*
X116052379Y-52850000D01*
X116195237Y-52945238D01*
X116290475Y-53040476D01*
X116338094Y-53135714D01*
D11*
%TO.C,C9*%
X132738748Y-119735000D02*
X133261252Y-119735000D01*
X132738748Y-118265000D02*
X133261252Y-118265000D01*
%TO.C,C26*%
X96735000Y-72261252D02*
X96735000Y-71738748D01*
X95265000Y-72261252D02*
X95265000Y-71738748D01*
%TO.C,C30*%
X58261252Y-84265000D02*
X57738748Y-84265000D01*
X58261252Y-85735000D02*
X57738748Y-85735000D01*
%TO.C,C16*%
X132738748Y-95735000D02*
X133261252Y-95735000D01*
X132738748Y-94265000D02*
X133261252Y-94265000D01*
%TO.C,C18*%
X162738748Y-95735000D02*
X163261252Y-95735000D01*
X162738748Y-94265000D02*
X163261252Y-94265000D01*
%TO.C,C35*%
X22211252Y-96265000D02*
X21688748Y-96265000D01*
X22211252Y-97735000D02*
X21688748Y-97735000D01*
%TO.C,C34*%
X37211252Y-96265000D02*
X36688748Y-96265000D01*
X37211252Y-97735000D02*
X36688748Y-97735000D01*
%TO.C,C7*%
X117261252Y-86265000D02*
X116738748Y-86265000D01*
X117261252Y-87735000D02*
X116738748Y-87735000D01*
%TO.C,C20*%
X120735000Y-57261252D02*
X120735000Y-56738748D01*
X119265000Y-57261252D02*
X119265000Y-56738748D01*
%TO.C,C41*%
X85265000Y-161738748D02*
X85265000Y-162261252D01*
X86735000Y-161738748D02*
X86735000Y-162261252D01*
%TO.C,C1*%
X117735000Y-117261252D02*
X117735000Y-116738748D01*
X116265000Y-117261252D02*
X116265000Y-116738748D01*
%TO.C,C31*%
X43261252Y-84265000D02*
X42738748Y-84265000D01*
X43261252Y-85735000D02*
X42738748Y-85735000D01*
%TO.C,C33*%
X52211252Y-96265000D02*
X51688748Y-96265000D01*
X52211252Y-97735000D02*
X51688748Y-97735000D01*
%TO.C,C5*%
X88265000Y-86738748D02*
X88265000Y-87261252D01*
X89735000Y-86738748D02*
X89735000Y-87261252D01*
%TO.C,C10*%
X147738748Y-119735000D02*
X148261252Y-119735000D01*
X147738748Y-118265000D02*
X148261252Y-118265000D01*
%TO.C,C32*%
X67211252Y-96265000D02*
X66688748Y-96265000D01*
X67211252Y-97735000D02*
X66688748Y-97735000D01*
%TO.C,C42*%
X97265000Y-137688748D02*
X97265000Y-138211252D01*
X98735000Y-137688748D02*
X98735000Y-138211252D01*
%TO.C,C3*%
X89735000Y-117261252D02*
X89735000Y-116738748D01*
X88265000Y-117261252D02*
X88265000Y-116738748D01*
%TO.C,C21*%
X120735000Y-42261252D02*
X120735000Y-41738748D01*
X119265000Y-42261252D02*
X119265000Y-41738748D01*
%TO.C,C48*%
X109265000Y-161738748D02*
X109265000Y-162261252D01*
X110735000Y-161738748D02*
X110735000Y-162261252D01*
%TO.C,C11*%
X162738748Y-119735000D02*
X163261252Y-119735000D01*
X162738748Y-118265000D02*
X163261252Y-118265000D01*
%TO.C,C6*%
X102738748Y-82735000D02*
X103261252Y-82735000D01*
X102738748Y-81265000D02*
X103261252Y-81265000D01*
%TO.C,C38*%
X43261252Y-108265000D02*
X42738748Y-108265000D01*
X43261252Y-109735000D02*
X42738748Y-109735000D01*
%TO.C,C37*%
X58261252Y-108265000D02*
X57738748Y-108265000D01*
X58261252Y-109735000D02*
X57738748Y-109735000D01*
%TO.C,C22*%
X108735000Y-66261252D02*
X108735000Y-65738748D01*
X107265000Y-66261252D02*
X107265000Y-65738748D01*
%TO.C,C46*%
X109265000Y-131738748D02*
X109265000Y-132261252D01*
X110735000Y-131738748D02*
X110735000Y-132261252D01*
%TO.C,C44*%
X97265000Y-165738748D02*
X97265000Y-166261252D01*
X98735000Y-165738748D02*
X98735000Y-166261252D01*
%TO.C,C19*%
X120735000Y-72261252D02*
X120735000Y-71738748D01*
X119265000Y-72261252D02*
X119265000Y-71738748D01*
%TO.C,C29*%
X73261252Y-84265000D02*
X72738748Y-84265000D01*
X73261252Y-85735000D02*
X72738748Y-85735000D01*
%TO.C,C17*%
X147738748Y-95735000D02*
X148261252Y-95735000D01*
X147738748Y-94265000D02*
X148261252Y-94265000D01*
%TO.C,C12*%
X138738748Y-107735000D02*
X139261252Y-107735000D01*
X138738748Y-106265000D02*
X139261252Y-106265000D01*
%TO.C,C36*%
X73261252Y-108265000D02*
X72738748Y-108265000D01*
X73261252Y-109735000D02*
X72738748Y-109735000D01*
%TO.C,C4*%
X83735000Y-102261252D02*
X83735000Y-101738748D01*
X82265000Y-102261252D02*
X82265000Y-101738748D01*
%TO.C,C24*%
X108735000Y-36261252D02*
X108735000Y-35738748D01*
X107265000Y-36261252D02*
X107265000Y-35738748D01*
%TO.C,C45*%
X97265000Y-182688748D02*
X97265000Y-183211252D01*
X98735000Y-182688748D02*
X98735000Y-183211252D01*
%TO.C,C28*%
X96735000Y-42261252D02*
X96735000Y-41738748D01*
X95265000Y-42261252D02*
X95265000Y-41738748D01*
%TO.C,C15*%
X183738748Y-107735000D02*
X184261252Y-107735000D01*
X183738748Y-106265000D02*
X184261252Y-106265000D01*
%TO.C,C2*%
X103261252Y-121265000D02*
X102738748Y-121265000D01*
X103261252Y-122735000D02*
X102738748Y-122735000D01*
%TO.C,C43*%
X97265000Y-152688748D02*
X97265000Y-153211252D01*
X98735000Y-152688748D02*
X98735000Y-153211252D01*
%TO.C,C13*%
X153738748Y-107735000D02*
X154261252Y-107735000D01*
X153738748Y-106265000D02*
X154261252Y-106265000D01*
%TO.C,C14*%
X168738748Y-107735000D02*
X169261252Y-107735000D01*
X168738748Y-106265000D02*
X169261252Y-106265000D01*
%TO.C,C25*%
X108735000Y-21261252D02*
X108735000Y-20738748D01*
X107265000Y-21261252D02*
X107265000Y-20738748D01*
%TO.C,C40*%
X85265000Y-146738748D02*
X85265000Y-147261252D01*
X86735000Y-146738748D02*
X86735000Y-147261252D01*
%TO.C,C23*%
X108735000Y-51261252D02*
X108735000Y-50738748D01*
X107265000Y-51261252D02*
X107265000Y-50738748D01*
%TO.C,C27*%
X96735000Y-57261252D02*
X96735000Y-56738748D01*
X95265000Y-57261252D02*
X95265000Y-56738748D01*
%TO.C,C47*%
X109265000Y-146738748D02*
X109265000Y-147261252D01*
X110735000Y-146738748D02*
X110735000Y-147261252D01*
%TO.C,C39*%
X85265000Y-131738748D02*
X85265000Y-132261252D01*
X86735000Y-131738748D02*
X86735000Y-132261252D01*
%TO.C,C8*%
X122265000Y-101738748D02*
X122265000Y-102261252D01*
X123735000Y-101738748D02*
X123735000Y-102261252D01*
%TO.C,D46*%
X112249999Y-135650000D02*
X112249999Y-128350000D01*
X117749999Y-135650000D02*
X117749999Y-128350000D01*
X117749999Y-128350000D02*
X116599999Y-128350000D01*
%TO.C,D11*%
X166649999Y-116750000D02*
X159349999Y-116750000D01*
X166649999Y-111250000D02*
X159349999Y-111250000D01*
X159349999Y-111250000D02*
X159349999Y-112400000D01*
%TO.C,D33*%
X48349999Y-99250000D02*
X55649999Y-99250000D01*
X48349999Y-104750000D02*
X55649999Y-104750000D01*
X55649999Y-104750000D02*
X55649999Y-103600000D01*
%TO.C,D34*%
X33349999Y-99250000D02*
X40649999Y-99250000D01*
X33349999Y-104750000D02*
X40649999Y-104750000D01*
X40649999Y-104750000D02*
X40649999Y-103600000D01*
%TO.C,D45*%
X100249999Y-186650000D02*
X100249999Y-179350000D01*
X105749999Y-186650000D02*
X105749999Y-179350000D01*
X105749999Y-179350000D02*
X104599999Y-179350000D01*
%TO.C,J2*%
X115725000Y-173725000D02*
X115725000Y-179725000D01*
X115905000Y-170735000D02*
X115905000Y-171065000D01*
X112605000Y-179725000D02*
X112605000Y-173725000D01*
X110825000Y-170667929D02*
X110825000Y-171065000D01*
X115485000Y-173725000D02*
X115485000Y-179725000D01*
X115905000Y-173725000D02*
X115905000Y-179725000D01*
X109115000Y-173725000D02*
X116855000Y-173725000D01*
X113365000Y-179725000D02*
X112605000Y-179725000D01*
X115145000Y-170735000D02*
X115145000Y-171065000D01*
X113365000Y-173725000D02*
X113365000Y-179725000D01*
X110825000Y-173725000D02*
X110825000Y-179725000D01*
X115905000Y-179725000D02*
X115145000Y-179725000D01*
X116855000Y-173725000D02*
X116855000Y-171065000D01*
X110825000Y-179725000D02*
X110065000Y-179725000D01*
X113365000Y-170667929D02*
X113365000Y-171065000D01*
X115245000Y-173725000D02*
X115245000Y-179725000D01*
X115525000Y-168355000D02*
X116795000Y-168355000D01*
X110065000Y-170667929D02*
X110065000Y-171065000D01*
X116855000Y-171065000D02*
X109115000Y-171065000D01*
X115605000Y-173725000D02*
X115605000Y-179725000D01*
X111715000Y-171065000D02*
X111715000Y-173725000D01*
X115845000Y-173725000D02*
X115845000Y-179725000D01*
X110065000Y-179725000D02*
X110065000Y-173725000D01*
X116795000Y-168355000D02*
X116795000Y-169625000D01*
X115145000Y-179725000D02*
X115145000Y-173725000D01*
X114255000Y-171065000D02*
X114255000Y-173725000D01*
X115365000Y-173725000D02*
X115365000Y-179725000D01*
X112605000Y-170667929D02*
X112605000Y-171065000D01*
X109115000Y-171065000D02*
X109115000Y-173725000D01*
%TO.C,D8*%
X115249999Y-105650000D02*
X115249999Y-98350000D01*
X120749999Y-105650000D02*
X120749999Y-98350000D01*
X120749999Y-98350000D02*
X119599999Y-98350000D01*
%TO.C,D27*%
X93749999Y-53350000D02*
X93749999Y-60650000D01*
X88249999Y-53350000D02*
X88249999Y-60650000D01*
X88249999Y-60650000D02*
X89399999Y-60650000D01*
%TO.C,D19*%
X117749999Y-68350000D02*
X117749999Y-75650000D01*
X112249999Y-68350000D02*
X112249999Y-75650000D01*
X112249999Y-75650000D02*
X113399999Y-75650000D01*
%TO.C,D7*%
X114242997Y-95918881D02*
X109081118Y-90757002D01*
X118132084Y-92029794D02*
X112970205Y-86867915D01*
X112970205Y-86867915D02*
X112157032Y-87681087D01*
%TO.C,D4*%
X90750000Y-98350000D02*
X90750000Y-105650000D01*
X85250000Y-98350000D02*
X85250000Y-105650000D01*
X85250000Y-105650000D02*
X86400000Y-105650000D01*
%TO.C,D3*%
X91757001Y-108081119D02*
X96918880Y-113242998D01*
X87867914Y-111970206D02*
X93029793Y-117132085D01*
X93029793Y-117132085D02*
X93842966Y-116318913D01*
%TO.C,D35*%
X18349999Y-99250000D02*
X25649999Y-99250000D01*
X18349999Y-104750000D02*
X25649999Y-104750000D01*
X25649999Y-104750000D02*
X25649999Y-103600000D01*
%TO.C,D38*%
X39349999Y-111250000D02*
X46649999Y-111250000D01*
X39349999Y-116750000D02*
X46649999Y-116750000D01*
X46649999Y-116750000D02*
X46649999Y-115600000D01*
%TO.C,D30*%
X54349999Y-87250000D02*
X61649999Y-87250000D01*
X54349999Y-92750000D02*
X61649999Y-92750000D01*
X61649999Y-92750000D02*
X61649999Y-91600000D01*
%TO.C,D2*%
X99350000Y-114250000D02*
X106650000Y-114250000D01*
X99350000Y-119750000D02*
X106650000Y-119750000D01*
X106650000Y-119750000D02*
X106650000Y-118600000D01*
%TO.C,D26*%
X93749999Y-68350000D02*
X93749999Y-75650000D01*
X88249999Y-68350000D02*
X88249999Y-75650000D01*
X88249999Y-75650000D02*
X89399999Y-75650000D01*
%TO.C,D12*%
X142649999Y-104750000D02*
X135349999Y-104750000D01*
X142649999Y-99250000D02*
X135349999Y-99250000D01*
X135349999Y-99250000D02*
X135349999Y-100400000D01*
%TO.C,D15*%
X187649999Y-104750000D02*
X180349999Y-104750000D01*
X187649999Y-99250000D02*
X180349999Y-99250000D01*
X180349999Y-99250000D02*
X180349999Y-100400000D01*
%TO.C,D5*%
X96918880Y-90757002D02*
X91757001Y-95918881D01*
X93029793Y-86867915D02*
X87867914Y-92029794D01*
X87867914Y-92029794D02*
X88681086Y-92842967D01*
%TO.C,D23*%
X105749999Y-47350000D02*
X105749999Y-54650000D01*
X100249999Y-47350000D02*
X100249999Y-54650000D01*
X100249999Y-54650000D02*
X101399999Y-54650000D01*
%TO.C,D10*%
X151649999Y-116750000D02*
X144349999Y-116750000D01*
X151649999Y-111250000D02*
X144349999Y-111250000D01*
X144349999Y-111250000D02*
X144349999Y-112400000D01*
%TO.C,D48*%
X112249999Y-165650000D02*
X112249999Y-158350000D01*
X117749999Y-165650000D02*
X117749999Y-158350000D01*
X117749999Y-158350000D02*
X116599999Y-158350000D01*
%TO.C,D6*%
X106650000Y-89750000D02*
X99350000Y-89750000D01*
X106650000Y-84250000D02*
X99350000Y-84250000D01*
X99350000Y-84250000D02*
X99350000Y-85400000D01*
%TO.C,D43*%
X100249999Y-156650000D02*
X100249999Y-149350000D01*
X105749999Y-156650000D02*
X105749999Y-149350000D01*
X105749999Y-149350000D02*
X104599999Y-149350000D01*
%TO.C,D32*%
X63349999Y-99250000D02*
X70649999Y-99250000D01*
X63349999Y-104750000D02*
X70649999Y-104750000D01*
X70649999Y-104750000D02*
X70649999Y-103600000D01*
%TO.C,D40*%
X88249999Y-150650000D02*
X88249999Y-143350000D01*
X93749999Y-150650000D02*
X93749999Y-143350000D01*
X93749999Y-143350000D02*
X92599999Y-143350000D01*
%TO.C,J1*%
X95725000Y-173725000D02*
X95725000Y-179725000D01*
X95905000Y-170735000D02*
X95905000Y-171065000D01*
X92605000Y-179725000D02*
X92605000Y-173725000D01*
X90825000Y-170667929D02*
X90825000Y-171065000D01*
X95485000Y-173725000D02*
X95485000Y-179725000D01*
X95905000Y-173725000D02*
X95905000Y-179725000D01*
X89115000Y-173725000D02*
X96855000Y-173725000D01*
X93365000Y-179725000D02*
X92605000Y-179725000D01*
X95145000Y-170735000D02*
X95145000Y-171065000D01*
X93365000Y-173725000D02*
X93365000Y-179725000D01*
X90825000Y-173725000D02*
X90825000Y-179725000D01*
X95905000Y-179725000D02*
X95145000Y-179725000D01*
X96855000Y-173725000D02*
X96855000Y-171065000D01*
X90825000Y-179725000D02*
X90065000Y-179725000D01*
X93365000Y-170667929D02*
X93365000Y-171065000D01*
X95245000Y-173725000D02*
X95245000Y-179725000D01*
X95525000Y-168355000D02*
X96795000Y-168355000D01*
X90065000Y-170667929D02*
X90065000Y-171065000D01*
X96855000Y-171065000D02*
X89115000Y-171065000D01*
X95605000Y-173725000D02*
X95605000Y-179725000D01*
X91715000Y-171065000D02*
X91715000Y-173725000D01*
X95845000Y-173725000D02*
X95845000Y-179725000D01*
X90065000Y-179725000D02*
X90065000Y-173725000D01*
X96795000Y-168355000D02*
X96795000Y-169625000D01*
X95145000Y-179725000D02*
X95145000Y-173725000D01*
X94255000Y-171065000D02*
X94255000Y-173725000D01*
X95365000Y-173725000D02*
X95365000Y-179725000D01*
X92605000Y-170667929D02*
X92605000Y-171065000D01*
X89115000Y-171065000D02*
X89115000Y-173725000D01*
%TO.C,D18*%
X166649999Y-92750000D02*
X159349999Y-92750000D01*
X166649999Y-87250000D02*
X159349999Y-87250000D01*
X159349999Y-87250000D02*
X159349999Y-88400000D01*
%TO.C,D29*%
X69349999Y-87250000D02*
X76649999Y-87250000D01*
X69349999Y-92750000D02*
X76649999Y-92750000D01*
X76649999Y-92750000D02*
X76649999Y-91600000D01*
%TO.C,D37*%
X54349999Y-111250000D02*
X61649999Y-111250000D01*
X54349999Y-116750000D02*
X61649999Y-116750000D01*
X61649999Y-116750000D02*
X61649999Y-115600000D01*
%TO.C,D24*%
X105749999Y-32350000D02*
X105749999Y-39650000D01*
X100249999Y-32350000D02*
X100249999Y-39650000D01*
X100249999Y-39650000D02*
X101399999Y-39650000D01*
%TO.C,D17*%
X151649999Y-92750000D02*
X144349999Y-92750000D01*
X151649999Y-87250000D02*
X144349999Y-87250000D01*
X144349999Y-87250000D02*
X144349999Y-88400000D01*
%TO.C,D21*%
X117749999Y-38350000D02*
X117749999Y-45650000D01*
X112249999Y-38350000D02*
X112249999Y-45650000D01*
X112249999Y-45650000D02*
X113399999Y-45650000D01*
%TO.C,D36*%
X69349999Y-111250000D02*
X76649999Y-111250000D01*
X69349999Y-116750000D02*
X76649999Y-116750000D01*
X76649999Y-116750000D02*
X76649999Y-115600000D01*
%TO.C,D39*%
X88249999Y-135650000D02*
X88249999Y-128350000D01*
X93749999Y-135650000D02*
X93749999Y-128350000D01*
X93749999Y-128350000D02*
X92599999Y-128350000D01*
%TO.C,D42*%
X100249999Y-141650000D02*
X100249999Y-134350000D01*
X105749999Y-141650000D02*
X105749999Y-134350000D01*
X105749999Y-134350000D02*
X104599999Y-134350000D01*
%TO.C,D47*%
X112249999Y-150650000D02*
X112249999Y-143350000D01*
X117749999Y-150650000D02*
X117749999Y-143350000D01*
X117749999Y-143350000D02*
X116599999Y-143350000D01*
%TO.C,D9*%
X136649999Y-116750000D02*
X129349999Y-116750000D01*
X136649999Y-111250000D02*
X129349999Y-111250000D01*
X129349999Y-111250000D02*
X129349999Y-112400000D01*
%TO.C,D25*%
X105749999Y-17350000D02*
X105749999Y-24650000D01*
X100249999Y-17350000D02*
X100249999Y-24650000D01*
X100249999Y-24650000D02*
X101399999Y-24650000D01*
%TO.C,D14*%
X172649999Y-104750000D02*
X165349999Y-104750000D01*
X172649999Y-99250000D02*
X165349999Y-99250000D01*
X165349999Y-99250000D02*
X165349999Y-100400000D01*
%TO.C,D28*%
X93749999Y-38350000D02*
X93749999Y-45650000D01*
X88249999Y-38350000D02*
X88249999Y-45650000D01*
X88249999Y-45650000D02*
X89399999Y-45650000D01*
%TO.C,D1*%
X109081118Y-113242998D02*
X114242997Y-108081119D01*
X112970205Y-117132085D02*
X118132084Y-111970206D01*
X118132084Y-111970206D02*
X117318912Y-111157033D01*
%TO.C,D31*%
X39349999Y-87250000D02*
X46649999Y-87250000D01*
X39349999Y-92750000D02*
X46649999Y-92750000D01*
X46649999Y-92750000D02*
X46649999Y-91600000D01*
%TO.C,D13*%
X157649999Y-104750000D02*
X150349999Y-104750000D01*
X157649999Y-99250000D02*
X150349999Y-99250000D01*
X150349999Y-99250000D02*
X150349999Y-100400000D01*
%TO.C,D41*%
X88249999Y-165650000D02*
X88249999Y-158350000D01*
X93749999Y-165650000D02*
X93749999Y-158350000D01*
X93749999Y-158350000D02*
X92599999Y-158350000D01*
%TO.C,D44*%
X100249999Y-171650000D02*
X100249999Y-164350000D01*
X105749999Y-171650000D02*
X105749999Y-164350000D01*
X105749999Y-164350000D02*
X104599999Y-164350000D01*
%TO.C,D22*%
X105749999Y-62350000D02*
X105749999Y-69650000D01*
X100249999Y-62350000D02*
X100249999Y-69650000D01*
X100249999Y-69650000D02*
X101399999Y-69650000D01*
%TO.C,D16*%
X136649999Y-92750000D02*
X129349999Y-92750000D01*
X136649999Y-87250000D02*
X129349999Y-87250000D01*
X129349999Y-87250000D02*
X129349999Y-88400000D01*
%TO.C,D20*%
X117749999Y-53350000D02*
X117749999Y-60650000D01*
X112249999Y-53350000D02*
X112249999Y-60650000D01*
X112249999Y-60650000D02*
X113399999Y-60650000D01*
%TD*%
M02*
