%TF.GenerationSoftware,KiCad,Pcbnew,(6.0.5)*%
%TF.CreationDate,2022-08-25T18:23:53-06:00*%
%TF.ProjectId,Led Zia,4c656420-5a69-4612-9e6b-696361645f70,rev?*%
%TF.SameCoordinates,Original*%
%TF.FileFunction,Copper,L2,Bot*%
%TF.FilePolarity,Positive*%
%FSLAX46Y46*%
G04 Gerber Fmt 4.6, Leading zero omitted, Abs format (unit mm)*
G04 Created by KiCad (PCBNEW (6.0.5)) date 2022-08-25 18:23:53*
%MOMM*%
%LPD*%
G01*
G04 APERTURE LIST*
%TA.AperFunction,ComponentPad*%
%ADD10R,1.700000X1.700000*%
%TD*%
%TA.AperFunction,ComponentPad*%
%ADD11O,1.700000X1.700000*%
%TD*%
%TA.AperFunction,ViaPad*%
%ADD12C,0.800000*%
%TD*%
%TA.AperFunction,Conductor*%
%ADD13C,0.250000*%
%TD*%
G04 APERTURE END LIST*
D10*
%TO.P,J2,1,Pin_1*%
%TO.N,+5V*%
X115525000Y-169625000D03*
D11*
%TO.P,J2,2,Pin_2*%
%TO.N,/23 LEDs1/DOUT*%
X112985000Y-169625000D03*
%TO.P,J2,3,Pin_3*%
%TO.N,GND*%
X110445000Y-169625000D03*
%TD*%
D10*
%TO.P,J1,1,Pin_1*%
%TO.N,+5V*%
X95525000Y-169625000D03*
D11*
%TO.P,J1,2,Pin_2*%
%TO.N,/25 LEDs/DIN*%
X92985000Y-169625000D03*
%TO.P,J1,3,Pin_3*%
%TO.N,GND*%
X90445000Y-169625000D03*
%TD*%
D12*
%TO.N,GND*%
X152000000Y-107000000D03*
X98000000Y-151000000D03*
X86000000Y-145000000D03*
X98000000Y-72000000D03*
X130000000Y-119000000D03*
X75000000Y-85000000D03*
X60000000Y-85000000D03*
X110000000Y-145000000D03*
X146000000Y-95000000D03*
X160000000Y-119000000D03*
X39000000Y-97000000D03*
X45000000Y-85000000D03*
X91000000Y-118000000D03*
X145000000Y-119000000D03*
X98000000Y-164000000D03*
X115000000Y-118000000D03*
X108000000Y-38000000D03*
X108000000Y-132000000D03*
X182000000Y-107000000D03*
X120000000Y-59000000D03*
X96000000Y-44000000D03*
X24000000Y-97000000D03*
X110000000Y-160000000D03*
X108000000Y-53000000D03*
X96000000Y-138000000D03*
X86000000Y-130000000D03*
X108000000Y-23000000D03*
X167000000Y-107000000D03*
X83000000Y-105000000D03*
X100000000Y-82000000D03*
X110000000Y-66000000D03*
X120000000Y-44000000D03*
X87000000Y-86000000D03*
X161000000Y-95000000D03*
X67000000Y-95000000D03*
X106000000Y-122000000D03*
X45000000Y-109000000D03*
X73000000Y-107000000D03*
X137000000Y-107000000D03*
X96000000Y-59000000D03*
X54000000Y-97000000D03*
X131000000Y-95000000D03*
X123000000Y-99000000D03*
X60000000Y-109000000D03*
X120000000Y-74000000D03*
X118000000Y-85000000D03*
X98000000Y-181000000D03*
X86000000Y-160000000D03*
%TO.N,/25 LEDs/DIN*%
X111000000Y-110000000D03*
%TD*%
D13*
%TO.N,/25 LEDs/DIN*%
X93500000Y-169110000D02*
X93500000Y-127500000D01*
X92985000Y-169625000D02*
X93500000Y-169110000D01*
X93500000Y-127500000D02*
X111000000Y-110000000D01*
%TD*%
%TA.AperFunction,Conductor*%
%TO.N,GND*%
G36*
X103423801Y-17513422D02*
G01*
X104259029Y-17551477D01*
X104264753Y-17551868D01*
X105097427Y-17627903D01*
X105103115Y-17628553D01*
X105931447Y-17742405D01*
X105937075Y-17743309D01*
X106759397Y-17894750D01*
X106764989Y-17895912D01*
X107118028Y-17977699D01*
X107579535Y-18084615D01*
X107585092Y-18086036D01*
X108390209Y-18311619D01*
X108395690Y-18313290D01*
X109189723Y-18575290D01*
X109195074Y-18577192D01*
X109976391Y-18875073D01*
X109981670Y-18877224D01*
X110748572Y-19210336D01*
X110753781Y-19212741D01*
X111504717Y-19580409D01*
X111509810Y-19583048D01*
X112243229Y-19984511D01*
X112248197Y-19987379D01*
X112962589Y-20421811D01*
X112967421Y-20424902D01*
X113661307Y-20891403D01*
X113665993Y-20894711D01*
X114337918Y-21392304D01*
X114342449Y-21395822D01*
X114957011Y-21895805D01*
X114991039Y-21923489D01*
X114995405Y-21927210D01*
X115619278Y-22483826D01*
X115623471Y-22487741D01*
X116221403Y-23072213D01*
X116225412Y-23076315D01*
X116796103Y-23687376D01*
X116799922Y-23691657D01*
X117342199Y-24328048D01*
X117345819Y-24332497D01*
X117858585Y-24992928D01*
X117861996Y-24997534D01*
X118344182Y-25680637D01*
X118347355Y-25685357D01*
X118797954Y-26389702D01*
X118800934Y-26394603D01*
X119218982Y-27118684D01*
X119221737Y-27123716D01*
X119606423Y-27866127D01*
X119608925Y-27871237D01*
X119821076Y-28330740D01*
X119959412Y-28630365D01*
X119961697Y-28635626D01*
X120277257Y-29409890D01*
X120279301Y-29415250D01*
X120476468Y-29970024D01*
X120559306Y-30203109D01*
X120561103Y-30208557D01*
X120804945Y-31008298D01*
X120806493Y-31013821D01*
X121013690Y-31823862D01*
X121014982Y-31829437D01*
X121185102Y-32648100D01*
X121186137Y-32653719D01*
X121318814Y-33479244D01*
X121319595Y-33484927D01*
X121414563Y-34315641D01*
X121415084Y-34321354D01*
X121472141Y-35155508D01*
X121472402Y-35161238D01*
X121490458Y-35954246D01*
X121488991Y-35976499D01*
X121486309Y-35993724D01*
X121487473Y-36002626D01*
X121487473Y-36002628D01*
X121490436Y-36025283D01*
X121491500Y-36041621D01*
X121491500Y-71950633D01*
X121490000Y-71970018D01*
X121487690Y-71984851D01*
X121487690Y-71984855D01*
X121486309Y-71993724D01*
X121487130Y-72000000D01*
X121486971Y-72000000D01*
X121505083Y-72645541D01*
X121505232Y-72647306D01*
X121505232Y-72647308D01*
X121558998Y-73284719D01*
X121559363Y-73289050D01*
X121649638Y-73928504D01*
X121649978Y-73930213D01*
X121649981Y-73930231D01*
X121775286Y-74560176D01*
X121775627Y-74561890D01*
X121936931Y-75187215D01*
X122133044Y-75802512D01*
X122133675Y-75804164D01*
X122133676Y-75804168D01*
X122345646Y-76359470D01*
X122363348Y-76405845D01*
X122364062Y-76407440D01*
X122364070Y-76407460D01*
X122573569Y-76875643D01*
X122627119Y-76995316D01*
X122923527Y-77569070D01*
X122924419Y-77570582D01*
X122924420Y-77570584D01*
X123144569Y-77943789D01*
X123251640Y-78125301D01*
X123252615Y-78126760D01*
X123252618Y-78126765D01*
X123609439Y-78660786D01*
X123609452Y-78660805D01*
X123610424Y-78662259D01*
X123998751Y-79178256D01*
X124415400Y-79671667D01*
X124859059Y-80140941D01*
X125328333Y-80584600D01*
X125821744Y-81001249D01*
X126337741Y-81389576D01*
X126339195Y-81390548D01*
X126339214Y-81390561D01*
X126873235Y-81747382D01*
X126874699Y-81748360D01*
X127430930Y-82076473D01*
X128004684Y-82372881D01*
X128006291Y-82373600D01*
X128006295Y-82373602D01*
X128592540Y-82635930D01*
X128592560Y-82635938D01*
X128594155Y-82636652D01*
X128595806Y-82637282D01*
X128595820Y-82637288D01*
X129195832Y-82866324D01*
X129197488Y-82866956D01*
X129812785Y-83063069D01*
X129814509Y-83063514D01*
X129814510Y-83063514D01*
X130436411Y-83223935D01*
X130436420Y-83223937D01*
X130438110Y-83224373D01*
X130439822Y-83224714D01*
X130439824Y-83224714D01*
X131069769Y-83350019D01*
X131069787Y-83350022D01*
X131071496Y-83350362D01*
X131591032Y-83423708D01*
X131709214Y-83440392D01*
X131709217Y-83440392D01*
X131710950Y-83440637D01*
X131712694Y-83440784D01*
X131712702Y-83440785D01*
X132352692Y-83494768D01*
X132352694Y-83494768D01*
X132354459Y-83494917D01*
X132356233Y-83494967D01*
X132356237Y-83494967D01*
X132975103Y-83512331D01*
X132982697Y-83512777D01*
X132987448Y-83513576D01*
X132993966Y-83513655D01*
X132995140Y-83513670D01*
X132995143Y-83513670D01*
X133000000Y-83513729D01*
X133027624Y-83509773D01*
X133045486Y-83508500D01*
X168950633Y-83508500D01*
X168970018Y-83510000D01*
X168984851Y-83512310D01*
X168984855Y-83512310D01*
X168993724Y-83513691D01*
X169018907Y-83510398D01*
X169038108Y-83509368D01*
X169838762Y-83527598D01*
X169844492Y-83527859D01*
X170356536Y-83562883D01*
X170678658Y-83584917D01*
X170684345Y-83585436D01*
X171246719Y-83649727D01*
X171515073Y-83680405D01*
X171520756Y-83681186D01*
X171798573Y-83725836D01*
X172346295Y-83813866D01*
X172351900Y-83814898D01*
X173170563Y-83985018D01*
X173176138Y-83986310D01*
X173986179Y-84193507D01*
X173991702Y-84195055D01*
X174791458Y-84438902D01*
X174796876Y-84440689D01*
X175159127Y-84569433D01*
X175584750Y-84720699D01*
X175590110Y-84722743D01*
X176364374Y-85038303D01*
X176369635Y-85040588D01*
X177128763Y-85391075D01*
X177133873Y-85393577D01*
X177753472Y-85714627D01*
X177876284Y-85778263D01*
X177881316Y-85781018D01*
X178605410Y-86199074D01*
X178610285Y-86202038D01*
X179314643Y-86652645D01*
X179319363Y-86655818D01*
X180002462Y-87138001D01*
X180007072Y-87141415D01*
X180667503Y-87654181D01*
X180671952Y-87657801D01*
X181308343Y-88200078D01*
X181312624Y-88203897D01*
X181923685Y-88774588D01*
X181927787Y-88778597D01*
X182512259Y-89376529D01*
X182516172Y-89380719D01*
X182920217Y-89833586D01*
X183072790Y-90004595D01*
X183076511Y-90008961D01*
X183604178Y-90657551D01*
X183607696Y-90662082D01*
X184105289Y-91334007D01*
X184108597Y-91338693D01*
X184575098Y-92032579D01*
X184578189Y-92037411D01*
X185012621Y-92751803D01*
X185015489Y-92756771D01*
X185416952Y-93490190D01*
X185419591Y-93495283D01*
X185787259Y-94246219D01*
X185789664Y-94251428D01*
X186122772Y-95018321D01*
X186124927Y-95023609D01*
X186422808Y-95804926D01*
X186424710Y-95810277D01*
X186686708Y-96604304D01*
X186688381Y-96609791D01*
X186913964Y-97414908D01*
X186915385Y-97420465D01*
X187093976Y-98191357D01*
X187104086Y-98234999D01*
X187105250Y-98240603D01*
X187255455Y-99056211D01*
X187256688Y-99062907D01*
X187257595Y-99068553D01*
X187371446Y-99896879D01*
X187372097Y-99902573D01*
X187406993Y-100284719D01*
X187448132Y-100735248D01*
X187448523Y-100740971D01*
X187486578Y-101576199D01*
X187486709Y-101581934D01*
X187486709Y-102418066D01*
X187486578Y-102423801D01*
X187448523Y-103259029D01*
X187448132Y-103264752D01*
X187375307Y-104062284D01*
X187372098Y-104097422D01*
X187371447Y-104103115D01*
X187292688Y-104676133D01*
X187257598Y-104931429D01*
X187256691Y-104937075D01*
X187113536Y-105714409D01*
X187105253Y-105759385D01*
X187104088Y-105764989D01*
X187079313Y-105871933D01*
X186915385Y-106579535D01*
X186913964Y-106585092D01*
X186688381Y-107390209D01*
X186686710Y-107395690D01*
X186424710Y-108189723D01*
X186422808Y-108195074D01*
X186124927Y-108976391D01*
X186122776Y-108981670D01*
X185841843Y-109628444D01*
X185789664Y-109748572D01*
X185787259Y-109753781D01*
X185419591Y-110504717D01*
X185416952Y-110509810D01*
X185015489Y-111243229D01*
X185012621Y-111248197D01*
X184578189Y-111962589D01*
X184575098Y-111967421D01*
X184108597Y-112661307D01*
X184105289Y-112665993D01*
X183607696Y-113337918D01*
X183604178Y-113342449D01*
X183076511Y-113991039D01*
X183072797Y-113995397D01*
X182516174Y-114619278D01*
X182512259Y-114623471D01*
X181927787Y-115221403D01*
X181923685Y-115225412D01*
X181312624Y-115796103D01*
X181308343Y-115799922D01*
X180671952Y-116342199D01*
X180667503Y-116345819D01*
X180007072Y-116858585D01*
X180002466Y-116861996D01*
X179319363Y-117344182D01*
X179314643Y-117347355D01*
X178610285Y-117797962D01*
X178605410Y-117800926D01*
X178012585Y-118143194D01*
X177881316Y-118218982D01*
X177876284Y-118221737D01*
X177133873Y-118606423D01*
X177128763Y-118608925D01*
X176503437Y-118897636D01*
X176369635Y-118959412D01*
X176364374Y-118961697D01*
X175590110Y-119277257D01*
X175584750Y-119279301D01*
X175159127Y-119430567D01*
X174796876Y-119559311D01*
X174791458Y-119561098D01*
X173991702Y-119804945D01*
X173986179Y-119806493D01*
X173176138Y-120013690D01*
X173170563Y-120014982D01*
X172351900Y-120185102D01*
X172346295Y-120186134D01*
X171829843Y-120269138D01*
X171520756Y-120318814D01*
X171515073Y-120319595D01*
X171246719Y-120350273D01*
X170684345Y-120414564D01*
X170678658Y-120415083D01*
X170356536Y-120437117D01*
X169844492Y-120472141D01*
X169838762Y-120472402D01*
X169045754Y-120490458D01*
X169023501Y-120488991D01*
X169015148Y-120487690D01*
X169015145Y-120487690D01*
X169006276Y-120486309D01*
X168997374Y-120487473D01*
X168997372Y-120487473D01*
X168982323Y-120489441D01*
X168974714Y-120490436D01*
X168958379Y-120491500D01*
X133053250Y-120491500D01*
X133032345Y-120489754D01*
X133017344Y-120487230D01*
X133017341Y-120487230D01*
X133012552Y-120486424D01*
X133006445Y-120486350D01*
X133004864Y-120486330D01*
X133004860Y-120486330D01*
X133000000Y-120486271D01*
X132995181Y-120486961D01*
X132993593Y-120487065D01*
X132988931Y-120487282D01*
X132356237Y-120505033D01*
X132356233Y-120505033D01*
X132354459Y-120505083D01*
X132352694Y-120505232D01*
X132352692Y-120505232D01*
X131712702Y-120559215D01*
X131712694Y-120559216D01*
X131710950Y-120559363D01*
X131709217Y-120559608D01*
X131709214Y-120559608D01*
X131591032Y-120576292D01*
X131071496Y-120649638D01*
X131069787Y-120649978D01*
X131069769Y-120649981D01*
X130439824Y-120775286D01*
X130438110Y-120775627D01*
X130436420Y-120776063D01*
X130436411Y-120776065D01*
X129814510Y-120936486D01*
X129812785Y-120936931D01*
X129197488Y-121133044D01*
X129195836Y-121133675D01*
X129195832Y-121133676D01*
X128595820Y-121362712D01*
X128595806Y-121362718D01*
X128594155Y-121363348D01*
X128592560Y-121364062D01*
X128592540Y-121364070D01*
X128098822Y-121584995D01*
X128004684Y-121627119D01*
X127430930Y-121923527D01*
X126874699Y-122251640D01*
X126873240Y-122252615D01*
X126873235Y-122252618D01*
X126339214Y-122609439D01*
X126339195Y-122609452D01*
X126337741Y-122610424D01*
X125821744Y-122998751D01*
X125328333Y-123415400D01*
X124859059Y-123859059D01*
X124415400Y-124328333D01*
X123998751Y-124821744D01*
X123610424Y-125337741D01*
X123609452Y-125339195D01*
X123609439Y-125339214D01*
X123252618Y-125873235D01*
X123251640Y-125874699D01*
X123250747Y-125876212D01*
X123250745Y-125876216D01*
X122992495Y-126314012D01*
X122923527Y-126430930D01*
X122627119Y-127004684D01*
X122626400Y-127006291D01*
X122626398Y-127006295D01*
X122364070Y-127592540D01*
X122364062Y-127592560D01*
X122363348Y-127594155D01*
X122362718Y-127595806D01*
X122362712Y-127595820D01*
X122196147Y-128032175D01*
X122133044Y-128197488D01*
X121936931Y-128812785D01*
X121775627Y-129438110D01*
X121775286Y-129439822D01*
X121775286Y-129439824D01*
X121649981Y-130069769D01*
X121649978Y-130069787D01*
X121649638Y-130071496D01*
X121559363Y-130710950D01*
X121559216Y-130712694D01*
X121559215Y-130712702D01*
X121530936Y-131047963D01*
X121505083Y-131354459D01*
X121505033Y-131356233D01*
X121505033Y-131356237D01*
X121487902Y-131966824D01*
X121487331Y-131987159D01*
X121486309Y-131993724D01*
X121486999Y-131999001D01*
X121486971Y-132000000D01*
X121487130Y-132000000D01*
X121489398Y-132017344D01*
X121490436Y-132025283D01*
X121491500Y-132041620D01*
X121491500Y-167950633D01*
X121490000Y-167970018D01*
X121487690Y-167984851D01*
X121487690Y-167984855D01*
X121486309Y-167993724D01*
X121489170Y-168015602D01*
X121489602Y-168018905D01*
X121490632Y-168038108D01*
X121472402Y-168838762D01*
X121472141Y-168844492D01*
X121450596Y-169159470D01*
X121421032Y-169591695D01*
X121415084Y-169678646D01*
X121414564Y-169684345D01*
X121350608Y-170243794D01*
X121319595Y-170515073D01*
X121318814Y-170520756D01*
X121295443Y-170666173D01*
X121244443Y-170983500D01*
X121186137Y-171346281D01*
X121185102Y-171351900D01*
X121157599Y-171484254D01*
X121014985Y-172170550D01*
X121013690Y-172176138D01*
X120806493Y-172986179D01*
X120804945Y-172991702D01*
X120561103Y-173791443D01*
X120559311Y-173796876D01*
X120430567Y-174159127D01*
X120279301Y-174584750D01*
X120277257Y-174590110D01*
X119961697Y-175364374D01*
X119959412Y-175369635D01*
X119608925Y-176128763D01*
X119606423Y-176133873D01*
X119269245Y-176784598D01*
X119221737Y-176876284D01*
X119218982Y-176881316D01*
X118800934Y-177605397D01*
X118797962Y-177610285D01*
X118347355Y-178314643D01*
X118344182Y-178319363D01*
X117861999Y-179002462D01*
X117858585Y-179007072D01*
X117345819Y-179667503D01*
X117342199Y-179671952D01*
X116799922Y-180308343D01*
X116796103Y-180312624D01*
X116225412Y-180923685D01*
X116221403Y-180927787D01*
X115623471Y-181512259D01*
X115619278Y-181516174D01*
X114995405Y-182072790D01*
X114991048Y-182076504D01*
X114584524Y-182407236D01*
X114342449Y-182604178D01*
X114337918Y-182607696D01*
X113665993Y-183105289D01*
X113661307Y-183108597D01*
X112967421Y-183575098D01*
X112962589Y-183578189D01*
X112248197Y-184012621D01*
X112243229Y-184015489D01*
X111509810Y-184416952D01*
X111504717Y-184419591D01*
X110753781Y-184787259D01*
X110748579Y-184789661D01*
X109981670Y-185122776D01*
X109976391Y-185124927D01*
X109195074Y-185422808D01*
X109189723Y-185424710D01*
X108395696Y-185686708D01*
X108390209Y-185688381D01*
X107585092Y-185913964D01*
X107579535Y-185915385D01*
X107118028Y-186022301D01*
X106764989Y-186104088D01*
X106759397Y-186105250D01*
X105937075Y-186256691D01*
X105931447Y-186257595D01*
X105103115Y-186371447D01*
X105097427Y-186372097D01*
X104429805Y-186433060D01*
X104264752Y-186448132D01*
X104259029Y-186448523D01*
X103423801Y-186486578D01*
X103418066Y-186486709D01*
X102581934Y-186486709D01*
X102576199Y-186486578D01*
X101740971Y-186448523D01*
X101735248Y-186448132D01*
X101570195Y-186433060D01*
X100902573Y-186372097D01*
X100896885Y-186371447D01*
X100068553Y-186257595D01*
X100062925Y-186256691D01*
X99240603Y-186105250D01*
X99235011Y-186104088D01*
X98881972Y-186022301D01*
X98420465Y-185915385D01*
X98414908Y-185913964D01*
X97609791Y-185688381D01*
X97604304Y-185686708D01*
X96810277Y-185424710D01*
X96804926Y-185422808D01*
X96023609Y-185124927D01*
X96018330Y-185122776D01*
X95251421Y-184789661D01*
X95246219Y-184787259D01*
X94495283Y-184419591D01*
X94490190Y-184416952D01*
X93756771Y-184015489D01*
X93751803Y-184012621D01*
X93037411Y-183578189D01*
X93032579Y-183575098D01*
X92338693Y-183108597D01*
X92334007Y-183105289D01*
X91662082Y-182607696D01*
X91657551Y-182604178D01*
X91415476Y-182407236D01*
X91008952Y-182076504D01*
X91004595Y-182072790D01*
X90380722Y-181516174D01*
X90376529Y-181512259D01*
X89778597Y-180927787D01*
X89774588Y-180923685D01*
X89203897Y-180312624D01*
X89200078Y-180308343D01*
X88657801Y-179671952D01*
X88654181Y-179667503D01*
X88141415Y-179007072D01*
X88138001Y-179002462D01*
X87655818Y-178319363D01*
X87652645Y-178314643D01*
X87202038Y-177610285D01*
X87199066Y-177605397D01*
X86781018Y-176881316D01*
X86778263Y-176876284D01*
X86730755Y-176784598D01*
X86393577Y-176133873D01*
X86391075Y-176128763D01*
X86040588Y-175369635D01*
X86038303Y-175364374D01*
X85722743Y-174590110D01*
X85720699Y-174584750D01*
X85569433Y-174159127D01*
X85440689Y-173796876D01*
X85438897Y-173791443D01*
X85195055Y-172991702D01*
X85193507Y-172986179D01*
X84986310Y-172176138D01*
X84985015Y-172170550D01*
X84842401Y-171484254D01*
X84814898Y-171351900D01*
X84813863Y-171346281D01*
X84755558Y-170983500D01*
X84704557Y-170666173D01*
X84681186Y-170520756D01*
X84680405Y-170515073D01*
X84649392Y-170243794D01*
X84609285Y-169892966D01*
X89113257Y-169892966D01*
X89143565Y-170027446D01*
X89146645Y-170037275D01*
X89226770Y-170234603D01*
X89231413Y-170243794D01*
X89342694Y-170425388D01*
X89348777Y-170433699D01*
X89488213Y-170594667D01*
X89495580Y-170601883D01*
X89659434Y-170737916D01*
X89667881Y-170743831D01*
X89851756Y-170851279D01*
X89861042Y-170855729D01*
X90060001Y-170931703D01*
X90069899Y-170934579D01*
X90173250Y-170955606D01*
X90187299Y-170954410D01*
X90191000Y-170944065D01*
X90191000Y-170943517D01*
X90699000Y-170943517D01*
X90703064Y-170957359D01*
X90716478Y-170959393D01*
X90723184Y-170958534D01*
X90733262Y-170956392D01*
X90937255Y-170895191D01*
X90946842Y-170891433D01*
X91138095Y-170797739D01*
X91146945Y-170792464D01*
X91320328Y-170668792D01*
X91328200Y-170662139D01*
X91479052Y-170511812D01*
X91485730Y-170503965D01*
X91613022Y-170326819D01*
X91614279Y-170327722D01*
X91661373Y-170284362D01*
X91731311Y-170272145D01*
X91796751Y-170299678D01*
X91824579Y-170331511D01*
X91884987Y-170430088D01*
X92031250Y-170598938D01*
X92203126Y-170741632D01*
X92396000Y-170854338D01*
X92604692Y-170934030D01*
X92609760Y-170935061D01*
X92609763Y-170935062D01*
X92704862Y-170954410D01*
X92823597Y-170978567D01*
X92828772Y-170978757D01*
X92828774Y-170978757D01*
X93041673Y-170986564D01*
X93041677Y-170986564D01*
X93046837Y-170986753D01*
X93051957Y-170986097D01*
X93051959Y-170986097D01*
X93263288Y-170959025D01*
X93263289Y-170959025D01*
X93268416Y-170958368D01*
X93273366Y-170956883D01*
X93477429Y-170895661D01*
X93477434Y-170895659D01*
X93482384Y-170894174D01*
X93682994Y-170795896D01*
X93864860Y-170666173D01*
X93973091Y-170558319D01*
X94035462Y-170524404D01*
X94106268Y-170529592D01*
X94163030Y-170572238D01*
X94180012Y-170603341D01*
X94224385Y-170721705D01*
X94311739Y-170838261D01*
X94428295Y-170925615D01*
X94564684Y-170976745D01*
X94626866Y-170983500D01*
X96423134Y-170983500D01*
X96485316Y-170976745D01*
X96621705Y-170925615D01*
X96738261Y-170838261D01*
X96825615Y-170721705D01*
X96876745Y-170585316D01*
X96883500Y-170523134D01*
X96883500Y-169892966D01*
X109113257Y-169892966D01*
X109143565Y-170027446D01*
X109146645Y-170037275D01*
X109226770Y-170234603D01*
X109231413Y-170243794D01*
X109342694Y-170425388D01*
X109348777Y-170433699D01*
X109488213Y-170594667D01*
X109495580Y-170601883D01*
X109659434Y-170737916D01*
X109667881Y-170743831D01*
X109851756Y-170851279D01*
X109861042Y-170855729D01*
X110060001Y-170931703D01*
X110069899Y-170934579D01*
X110173250Y-170955606D01*
X110187299Y-170954410D01*
X110191000Y-170944065D01*
X110191000Y-170943517D01*
X110699000Y-170943517D01*
X110703064Y-170957359D01*
X110716478Y-170959393D01*
X110723184Y-170958534D01*
X110733262Y-170956392D01*
X110937255Y-170895191D01*
X110946842Y-170891433D01*
X111138095Y-170797739D01*
X111146945Y-170792464D01*
X111320328Y-170668792D01*
X111328200Y-170662139D01*
X111479052Y-170511812D01*
X111485730Y-170503965D01*
X111613022Y-170326819D01*
X111614279Y-170327722D01*
X111661373Y-170284362D01*
X111731311Y-170272145D01*
X111796751Y-170299678D01*
X111824579Y-170331511D01*
X111884987Y-170430088D01*
X112031250Y-170598938D01*
X112203126Y-170741632D01*
X112396000Y-170854338D01*
X112604692Y-170934030D01*
X112609760Y-170935061D01*
X112609763Y-170935062D01*
X112704862Y-170954410D01*
X112823597Y-170978567D01*
X112828772Y-170978757D01*
X112828774Y-170978757D01*
X113041673Y-170986564D01*
X113041677Y-170986564D01*
X113046837Y-170986753D01*
X113051957Y-170986097D01*
X113051959Y-170986097D01*
X113263288Y-170959025D01*
X113263289Y-170959025D01*
X113268416Y-170958368D01*
X113273366Y-170956883D01*
X113477429Y-170895661D01*
X113477434Y-170895659D01*
X113482384Y-170894174D01*
X113682994Y-170795896D01*
X113864860Y-170666173D01*
X113973091Y-170558319D01*
X114035462Y-170524404D01*
X114106268Y-170529592D01*
X114163030Y-170572238D01*
X114180012Y-170603341D01*
X114224385Y-170721705D01*
X114311739Y-170838261D01*
X114428295Y-170925615D01*
X114564684Y-170976745D01*
X114626866Y-170983500D01*
X116423134Y-170983500D01*
X116485316Y-170976745D01*
X116621705Y-170925615D01*
X116738261Y-170838261D01*
X116825615Y-170721705D01*
X116876745Y-170585316D01*
X116883500Y-170523134D01*
X116883500Y-168726866D01*
X116876745Y-168664684D01*
X116825615Y-168528295D01*
X116738261Y-168411739D01*
X116621705Y-168324385D01*
X116485316Y-168273255D01*
X116423134Y-168266500D01*
X114626866Y-168266500D01*
X114564684Y-168273255D01*
X114428295Y-168324385D01*
X114311739Y-168411739D01*
X114224385Y-168528295D01*
X114221233Y-168536703D01*
X114179919Y-168646907D01*
X114137277Y-168703671D01*
X114070716Y-168728371D01*
X114001367Y-168713163D01*
X113968743Y-168687476D01*
X113918151Y-168631875D01*
X113918142Y-168631866D01*
X113914670Y-168628051D01*
X113910619Y-168624852D01*
X113910615Y-168624848D01*
X113743414Y-168492800D01*
X113743410Y-168492798D01*
X113739359Y-168489598D01*
X113703028Y-168469542D01*
X113687136Y-168460769D01*
X113543789Y-168381638D01*
X113538920Y-168379914D01*
X113538916Y-168379912D01*
X113338087Y-168308795D01*
X113338083Y-168308794D01*
X113333212Y-168307069D01*
X113328119Y-168306162D01*
X113328116Y-168306161D01*
X113118373Y-168268800D01*
X113118367Y-168268799D01*
X113113284Y-168267894D01*
X113039452Y-168266992D01*
X112895081Y-168265228D01*
X112895079Y-168265228D01*
X112889911Y-168265165D01*
X112669091Y-168298955D01*
X112456756Y-168368357D01*
X112258607Y-168471507D01*
X112254474Y-168474610D01*
X112254471Y-168474612D01*
X112084100Y-168602530D01*
X112079965Y-168605635D01*
X112054541Y-168632240D01*
X111986280Y-168703671D01*
X111925629Y-168767138D01*
X111922715Y-168771410D01*
X111922714Y-168771411D01*
X111817898Y-168925066D01*
X111762987Y-168970069D01*
X111692462Y-168978240D01*
X111628715Y-168946986D01*
X111608018Y-168922502D01*
X111527426Y-168797926D01*
X111521136Y-168789757D01*
X111377806Y-168632240D01*
X111370273Y-168625215D01*
X111203139Y-168493222D01*
X111194552Y-168487517D01*
X111008117Y-168384599D01*
X110998705Y-168380369D01*
X110797959Y-168309280D01*
X110787988Y-168306646D01*
X110716837Y-168293972D01*
X110703540Y-168295432D01*
X110699000Y-168309989D01*
X110699000Y-170943517D01*
X110191000Y-170943517D01*
X110191000Y-169897115D01*
X110186525Y-169881876D01*
X110185135Y-169880671D01*
X110177452Y-169879000D01*
X109128225Y-169879000D01*
X109114694Y-169882973D01*
X109113257Y-169892966D01*
X96883500Y-169892966D01*
X96883500Y-169359183D01*
X109109389Y-169359183D01*
X109110912Y-169367607D01*
X109123292Y-169371000D01*
X110172885Y-169371000D01*
X110188124Y-169366525D01*
X110189329Y-169365135D01*
X110191000Y-169357452D01*
X110191000Y-168308102D01*
X110187082Y-168294758D01*
X110172806Y-168292771D01*
X110134324Y-168298660D01*
X110124288Y-168301051D01*
X109921868Y-168367212D01*
X109912359Y-168371209D01*
X109723463Y-168469542D01*
X109714738Y-168475036D01*
X109544433Y-168602905D01*
X109536726Y-168609748D01*
X109389590Y-168763717D01*
X109383104Y-168771727D01*
X109263098Y-168947649D01*
X109258000Y-168956623D01*
X109168338Y-169149783D01*
X109164775Y-169159470D01*
X109109389Y-169359183D01*
X96883500Y-169359183D01*
X96883500Y-168726866D01*
X96876745Y-168664684D01*
X96825615Y-168528295D01*
X96738261Y-168411739D01*
X96621705Y-168324385D01*
X96485316Y-168273255D01*
X96423134Y-168266500D01*
X94626866Y-168266500D01*
X94564684Y-168273255D01*
X94428295Y-168324385D01*
X94365818Y-168371209D01*
X94335065Y-168394257D01*
X94268559Y-168419105D01*
X94199176Y-168404052D01*
X94148946Y-168353878D01*
X94133500Y-168293431D01*
X94133500Y-129190108D01*
X99112951Y-129190108D01*
X99132444Y-129385402D01*
X99142807Y-129489220D01*
X99152062Y-129581946D01*
X99230570Y-129967825D01*
X99231517Y-129970867D01*
X99231519Y-129970873D01*
X99262322Y-130069769D01*
X99347671Y-130343795D01*
X99348925Y-130346735D01*
X99353106Y-130356536D01*
X99502168Y-130706007D01*
X99503707Y-130708794D01*
X99503707Y-130708795D01*
X99508902Y-130718206D01*
X99692477Y-131050751D01*
X99694292Y-131053373D01*
X99694295Y-131053377D01*
X99702273Y-131064898D01*
X99916650Y-131374499D01*
X100172393Y-131673935D01*
X100457086Y-131945994D01*
X100459600Y-131947951D01*
X100459601Y-131947952D01*
X100765298Y-132185931D01*
X100765304Y-132185935D01*
X100767815Y-132187890D01*
X100770519Y-132189586D01*
X100770523Y-132189589D01*
X100782892Y-132197348D01*
X101101399Y-132397146D01*
X101454422Y-132571621D01*
X101823269Y-132709527D01*
X101826348Y-132710335D01*
X101826355Y-132710337D01*
X102013716Y-132759490D01*
X102204164Y-132809453D01*
X102207320Y-132809947D01*
X102207319Y-132809947D01*
X102590069Y-132869885D01*
X102590077Y-132869886D01*
X102593207Y-132870376D01*
X102596369Y-132870547D01*
X102596376Y-132870548D01*
X102892938Y-132886609D01*
X102892953Y-132886609D01*
X102894626Y-132886700D01*
X103098601Y-132886700D01*
X103100172Y-132886620D01*
X103100189Y-132886620D01*
X103390107Y-132871933D01*
X103390112Y-132871932D01*
X103393280Y-132871772D01*
X103585611Y-132842341D01*
X103779374Y-132812692D01*
X103779383Y-132812690D01*
X103782534Y-132812208D01*
X103868378Y-132790007D01*
X104160696Y-132714409D01*
X104160704Y-132714406D01*
X104163776Y-132713612D01*
X104166759Y-132712509D01*
X104166764Y-132712507D01*
X104530105Y-132578103D01*
X104530111Y-132578100D01*
X104533102Y-132576994D01*
X104886731Y-132403753D01*
X105221043Y-132195662D01*
X105418923Y-132042723D01*
X105530090Y-131956804D01*
X105530095Y-131956799D01*
X105532615Y-131954852D01*
X105818256Y-131683789D01*
X106075042Y-131385247D01*
X106162123Y-131260420D01*
X106298522Y-131064898D01*
X106298527Y-131064890D01*
X106300345Y-131062284D01*
X106491856Y-130718206D01*
X106493116Y-130715281D01*
X106646353Y-130359470D01*
X106646357Y-130359460D01*
X106647616Y-130356536D01*
X106766029Y-129980977D01*
X106845883Y-129595374D01*
X106886362Y-129203676D01*
X106886381Y-129193271D01*
X106886929Y-128878747D01*
X106887049Y-128809892D01*
X106847938Y-128418054D01*
X106769430Y-128032175D01*
X106764384Y-128015972D01*
X106680444Y-127746473D01*
X106652329Y-127656205D01*
X106648195Y-127646512D01*
X106499085Y-127296930D01*
X106499083Y-127296926D01*
X106497832Y-127293993D01*
X106492713Y-127284719D01*
X106309062Y-126952037D01*
X106307523Y-126949249D01*
X106299538Y-126937716D01*
X106085167Y-126628125D01*
X106085166Y-126628124D01*
X106083350Y-126625501D01*
X105827607Y-126326065D01*
X105542914Y-126054006D01*
X105534354Y-126047342D01*
X105234702Y-125814069D01*
X105234696Y-125814065D01*
X105232185Y-125812110D01*
X105222906Y-125806289D01*
X104901306Y-125604551D01*
X104898601Y-125602854D01*
X104545578Y-125428379D01*
X104176731Y-125290473D01*
X104173652Y-125289665D01*
X104173645Y-125289663D01*
X103986283Y-125240510D01*
X103795836Y-125190547D01*
X103740214Y-125181837D01*
X103409931Y-125130115D01*
X103409923Y-125130114D01*
X103406793Y-125129624D01*
X103403631Y-125129453D01*
X103403624Y-125129452D01*
X103107062Y-125113391D01*
X103107047Y-125113391D01*
X103105374Y-125113300D01*
X102901399Y-125113300D01*
X102899828Y-125113380D01*
X102899811Y-125113380D01*
X102609893Y-125128067D01*
X102609888Y-125128068D01*
X102606720Y-125128228D01*
X102414389Y-125157659D01*
X102220626Y-125187308D01*
X102220617Y-125187310D01*
X102217466Y-125187792D01*
X102131622Y-125209993D01*
X101839304Y-125285591D01*
X101839296Y-125285594D01*
X101836224Y-125286388D01*
X101833241Y-125287491D01*
X101833236Y-125287493D01*
X101469895Y-125421897D01*
X101469889Y-125421900D01*
X101466898Y-125423006D01*
X101113269Y-125596247D01*
X100778957Y-125804338D01*
X100768901Y-125812110D01*
X100469910Y-126043196D01*
X100469905Y-126043201D01*
X100467385Y-126045148D01*
X100181744Y-126316211D01*
X99924958Y-126614753D01*
X99917460Y-126625501D01*
X99701478Y-126935102D01*
X99701473Y-126935110D01*
X99699655Y-126937716D01*
X99698103Y-126940504D01*
X99698102Y-126940506D01*
X99539088Y-127226198D01*
X99508144Y-127281794D01*
X99506886Y-127284714D01*
X99506884Y-127284719D01*
X99353647Y-127640530D01*
X99353643Y-127640540D01*
X99352384Y-127643464D01*
X99233971Y-128019023D01*
X99154117Y-128404626D01*
X99113638Y-128796324D01*
X99113632Y-128799490D01*
X99113632Y-128799499D01*
X99113606Y-128814510D01*
X99112951Y-129190108D01*
X94133500Y-129190108D01*
X94133500Y-127814594D01*
X94153502Y-127746473D01*
X94170405Y-127725499D01*
X110950499Y-110945405D01*
X111012811Y-110911379D01*
X111039594Y-110908500D01*
X111095487Y-110908500D01*
X111101939Y-110907128D01*
X111101944Y-110907128D01*
X111188887Y-110888647D01*
X111282288Y-110868794D01*
X111288319Y-110866109D01*
X111450722Y-110793803D01*
X111450724Y-110793802D01*
X111456752Y-110791118D01*
X111611253Y-110678866D01*
X111739040Y-110536944D01*
X111834527Y-110371556D01*
X111893542Y-110189928D01*
X111913504Y-110000000D01*
X111893542Y-109810072D01*
X111834527Y-109628444D01*
X111739040Y-109463056D01*
X111611253Y-109321134D01*
X111456752Y-109208882D01*
X111450724Y-109206198D01*
X111450722Y-109206197D01*
X111288319Y-109133891D01*
X111288318Y-109133891D01*
X111282288Y-109131206D01*
X111188888Y-109111353D01*
X111101944Y-109092872D01*
X111101939Y-109092872D01*
X111095487Y-109091500D01*
X110904513Y-109091500D01*
X110898061Y-109092872D01*
X110898056Y-109092872D01*
X110811112Y-109111353D01*
X110717712Y-109131206D01*
X110711682Y-109133891D01*
X110711681Y-109133891D01*
X110549278Y-109206197D01*
X110549276Y-109206198D01*
X110543248Y-109208882D01*
X110388747Y-109321134D01*
X110260960Y-109463056D01*
X110165473Y-109628444D01*
X110106458Y-109810072D01*
X110105768Y-109816633D01*
X110105768Y-109816635D01*
X110089093Y-109975292D01*
X110062080Y-110040949D01*
X110052878Y-110051217D01*
X93107747Y-126996348D01*
X93099461Y-127003888D01*
X93092982Y-127008000D01*
X93087557Y-127013777D01*
X93046357Y-127057651D01*
X93043602Y-127060493D01*
X93023865Y-127080230D01*
X93021385Y-127083427D01*
X93013682Y-127092447D01*
X92983414Y-127124679D01*
X92979595Y-127131625D01*
X92979593Y-127131628D01*
X92973652Y-127142434D01*
X92962801Y-127158953D01*
X92950386Y-127174959D01*
X92947241Y-127182228D01*
X92947238Y-127182232D01*
X92932826Y-127215537D01*
X92927609Y-127226187D01*
X92906305Y-127264940D01*
X92904334Y-127272615D01*
X92904334Y-127272616D01*
X92901267Y-127284562D01*
X92894863Y-127303266D01*
X92886819Y-127321855D01*
X92885580Y-127329678D01*
X92885577Y-127329688D01*
X92879901Y-127365524D01*
X92877495Y-127377144D01*
X92866500Y-127419970D01*
X92866500Y-127440224D01*
X92864949Y-127459934D01*
X92861780Y-127479943D01*
X92862526Y-127487835D01*
X92865941Y-127523961D01*
X92866500Y-127535819D01*
X92866500Y-168160561D01*
X92846498Y-168228682D01*
X92792842Y-168275175D01*
X92759559Y-168285111D01*
X92718788Y-168291350D01*
X92669091Y-168298955D01*
X92456756Y-168368357D01*
X92258607Y-168471507D01*
X92254474Y-168474610D01*
X92254471Y-168474612D01*
X92084100Y-168602530D01*
X92079965Y-168605635D01*
X92054541Y-168632240D01*
X91986280Y-168703671D01*
X91925629Y-168767138D01*
X91922715Y-168771410D01*
X91922714Y-168771411D01*
X91817898Y-168925066D01*
X91762987Y-168970069D01*
X91692462Y-168978240D01*
X91628715Y-168946986D01*
X91608018Y-168922502D01*
X91527426Y-168797926D01*
X91521136Y-168789757D01*
X91377806Y-168632240D01*
X91370273Y-168625215D01*
X91203139Y-168493222D01*
X91194552Y-168487517D01*
X91008117Y-168384599D01*
X90998705Y-168380369D01*
X90797959Y-168309280D01*
X90787988Y-168306646D01*
X90716837Y-168293972D01*
X90703540Y-168295432D01*
X90699000Y-168309989D01*
X90699000Y-170943517D01*
X90191000Y-170943517D01*
X90191000Y-169897115D01*
X90186525Y-169881876D01*
X90185135Y-169880671D01*
X90177452Y-169879000D01*
X89128225Y-169879000D01*
X89114694Y-169882973D01*
X89113257Y-169892966D01*
X84609285Y-169892966D01*
X84585436Y-169684345D01*
X84584916Y-169678646D01*
X84578969Y-169591695D01*
X84563065Y-169359183D01*
X89109389Y-169359183D01*
X89110912Y-169367607D01*
X89123292Y-169371000D01*
X90172885Y-169371000D01*
X90188124Y-169366525D01*
X90189329Y-169365135D01*
X90191000Y-169357452D01*
X90191000Y-168308102D01*
X90187082Y-168294758D01*
X90172806Y-168292771D01*
X90134324Y-168298660D01*
X90124288Y-168301051D01*
X89921868Y-168367212D01*
X89912359Y-168371209D01*
X89723463Y-168469542D01*
X89714738Y-168475036D01*
X89544433Y-168602905D01*
X89536726Y-168609748D01*
X89389590Y-168763717D01*
X89383104Y-168771727D01*
X89263098Y-168947649D01*
X89258000Y-168956623D01*
X89168338Y-169149783D01*
X89164775Y-169159470D01*
X89109389Y-169359183D01*
X84563065Y-169359183D01*
X84549404Y-169159470D01*
X84527859Y-168844492D01*
X84527598Y-168838762D01*
X84509630Y-168049600D01*
X84511342Y-168025833D01*
X84512769Y-168017347D01*
X84513576Y-168012552D01*
X84513729Y-168000000D01*
X84509773Y-167972376D01*
X84508500Y-167954514D01*
X84508500Y-132053250D01*
X84510246Y-132032345D01*
X84512770Y-132017344D01*
X84512770Y-132017341D01*
X84513576Y-132012552D01*
X84513729Y-132000000D01*
X84513039Y-131995181D01*
X84512935Y-131993593D01*
X84512718Y-131988931D01*
X84494967Y-131356237D01*
X84494967Y-131356233D01*
X84494917Y-131354459D01*
X84469064Y-131047963D01*
X84440785Y-130712702D01*
X84440784Y-130712694D01*
X84440637Y-130710950D01*
X84350362Y-130071496D01*
X84350022Y-130069787D01*
X84350019Y-130069769D01*
X84224714Y-129439824D01*
X84224714Y-129439822D01*
X84224373Y-129438110D01*
X84063069Y-128812785D01*
X83866956Y-128197488D01*
X83803853Y-128032175D01*
X83637288Y-127595820D01*
X83637282Y-127595806D01*
X83636652Y-127594155D01*
X83635938Y-127592560D01*
X83635930Y-127592540D01*
X83373602Y-127006295D01*
X83373600Y-127006291D01*
X83372881Y-127004684D01*
X83076473Y-126430930D01*
X83007505Y-126314012D01*
X82749255Y-125876216D01*
X82749253Y-125876212D01*
X82748360Y-125874699D01*
X82747382Y-125873235D01*
X82390561Y-125339214D01*
X82390548Y-125339195D01*
X82389576Y-125337741D01*
X82001249Y-124821744D01*
X81584600Y-124328333D01*
X81140941Y-123859059D01*
X80671667Y-123415400D01*
X80178256Y-122998751D01*
X79662259Y-122610424D01*
X79660805Y-122609452D01*
X79660786Y-122609439D01*
X79126765Y-122252618D01*
X79126760Y-122252615D01*
X79125301Y-122251640D01*
X78569070Y-121923527D01*
X77995316Y-121627119D01*
X77901178Y-121584995D01*
X77407460Y-121364070D01*
X77407440Y-121364062D01*
X77405845Y-121363348D01*
X77404194Y-121362718D01*
X77404180Y-121362712D01*
X76804168Y-121133676D01*
X76804164Y-121133675D01*
X76802512Y-121133044D01*
X76187215Y-120936931D01*
X76185490Y-120936486D01*
X75563589Y-120776065D01*
X75563580Y-120776063D01*
X75561890Y-120775627D01*
X75560176Y-120775286D01*
X74930231Y-120649981D01*
X74930213Y-120649978D01*
X74928504Y-120649638D01*
X74408968Y-120576292D01*
X74290786Y-120559608D01*
X74290783Y-120559608D01*
X74289050Y-120559363D01*
X74287306Y-120559216D01*
X74287298Y-120559215D01*
X73647308Y-120505232D01*
X73647306Y-120505232D01*
X73645541Y-120505083D01*
X73643767Y-120505033D01*
X73643763Y-120505033D01*
X73024897Y-120487669D01*
X73017303Y-120487223D01*
X73012552Y-120486424D01*
X73006034Y-120486345D01*
X73004860Y-120486330D01*
X73004857Y-120486330D01*
X73000000Y-120486271D01*
X72981007Y-120488991D01*
X72972376Y-120490227D01*
X72954514Y-120491500D01*
X37049367Y-120491500D01*
X37029982Y-120490000D01*
X37015149Y-120487690D01*
X37015145Y-120487690D01*
X37006276Y-120486309D01*
X36981093Y-120489602D01*
X36961892Y-120490632D01*
X36161238Y-120472402D01*
X36155508Y-120472141D01*
X35643464Y-120437117D01*
X35321342Y-120415083D01*
X35315655Y-120414564D01*
X34753281Y-120350273D01*
X34484927Y-120319595D01*
X34479244Y-120318814D01*
X34170157Y-120269138D01*
X33653705Y-120186134D01*
X33648100Y-120185102D01*
X32829437Y-120014982D01*
X32823862Y-120013690D01*
X32013821Y-119806493D01*
X32008298Y-119804945D01*
X31208542Y-119561098D01*
X31203124Y-119559311D01*
X30840873Y-119430567D01*
X30415250Y-119279301D01*
X30409890Y-119277257D01*
X29635626Y-118961697D01*
X29630365Y-118959412D01*
X29496563Y-118897636D01*
X28871237Y-118608925D01*
X28866127Y-118606423D01*
X28123716Y-118221737D01*
X28118684Y-118218982D01*
X27987415Y-118143194D01*
X27394590Y-117800926D01*
X27389715Y-117797962D01*
X26685357Y-117347355D01*
X26680637Y-117344182D01*
X25997534Y-116861996D01*
X25992928Y-116858585D01*
X25332497Y-116345819D01*
X25328048Y-116342199D01*
X24691657Y-115799922D01*
X24687376Y-115796103D01*
X24076315Y-115225412D01*
X24072213Y-115221403D01*
X23487741Y-114623471D01*
X23483826Y-114619278D01*
X22927203Y-113995397D01*
X22923489Y-113991039D01*
X22395822Y-113342449D01*
X22392304Y-113337918D01*
X21894711Y-112665993D01*
X21891403Y-112661307D01*
X21424902Y-111967421D01*
X21421811Y-111962589D01*
X20987379Y-111248197D01*
X20984511Y-111243229D01*
X20583048Y-110509810D01*
X20580409Y-110504717D01*
X20212741Y-109753781D01*
X20210336Y-109748572D01*
X20158157Y-109628444D01*
X19877224Y-108981670D01*
X19875073Y-108976391D01*
X19577192Y-108195074D01*
X19575290Y-108189723D01*
X19313290Y-107395690D01*
X19311619Y-107390209D01*
X19086036Y-106585092D01*
X19084615Y-106579535D01*
X18920687Y-105871933D01*
X18895912Y-105764989D01*
X18894747Y-105759385D01*
X18886464Y-105714409D01*
X18743309Y-104937075D01*
X18742402Y-104931429D01*
X18707313Y-104676133D01*
X18628553Y-104103115D01*
X18627902Y-104097422D01*
X18624694Y-104062284D01*
X18551868Y-103264752D01*
X18551477Y-103259029D01*
X18513422Y-102423801D01*
X18513291Y-102418066D01*
X18513291Y-102190108D01*
X72112951Y-102190108D01*
X72152062Y-102581946D01*
X72230570Y-102967825D01*
X72231517Y-102970867D01*
X72231519Y-102970873D01*
X72289121Y-103155810D01*
X72347671Y-103343795D01*
X72348925Y-103346735D01*
X72353106Y-103356536D01*
X72502168Y-103706007D01*
X72503707Y-103708794D01*
X72503707Y-103708795D01*
X72508902Y-103718206D01*
X72692477Y-104050751D01*
X72694292Y-104053373D01*
X72694295Y-104053377D01*
X72914833Y-104371875D01*
X72916650Y-104374499D01*
X73172393Y-104673935D01*
X73457086Y-104945994D01*
X73459600Y-104947951D01*
X73459601Y-104947952D01*
X73765298Y-105185931D01*
X73765304Y-105185935D01*
X73767815Y-105187890D01*
X73770519Y-105189586D01*
X73770523Y-105189589D01*
X73782892Y-105197348D01*
X74101399Y-105397146D01*
X74454422Y-105571621D01*
X74823269Y-105709527D01*
X74826348Y-105710335D01*
X74826355Y-105710337D01*
X75013316Y-105759385D01*
X75204164Y-105809453D01*
X75207320Y-105809947D01*
X75207319Y-105809947D01*
X75590069Y-105869885D01*
X75590077Y-105869886D01*
X75593207Y-105870376D01*
X75596369Y-105870547D01*
X75596376Y-105870548D01*
X75892938Y-105886609D01*
X75892953Y-105886609D01*
X75894626Y-105886700D01*
X76098601Y-105886700D01*
X76100172Y-105886620D01*
X76100189Y-105886620D01*
X76390107Y-105871933D01*
X76390112Y-105871932D01*
X76393280Y-105871772D01*
X76585611Y-105842341D01*
X76779374Y-105812692D01*
X76779383Y-105812690D01*
X76782534Y-105812208D01*
X76965070Y-105765001D01*
X77160696Y-105714409D01*
X77160704Y-105714406D01*
X77163776Y-105713612D01*
X77166759Y-105712509D01*
X77166764Y-105712507D01*
X77530105Y-105578103D01*
X77530111Y-105578100D01*
X77533102Y-105576994D01*
X77886731Y-105403753D01*
X78221043Y-105195662D01*
X78326579Y-105114094D01*
X78530090Y-104956804D01*
X78530095Y-104956799D01*
X78532615Y-104954852D01*
X78551329Y-104937093D01*
X78815939Y-104685988D01*
X78815941Y-104685985D01*
X78818256Y-104683789D01*
X79075042Y-104385247D01*
X79273847Y-104100268D01*
X79298522Y-104064898D01*
X79298527Y-104064890D01*
X79300345Y-104062284D01*
X79491856Y-103718206D01*
X79498375Y-103703070D01*
X79646353Y-103359470D01*
X79646357Y-103359460D01*
X79647616Y-103356536D01*
X79766029Y-102980977D01*
X79845883Y-102595374D01*
X79886362Y-102203676D01*
X79886381Y-102193271D01*
X79886387Y-102190108D01*
X99112951Y-102190108D01*
X99152062Y-102581946D01*
X99230570Y-102967825D01*
X99231517Y-102970867D01*
X99231519Y-102970873D01*
X99289120Y-103155810D01*
X99347671Y-103343795D01*
X99348925Y-103346735D01*
X99353106Y-103356536D01*
X99502168Y-103706007D01*
X99503707Y-103708794D01*
X99503707Y-103708795D01*
X99508902Y-103718206D01*
X99692477Y-104050751D01*
X99694292Y-104053373D01*
X99694295Y-104053377D01*
X99914833Y-104371875D01*
X99916650Y-104374499D01*
X100172393Y-104673935D01*
X100457086Y-104945994D01*
X100459600Y-104947951D01*
X100459601Y-104947952D01*
X100765298Y-105185931D01*
X100765304Y-105185935D01*
X100767815Y-105187890D01*
X100770519Y-105189586D01*
X100770523Y-105189589D01*
X100782892Y-105197348D01*
X101101399Y-105397146D01*
X101454422Y-105571621D01*
X101823269Y-105709527D01*
X101826348Y-105710335D01*
X101826355Y-105710337D01*
X102013316Y-105759385D01*
X102204164Y-105809453D01*
X102207320Y-105809947D01*
X102207319Y-105809947D01*
X102590069Y-105869885D01*
X102590077Y-105869886D01*
X102593207Y-105870376D01*
X102596369Y-105870547D01*
X102596376Y-105870548D01*
X102892938Y-105886609D01*
X102892953Y-105886609D01*
X102894626Y-105886700D01*
X103098601Y-105886700D01*
X103100172Y-105886620D01*
X103100189Y-105886620D01*
X103390107Y-105871933D01*
X103390112Y-105871932D01*
X103393280Y-105871772D01*
X103585611Y-105842341D01*
X103779374Y-105812692D01*
X103779383Y-105812690D01*
X103782534Y-105812208D01*
X103965070Y-105765001D01*
X104160696Y-105714409D01*
X104160704Y-105714406D01*
X104163776Y-105713612D01*
X104166759Y-105712509D01*
X104166764Y-105712507D01*
X104530105Y-105578103D01*
X104530111Y-105578100D01*
X104533102Y-105576994D01*
X104886731Y-105403753D01*
X105221043Y-105195662D01*
X105326579Y-105114094D01*
X105530090Y-104956804D01*
X105530095Y-104956799D01*
X105532615Y-104954852D01*
X105551329Y-104937093D01*
X105815939Y-104685988D01*
X105815941Y-104685985D01*
X105818256Y-104683789D01*
X106075042Y-104385247D01*
X106273847Y-104100268D01*
X106298522Y-104064898D01*
X106298527Y-104064890D01*
X106300345Y-104062284D01*
X106491856Y-103718206D01*
X106498375Y-103703070D01*
X106646353Y-103359470D01*
X106646357Y-103359460D01*
X106647616Y-103356536D01*
X106766029Y-102980977D01*
X106845883Y-102595374D01*
X106886362Y-102203676D01*
X106886381Y-102193271D01*
X106886387Y-102190108D01*
X126112951Y-102190108D01*
X126152062Y-102581946D01*
X126230570Y-102967825D01*
X126231517Y-102970867D01*
X126231519Y-102970873D01*
X126289120Y-103155810D01*
X126347671Y-103343795D01*
X126348925Y-103346735D01*
X126353106Y-103356536D01*
X126502168Y-103706007D01*
X126503707Y-103708794D01*
X126503707Y-103708795D01*
X126508902Y-103718206D01*
X126692477Y-104050751D01*
X126694292Y-104053373D01*
X126694295Y-104053377D01*
X126914833Y-104371875D01*
X126916650Y-104374499D01*
X127172393Y-104673935D01*
X127457086Y-104945994D01*
X127459600Y-104947951D01*
X127459601Y-104947952D01*
X127765298Y-105185931D01*
X127765304Y-105185935D01*
X127767815Y-105187890D01*
X127770519Y-105189586D01*
X127770523Y-105189589D01*
X127782892Y-105197348D01*
X128101399Y-105397146D01*
X128454422Y-105571621D01*
X128823269Y-105709527D01*
X128826348Y-105710335D01*
X128826355Y-105710337D01*
X129013316Y-105759385D01*
X129204164Y-105809453D01*
X129207320Y-105809947D01*
X129207319Y-105809947D01*
X129590069Y-105869885D01*
X129590077Y-105869886D01*
X129593207Y-105870376D01*
X129596369Y-105870547D01*
X129596376Y-105870548D01*
X129892938Y-105886609D01*
X129892953Y-105886609D01*
X129894626Y-105886700D01*
X130098601Y-105886700D01*
X130100172Y-105886620D01*
X130100189Y-105886620D01*
X130390107Y-105871933D01*
X130390112Y-105871932D01*
X130393280Y-105871772D01*
X130585611Y-105842341D01*
X130779374Y-105812692D01*
X130779383Y-105812690D01*
X130782534Y-105812208D01*
X130965070Y-105765001D01*
X131160696Y-105714409D01*
X131160704Y-105714406D01*
X131163776Y-105713612D01*
X131166759Y-105712509D01*
X131166764Y-105712507D01*
X131530105Y-105578103D01*
X131530111Y-105578100D01*
X131533102Y-105576994D01*
X131886731Y-105403753D01*
X132221043Y-105195662D01*
X132326579Y-105114094D01*
X132530090Y-104956804D01*
X132530095Y-104956799D01*
X132532615Y-104954852D01*
X132551329Y-104937093D01*
X132815939Y-104685988D01*
X132815941Y-104685985D01*
X132818256Y-104683789D01*
X133075042Y-104385247D01*
X133273847Y-104100268D01*
X133298522Y-104064898D01*
X133298527Y-104064890D01*
X133300345Y-104062284D01*
X133491856Y-103718206D01*
X133498375Y-103703070D01*
X133646353Y-103359470D01*
X133646357Y-103359460D01*
X133647616Y-103356536D01*
X133766029Y-102980977D01*
X133845883Y-102595374D01*
X133886362Y-102203676D01*
X133886381Y-102193271D01*
X133887043Y-101813069D01*
X133887049Y-101809892D01*
X133847938Y-101418054D01*
X133769430Y-101032175D01*
X133764384Y-101015972D01*
X133710880Y-100844190D01*
X133652329Y-100656205D01*
X133648195Y-100646512D01*
X133499085Y-100296930D01*
X133499083Y-100296926D01*
X133497832Y-100293993D01*
X133492713Y-100284719D01*
X133309062Y-99952037D01*
X133307523Y-99949249D01*
X133299538Y-99937716D01*
X133085167Y-99628125D01*
X133085166Y-99628124D01*
X133083350Y-99625501D01*
X132827607Y-99326065D01*
X132542914Y-99054006D01*
X132534354Y-99047342D01*
X132234702Y-98814069D01*
X132234696Y-98814065D01*
X132232185Y-98812110D01*
X132222906Y-98806289D01*
X131901306Y-98604551D01*
X131898601Y-98602854D01*
X131545578Y-98428379D01*
X131176731Y-98290473D01*
X131173652Y-98289665D01*
X131173645Y-98289663D01*
X130965277Y-98234999D01*
X130795836Y-98190547D01*
X130740214Y-98181837D01*
X130409931Y-98130115D01*
X130409923Y-98130114D01*
X130406793Y-98129624D01*
X130403631Y-98129453D01*
X130403624Y-98129452D01*
X130107062Y-98113391D01*
X130107047Y-98113391D01*
X130105374Y-98113300D01*
X129901399Y-98113300D01*
X129899828Y-98113380D01*
X129899811Y-98113380D01*
X129609893Y-98128067D01*
X129609888Y-98128068D01*
X129606720Y-98128228D01*
X129414389Y-98157659D01*
X129220626Y-98187308D01*
X129220617Y-98187310D01*
X129217466Y-98187792D01*
X129131622Y-98209993D01*
X128839304Y-98285591D01*
X128839296Y-98285594D01*
X128836224Y-98286388D01*
X128833241Y-98287491D01*
X128833236Y-98287493D01*
X128469895Y-98421897D01*
X128469889Y-98421900D01*
X128466898Y-98423006D01*
X128113269Y-98596247D01*
X127778957Y-98804338D01*
X127768901Y-98812110D01*
X127469910Y-99043196D01*
X127469905Y-99043201D01*
X127467385Y-99045148D01*
X127465073Y-99047342D01*
X127445705Y-99065722D01*
X127181744Y-99316211D01*
X126924958Y-99614753D01*
X126917460Y-99625501D01*
X126701478Y-99935102D01*
X126701473Y-99935110D01*
X126699655Y-99937716D01*
X126508144Y-100281794D01*
X126506886Y-100284714D01*
X126506884Y-100284719D01*
X126353647Y-100640530D01*
X126353643Y-100640540D01*
X126352384Y-100643464D01*
X126233971Y-101019023D01*
X126154117Y-101404626D01*
X126113638Y-101796324D01*
X126113632Y-101799490D01*
X126113632Y-101799499D01*
X126113293Y-101993951D01*
X126112951Y-102190108D01*
X106886387Y-102190108D01*
X106887043Y-101813069D01*
X106887049Y-101809892D01*
X106847938Y-101418054D01*
X106769430Y-101032175D01*
X106764384Y-101015972D01*
X106710880Y-100844190D01*
X106652329Y-100656205D01*
X106648195Y-100646512D01*
X106499085Y-100296930D01*
X106499083Y-100296926D01*
X106497832Y-100293993D01*
X106492713Y-100284719D01*
X106309062Y-99952037D01*
X106307523Y-99949249D01*
X106299538Y-99937716D01*
X106085167Y-99628125D01*
X106085166Y-99628124D01*
X106083350Y-99625501D01*
X105827607Y-99326065D01*
X105542914Y-99054006D01*
X105534354Y-99047342D01*
X105234702Y-98814069D01*
X105234696Y-98814065D01*
X105232185Y-98812110D01*
X105222906Y-98806289D01*
X104901306Y-98604551D01*
X104898601Y-98602854D01*
X104545578Y-98428379D01*
X104176731Y-98290473D01*
X104173652Y-98289665D01*
X104173645Y-98289663D01*
X103965277Y-98234999D01*
X103795836Y-98190547D01*
X103740214Y-98181837D01*
X103409931Y-98130115D01*
X103409923Y-98130114D01*
X103406793Y-98129624D01*
X103403631Y-98129453D01*
X103403624Y-98129452D01*
X103107062Y-98113391D01*
X103107047Y-98113391D01*
X103105374Y-98113300D01*
X102901399Y-98113300D01*
X102899828Y-98113380D01*
X102899811Y-98113380D01*
X102609893Y-98128067D01*
X102609888Y-98128068D01*
X102606720Y-98128228D01*
X102414389Y-98157659D01*
X102220626Y-98187308D01*
X102220617Y-98187310D01*
X102217466Y-98187792D01*
X102131622Y-98209993D01*
X101839304Y-98285591D01*
X101839296Y-98285594D01*
X101836224Y-98286388D01*
X101833241Y-98287491D01*
X101833236Y-98287493D01*
X101469895Y-98421897D01*
X101469889Y-98421900D01*
X101466898Y-98423006D01*
X101113269Y-98596247D01*
X100778957Y-98804338D01*
X100768901Y-98812110D01*
X100469910Y-99043196D01*
X100469905Y-99043201D01*
X100467385Y-99045148D01*
X100465073Y-99047342D01*
X100445705Y-99065722D01*
X100181744Y-99316211D01*
X99924958Y-99614753D01*
X99917460Y-99625501D01*
X99701478Y-99935102D01*
X99701473Y-99935110D01*
X99699655Y-99937716D01*
X99508144Y-100281794D01*
X99506886Y-100284714D01*
X99506884Y-100284719D01*
X99353647Y-100640530D01*
X99353643Y-100640540D01*
X99352384Y-100643464D01*
X99233971Y-101019023D01*
X99154117Y-101404626D01*
X99113638Y-101796324D01*
X99113632Y-101799490D01*
X99113632Y-101799499D01*
X99113293Y-101993951D01*
X99112951Y-102190108D01*
X79886387Y-102190108D01*
X79887043Y-101813069D01*
X79887049Y-101809892D01*
X79847938Y-101418054D01*
X79769430Y-101032175D01*
X79764384Y-101015972D01*
X79710880Y-100844190D01*
X79652329Y-100656205D01*
X79648195Y-100646512D01*
X79499085Y-100296930D01*
X79499083Y-100296926D01*
X79497832Y-100293993D01*
X79492713Y-100284719D01*
X79309062Y-99952037D01*
X79307523Y-99949249D01*
X79299538Y-99937716D01*
X79085167Y-99628125D01*
X79085166Y-99628124D01*
X79083350Y-99625501D01*
X78827607Y-99326065D01*
X78542914Y-99054006D01*
X78534354Y-99047342D01*
X78234702Y-98814069D01*
X78234696Y-98814065D01*
X78232185Y-98812110D01*
X78222906Y-98806289D01*
X77901306Y-98604551D01*
X77898601Y-98602854D01*
X77545578Y-98428379D01*
X77176731Y-98290473D01*
X77173652Y-98289665D01*
X77173645Y-98289663D01*
X76965277Y-98234999D01*
X76795836Y-98190547D01*
X76740214Y-98181837D01*
X76409931Y-98130115D01*
X76409923Y-98130114D01*
X76406793Y-98129624D01*
X76403631Y-98129453D01*
X76403624Y-98129452D01*
X76107062Y-98113391D01*
X76107047Y-98113391D01*
X76105374Y-98113300D01*
X75901399Y-98113300D01*
X75899828Y-98113380D01*
X75899811Y-98113380D01*
X75609893Y-98128067D01*
X75609888Y-98128068D01*
X75606720Y-98128228D01*
X75414389Y-98157659D01*
X75220626Y-98187308D01*
X75220617Y-98187310D01*
X75217466Y-98187792D01*
X75131622Y-98209993D01*
X74839304Y-98285591D01*
X74839296Y-98285594D01*
X74836224Y-98286388D01*
X74833241Y-98287491D01*
X74833236Y-98287493D01*
X74469895Y-98421897D01*
X74469889Y-98421900D01*
X74466898Y-98423006D01*
X74113269Y-98596247D01*
X73778957Y-98804338D01*
X73768901Y-98812110D01*
X73469910Y-99043196D01*
X73469905Y-99043201D01*
X73467385Y-99045148D01*
X73465073Y-99047342D01*
X73445705Y-99065722D01*
X73181744Y-99316211D01*
X72924958Y-99614753D01*
X72917460Y-99625501D01*
X72701478Y-99935102D01*
X72701473Y-99935110D01*
X72699655Y-99937716D01*
X72508144Y-100281794D01*
X72506886Y-100284714D01*
X72506884Y-100284719D01*
X72353647Y-100640530D01*
X72353643Y-100640540D01*
X72352384Y-100643464D01*
X72233971Y-101019023D01*
X72154117Y-101404626D01*
X72113638Y-101796324D01*
X72113632Y-101799490D01*
X72113632Y-101799499D01*
X72113293Y-101993951D01*
X72112951Y-102190108D01*
X18513291Y-102190108D01*
X18513291Y-101581934D01*
X18513422Y-101576199D01*
X18551477Y-100740971D01*
X18551868Y-100735248D01*
X18593007Y-100284719D01*
X18627903Y-99902573D01*
X18628554Y-99896879D01*
X18742405Y-99068553D01*
X18743312Y-99062907D01*
X18744546Y-99056211D01*
X18894750Y-98240603D01*
X18895914Y-98234999D01*
X18906025Y-98191357D01*
X19084615Y-97420465D01*
X19086036Y-97414908D01*
X19311619Y-96609791D01*
X19313292Y-96604304D01*
X19575290Y-95810277D01*
X19577192Y-95804926D01*
X19875073Y-95023609D01*
X19877228Y-95018321D01*
X20210336Y-94251428D01*
X20212741Y-94246219D01*
X20580409Y-93495283D01*
X20583048Y-93490190D01*
X20984511Y-92756771D01*
X20987379Y-92751803D01*
X21421811Y-92037411D01*
X21424902Y-92032579D01*
X21891403Y-91338693D01*
X21894711Y-91334007D01*
X22392304Y-90662082D01*
X22395822Y-90657551D01*
X22923489Y-90008961D01*
X22927210Y-90004595D01*
X23079784Y-89833586D01*
X23483828Y-89380719D01*
X23487741Y-89376529D01*
X24072213Y-88778597D01*
X24076315Y-88774588D01*
X24687376Y-88203897D01*
X24691657Y-88200078D01*
X25328048Y-87657801D01*
X25332497Y-87654181D01*
X25992928Y-87141415D01*
X25997538Y-87138001D01*
X26680637Y-86655818D01*
X26685357Y-86652645D01*
X27389715Y-86202038D01*
X27394590Y-86199074D01*
X28118684Y-85781018D01*
X28123716Y-85778263D01*
X28246528Y-85714627D01*
X28866127Y-85393577D01*
X28871237Y-85391075D01*
X29630365Y-85040588D01*
X29635626Y-85038303D01*
X30409890Y-84722743D01*
X30415250Y-84720699D01*
X30840873Y-84569433D01*
X31203124Y-84440689D01*
X31208542Y-84438902D01*
X32008298Y-84195055D01*
X32013821Y-84193507D01*
X32823862Y-83986310D01*
X32829437Y-83985018D01*
X33648100Y-83814898D01*
X33653705Y-83813866D01*
X34201427Y-83725836D01*
X34479244Y-83681186D01*
X34484927Y-83680405D01*
X34753281Y-83649727D01*
X35315655Y-83585436D01*
X35321342Y-83584917D01*
X35643464Y-83562883D01*
X36155508Y-83527859D01*
X36161238Y-83527598D01*
X36954246Y-83509542D01*
X36976499Y-83511009D01*
X36984852Y-83512310D01*
X36984855Y-83512310D01*
X36993724Y-83513691D01*
X37002626Y-83512527D01*
X37002628Y-83512527D01*
X37018906Y-83510398D01*
X37025286Y-83509564D01*
X37041621Y-83508500D01*
X72946750Y-83508500D01*
X72967655Y-83510246D01*
X72982656Y-83512770D01*
X72982659Y-83512770D01*
X72987448Y-83513576D01*
X72993555Y-83513650D01*
X72995136Y-83513670D01*
X72995140Y-83513670D01*
X73000000Y-83513729D01*
X73004819Y-83513039D01*
X73006407Y-83512935D01*
X73011069Y-83512718D01*
X73643763Y-83494967D01*
X73643767Y-83494967D01*
X73645541Y-83494917D01*
X73647306Y-83494768D01*
X73647308Y-83494768D01*
X74287298Y-83440785D01*
X74287306Y-83440784D01*
X74289050Y-83440637D01*
X74290783Y-83440392D01*
X74290786Y-83440392D01*
X74408968Y-83423708D01*
X74928504Y-83350362D01*
X74930213Y-83350022D01*
X74930231Y-83350019D01*
X75560176Y-83224714D01*
X75560178Y-83224714D01*
X75561890Y-83224373D01*
X75563580Y-83223937D01*
X75563589Y-83223935D01*
X76185490Y-83063514D01*
X76185491Y-83063514D01*
X76187215Y-83063069D01*
X76802512Y-82866956D01*
X76804168Y-82866324D01*
X77404180Y-82637288D01*
X77404194Y-82637282D01*
X77405845Y-82636652D01*
X77407440Y-82635938D01*
X77407460Y-82635930D01*
X77993705Y-82373602D01*
X77993709Y-82373600D01*
X77995316Y-82372881D01*
X78569070Y-82076473D01*
X79125301Y-81748360D01*
X79126765Y-81747382D01*
X79660786Y-81390561D01*
X79660805Y-81390548D01*
X79662259Y-81389576D01*
X80178256Y-81001249D01*
X80671667Y-80584600D01*
X81140941Y-80140941D01*
X81584600Y-79671667D01*
X82001249Y-79178256D01*
X82389576Y-78662259D01*
X82390548Y-78660805D01*
X82390561Y-78660786D01*
X82747382Y-78126765D01*
X82747385Y-78126760D01*
X82748360Y-78125301D01*
X82855432Y-77943789D01*
X83075580Y-77570584D01*
X83075581Y-77570582D01*
X83076473Y-77569070D01*
X83372881Y-76995316D01*
X83426431Y-76875643D01*
X83635930Y-76407460D01*
X83635938Y-76407440D01*
X83636652Y-76405845D01*
X83654355Y-76359470D01*
X83866324Y-75804168D01*
X83866325Y-75804164D01*
X83866956Y-75802512D01*
X84062147Y-75190108D01*
X99112951Y-75190108D01*
X99152062Y-75581946D01*
X99230570Y-75967825D01*
X99231517Y-75970867D01*
X99231519Y-75970873D01*
X99289120Y-76155810D01*
X99347671Y-76343795D01*
X99348925Y-76346735D01*
X99374827Y-76407460D01*
X99502168Y-76706007D01*
X99503707Y-76708794D01*
X99503707Y-76708795D01*
X99508902Y-76718206D01*
X99692477Y-77050751D01*
X99694292Y-77053373D01*
X99694295Y-77053377D01*
X99702273Y-77064898D01*
X99916650Y-77374499D01*
X100172393Y-77673935D01*
X100457086Y-77945994D01*
X100459600Y-77947951D01*
X100459601Y-77947952D01*
X100765298Y-78185931D01*
X100765304Y-78185935D01*
X100767815Y-78187890D01*
X100770519Y-78189586D01*
X100770523Y-78189589D01*
X100782892Y-78197348D01*
X101101399Y-78397146D01*
X101454422Y-78571621D01*
X101823269Y-78709527D01*
X101826348Y-78710335D01*
X101826355Y-78710337D01*
X102013717Y-78759490D01*
X102204164Y-78809453D01*
X102207320Y-78809947D01*
X102207319Y-78809947D01*
X102590069Y-78869885D01*
X102590077Y-78869886D01*
X102593207Y-78870376D01*
X102596369Y-78870547D01*
X102596376Y-78870548D01*
X102892938Y-78886609D01*
X102892953Y-78886609D01*
X102894626Y-78886700D01*
X103098601Y-78886700D01*
X103100172Y-78886620D01*
X103100189Y-78886620D01*
X103390107Y-78871933D01*
X103390112Y-78871932D01*
X103393280Y-78871772D01*
X103585611Y-78842341D01*
X103779374Y-78812692D01*
X103779383Y-78812690D01*
X103782534Y-78812208D01*
X103868378Y-78790007D01*
X104160696Y-78714409D01*
X104160704Y-78714406D01*
X104163776Y-78713612D01*
X104166759Y-78712509D01*
X104166764Y-78712507D01*
X104530105Y-78578103D01*
X104530111Y-78578100D01*
X104533102Y-78576994D01*
X104886731Y-78403753D01*
X105221043Y-78195662D01*
X105326579Y-78114094D01*
X105530090Y-77956804D01*
X105530095Y-77956799D01*
X105532615Y-77954852D01*
X105818256Y-77683789D01*
X106075042Y-77385247D01*
X106162123Y-77260420D01*
X106298522Y-77064898D01*
X106298527Y-77064890D01*
X106300345Y-77062284D01*
X106491856Y-76718206D01*
X106625685Y-76407460D01*
X106646353Y-76359470D01*
X106646357Y-76359460D01*
X106647616Y-76356536D01*
X106766029Y-75980977D01*
X106845883Y-75595374D01*
X106886362Y-75203676D01*
X106886381Y-75193271D01*
X106887043Y-74813069D01*
X106887049Y-74809892D01*
X106867556Y-74614598D01*
X106848255Y-74421227D01*
X106848254Y-74421221D01*
X106847938Y-74418054D01*
X106769430Y-74032175D01*
X106764384Y-74015972D01*
X106653278Y-73659253D01*
X106652329Y-73656205D01*
X106648195Y-73646512D01*
X106499085Y-73296930D01*
X106499083Y-73296926D01*
X106497832Y-73293993D01*
X106492713Y-73284719D01*
X106309062Y-72952037D01*
X106307523Y-72949249D01*
X106299538Y-72937716D01*
X106085167Y-72628125D01*
X106085166Y-72628124D01*
X106083350Y-72625501D01*
X105827607Y-72326065D01*
X105542914Y-72054006D01*
X105534354Y-72047342D01*
X105234702Y-71814069D01*
X105234696Y-71814065D01*
X105232185Y-71812110D01*
X105222906Y-71806289D01*
X104901306Y-71604551D01*
X104898601Y-71602854D01*
X104545578Y-71428379D01*
X104176731Y-71290473D01*
X104173652Y-71289665D01*
X104173645Y-71289663D01*
X103986284Y-71240510D01*
X103795836Y-71190547D01*
X103740214Y-71181837D01*
X103409931Y-71130115D01*
X103409923Y-71130114D01*
X103406793Y-71129624D01*
X103403631Y-71129453D01*
X103403624Y-71129452D01*
X103107062Y-71113391D01*
X103107047Y-71113391D01*
X103105374Y-71113300D01*
X102901399Y-71113300D01*
X102899828Y-71113380D01*
X102899811Y-71113380D01*
X102609893Y-71128067D01*
X102609888Y-71128068D01*
X102606720Y-71128228D01*
X102414389Y-71157659D01*
X102220626Y-71187308D01*
X102220617Y-71187310D01*
X102217466Y-71187792D01*
X102131622Y-71209993D01*
X101839304Y-71285591D01*
X101839296Y-71285594D01*
X101836224Y-71286388D01*
X101833241Y-71287491D01*
X101833236Y-71287493D01*
X101469895Y-71421897D01*
X101469889Y-71421900D01*
X101466898Y-71423006D01*
X101113269Y-71596247D01*
X100778957Y-71804338D01*
X100768901Y-71812110D01*
X100469910Y-72043196D01*
X100469905Y-72043201D01*
X100467385Y-72045148D01*
X100181744Y-72316211D01*
X99924958Y-72614753D01*
X99903480Y-72645541D01*
X99701478Y-72935102D01*
X99701473Y-72935110D01*
X99699655Y-72937716D01*
X99508144Y-73281794D01*
X99506886Y-73284714D01*
X99506884Y-73284719D01*
X99353647Y-73640530D01*
X99353643Y-73640540D01*
X99352384Y-73643464D01*
X99233971Y-74019023D01*
X99154117Y-74404626D01*
X99113638Y-74796324D01*
X99113632Y-74799490D01*
X99113632Y-74799499D01*
X99113293Y-74993951D01*
X99112951Y-75190108D01*
X84062147Y-75190108D01*
X84063069Y-75187215D01*
X84224373Y-74561890D01*
X84224714Y-74560176D01*
X84350019Y-73930231D01*
X84350022Y-73930213D01*
X84350362Y-73928504D01*
X84440637Y-73289050D01*
X84441003Y-73284719D01*
X84494768Y-72647308D01*
X84494768Y-72647306D01*
X84494917Y-72645541D01*
X84495547Y-72623078D01*
X84512331Y-72024897D01*
X84512777Y-72017303D01*
X84513576Y-72012552D01*
X84513729Y-72000000D01*
X84509773Y-71972376D01*
X84508500Y-71954514D01*
X84508500Y-36053250D01*
X84510246Y-36032345D01*
X84512770Y-36017344D01*
X84512770Y-36017341D01*
X84513576Y-36012552D01*
X84513729Y-36000000D01*
X84510694Y-35978807D01*
X84509454Y-35958079D01*
X84527598Y-35161238D01*
X84527859Y-35155508D01*
X84584916Y-34321354D01*
X84585437Y-34315641D01*
X84680405Y-33484927D01*
X84681186Y-33479244D01*
X84813863Y-32653719D01*
X84814898Y-32648100D01*
X84985018Y-31829437D01*
X84986310Y-31823862D01*
X85193507Y-31013821D01*
X85195055Y-31008298D01*
X85438897Y-30208557D01*
X85440694Y-30203109D01*
X85523533Y-29970024D01*
X85720699Y-29415250D01*
X85722743Y-29409890D01*
X86038303Y-28635626D01*
X86040588Y-28630365D01*
X86178924Y-28330740D01*
X86391075Y-27871237D01*
X86393577Y-27866127D01*
X86778263Y-27123716D01*
X86781018Y-27118684D01*
X87199066Y-26394603D01*
X87202046Y-26389702D01*
X87652645Y-25685357D01*
X87655818Y-25680637D01*
X88138004Y-24997534D01*
X88141415Y-24992928D01*
X88654181Y-24332497D01*
X88657801Y-24328048D01*
X89200078Y-23691657D01*
X89203897Y-23687376D01*
X89774588Y-23076315D01*
X89778597Y-23072213D01*
X90376529Y-22487741D01*
X90380722Y-22483826D01*
X91004595Y-21927210D01*
X91008961Y-21923489D01*
X91042990Y-21895805D01*
X91657551Y-21395822D01*
X91662082Y-21392304D01*
X92334007Y-20894711D01*
X92338693Y-20891403D01*
X93032579Y-20424902D01*
X93037411Y-20421811D01*
X93751803Y-19987379D01*
X93756771Y-19984511D01*
X94490190Y-19583048D01*
X94495283Y-19580409D01*
X95246219Y-19212741D01*
X95251428Y-19210336D01*
X96018330Y-18877224D01*
X96023609Y-18875073D01*
X96804926Y-18577192D01*
X96810277Y-18575290D01*
X97604310Y-18313290D01*
X97609791Y-18311619D01*
X98414908Y-18086036D01*
X98420465Y-18084615D01*
X98881972Y-17977699D01*
X99235011Y-17895912D01*
X99240603Y-17894750D01*
X100062925Y-17743309D01*
X100068553Y-17742405D01*
X100896885Y-17628553D01*
X100902573Y-17627903D01*
X101735247Y-17551868D01*
X101740971Y-17551477D01*
X102576199Y-17513422D01*
X102581934Y-17513291D01*
X103418066Y-17513291D01*
X103423801Y-17513422D01*
G37*
%TD.AperFunction*%
%TD*%
M02*
